<?xml version="1.0" standalone="no"?>
<!DOCTYPE svg PUBLIC "-//W3C//DTD SVG 20010904//EN"
 "http://www.w3.org/TR/2001/REC-SVG-20010904/DTD/svg10.dtd">
<svg version="1.0" xmlns="http://www.w3.org/2000/svg"
 width="192.000000pt" height="192.000000pt" viewBox="0 0 192.000000 192.000000"
 preserveAspectRatio="xMidYMid meet">

<g transform="translate(0.000000,192.000000) scale(0.100000,-0.100000)"
fill="#000000" stroke="none">
<path d="M924 1830 c-6 -34 -10 -40 -31 -40 -15 0 -39 -14 -60 -35 -33 -33
-34 -35 -19 -64 9 -17 16 -37 16 -46 0 -30 -54 -72 -116 -90 -32 -10 -79 -24
-104 -33 -25 -8 -65 -17 -90 -21 -35 -5 -45 -11 -50 -29 -13 -55 -99 -117
-200 -143 -38 -9 -42 -12 -25 -21 10 -6 36 -12 57 -13 21 -1 41 -4 43 -7 9 -9
243 -635 247 -659 4 -29 56 -65 107 -74 22 -3 54 -17 71 -30 18 -13 47 -27 64
-31 47 -10 49 -14 26 -39 -15 -16 -20 -30 -16 -43 7 -22 80 -92 96 -92 16 0
89 70 96 92 4 13 -1 27 -16 43 -24 25 -21 29 27 40 18 3 43 15 57 26 13 10 52
28 86 38 67 21 100 44 100 71 0 10 41 125 91 256 49 132 104 276 121 322 31
82 31 82 67 82 20 1 47 7 61 14 24 14 24 14 -20 25 -25 7 -61 19 -81 27 -43
19 -124 98 -115 112 9 15 -15 29 -59 35 -62 8 -236 64 -265 85 -36 27 -46 63
-28 99 23 47 4 74 -73 102 -20 7 -28 19 -33 45 -9 48 -24 46 -32 -4z m166
-334 c57 -17 123 -48 132 -61 5 -6 -20 -12 -65 -16 -168 -15 -512 -6 -501 13
3 4 26 19 52 32 41 20 70 29 157 50 34 8 177 -3 225 -18z m158 -129 c34 -22
-19 -27 -308 -27 -300 0 -363 6 -288 29 39 12 577 10 596 -2z m-350 -404 l2
-323 -114 0 c-79 0 -116 4 -123 13 -5 6 -51 131 -103 277 -51 146 -101 286
-111 313 l-19 47 233 -2 232 -3 3 -322z m548 319 c-3 -4 -52 -142 -111 -306
-58 -164 -110 -307 -116 -317 -9 -17 -22 -19 -124 -19 l-115 0 0 325 0 325
236 0 c129 0 233 -4 230 -8z m-353 -703 c-6 -6 -27 -14 -47 -19 -49 -11 -242
2 -258 18 -9 9 21 12 152 12 117 0 161 -3 153 -11z m-138 -89 c0 -27 -22 -39
-31 -16 -8 22 3 49 19 43 6 -2 12 -14 12 -27z"/>
</g>
</svg>
