<?xml version="1.0" standalone="no"?>
<!DOCTYPE svg PUBLIC "-//W3C//DTD SVG 20010904//EN"
 "http://www.w3.org/TR/2001/REC-SVG-20010904/DTD/svg10.dtd">
<svg version="1.0" xmlns="http://www.w3.org/2000/svg"
 width="1024.000000pt" height="1024.000000pt" viewBox="0 0 1024.000000 1024.000000"
 preserveAspectRatio="xMidYMid meet">

<g transform="translate(0.000000,1024.000000) scale(0.100000,-0.100000)"
fill="#000000" stroke="none">
<path d="M3140 9494 c0 -49 16 -74 49 -74 18 0 21 6 21 44 0 62 -7 76 -41 76
-28 0 -29 -2 -29 -46z"/>
<path d="M5378 9453 c6 -2 18 -2 25 0 6 3 1 5 -13 5 -14 0 -19 -2 -12 -5z"/>
<path d="M5483 9453 c9 -2 23 -2 30 0 6 3 -1 5 -18 5 -16 0 -22 -2 -12 -5z"/>
<path d="M4018 9433 c7 -3 16 -2 19 1 4 3 -2 6 -13 5 -11 0 -14 -3 -6 -6z"/>
<path d="M4310 9433 c0 -7 -6 -13 -14 -13 -8 0 -17 -9 -21 -20 -5 -16 -9 -17
-20 -7 -11 10 -10 13 4 19 11 5 8 7 -11 7 -16 1 -27 -2 -27 -6 5 -30 -4 -33
-97 -33 -61 0 -93 4 -89 10 3 6 1 10 -4 10 -6 0 -11 -4 -11 -10 0 -13 -667
-14 -672 -1 -1 5 -39 10 -84 12 -65 3 -78 2 -65 -8 12 -9 12 -12 3 -13 -22 0
-42 -27 -42 -55 0 -15 -4 -24 -10 -20 -6 4 -10 -15 -10 -50 0 -35 -4 -54 -10
-50 -8 5 -15 -31 -11 -57 0 -5 -4 -8 -9 -8 -6 0 -10 -10 -10 -22 0 -19 -2 -20
-10 -8 -9 13 -10 13 -10 -1 0 -20 -23 -69 -32 -69 -5 0 -8 -9 -8 -20 0 -11 -4
-20 -10 -20 -5 0 -10 -9 -10 -20 0 -11 -4 -20 -10 -20 -5 0 -10 -7 -10 -15 0
-8 -4 -15 -10 -15 -5 0 -10 -7 -10 -15 0 -8 -5 -15 -11 -15 -5 0 -8 -4 -4 -9
3 -5 -2 -16 -10 -24 -8 -9 -15 -23 -15 -31 0 -9 -4 -16 -10 -16 -5 0 -10 -9
-10 -20 0 -11 -4 -20 -10 -20 -5 0 -10 -9 -10 -20 0 -11 -4 -20 -10 -20 -5 0
-10 -9 -10 -20 0 -11 -4 -20 -10 -20 -5 0 -10 -9 -10 -20 0 -11 -4 -20 -10
-20 -5 0 -10 -9 -10 -20 0 -11 -4 -20 -10 -20 -5 0 -10 -9 -10 -20 0 -11 -4
-20 -10 -20 -5 0 -10 -9 -10 -20 0 -11 -4 -20 -10 -20 -5 0 -10 -9 -10 -20 0
-11 -4 -20 -10 -20 -5 0 -10 -13 -10 -30 0 -16 -4 -30 -10 -30 -5 0 -10 -9
-10 -20 0 -11 -4 -20 -10 -20 -5 0 -10 -18 -10 -40 0 -22 -4 -40 -10 -40 -5 0
-10 -13 -10 -30 0 -20 -5 -30 -15 -30 -25 0 -65 -46 -65 -75 0 -14 5 -25 10
-25 6 0 10 -9 10 -21 0 -11 5 -17 10 -14 6 3 10 -1 10 -9 0 -9 5 -16 10 -16 6
0 10 -37 10 -90 0 -53 -4 -90 -10 -90 -5 0 -10 -13 -10 -30 0 -16 -4 -30 -10
-30 -5 0 -10 -9 -10 -19 0 -11 -4 -23 -10 -26 -5 -3 -10 -17 -10 -31 0 -13 -4
-24 -10 -24 -5 0 -10 -9 -10 -20 0 -11 -4 -20 -10 -20 -6 0 -10 -28 -10 -65 0
-62 2 -68 35 -100 19 -19 41 -35 50 -35 13 0 15 -158 15 -1489 0 -983 3 -1492
10 -1496 6 -3 10 -17 10 -31 0 -13 -4 -24 -10 -24 -5 0 -10 -9 -10 -20 0 -11
-4 -20 -10 -20 -5 0 -10 -8 -10 -18 0 -10 -9 -24 -20 -32 -11 -8 -20 -22 -20
-32 0 -10 -4 -18 -10 -18 -6 0 -10 -30 -10 -70 0 -40 4 -70 10 -70 6 0 10 -10
11 -22 0 -13 3 -18 6 -11 3 8 12 4 29 -12 l24 -24 0 -515 c0 -402 -3 -515 -12
-519 -10 -4 -10 -8 -2 -14 15 -11 19 -223 4 -223 -5 0 -10 -9 -10 -20 0 -11 4
-20 9 -20 6 0 10 -109 11 -270 0 -179 -3 -270 -10 -270 -5 0 -10 -22 -10 -50
0 -27 5 -50 10 -50 16 0 13 -577 -2 -584 -10 -5 -10 -7 0 -12 8 -4 12 -31 12
-85 0 -46 4 -79 10 -79 6 0 10 -13 10 -30 0 -16 5 -30 10 -30 6 0 10 -11 10
-25 0 -26 59 -95 81 -95 6 0 19 -8 28 -18 9 -9 28 -23 44 -31 15 -8 27 -18 27
-23 0 -4 8 -8 18 -8 10 0 24 -9 32 -20 8 -11 22 -20 32 -20 10 0 18 -4 18 -10
0 -5 8 -10 18 -10 10 0 24 -9 32 -20 8 -11 22 -20 32 -20 10 0 18 -4 18 -10 0
-5 7 -10 15 -10 20 0 85 -65 85 -85 0 -13 38 -22 73 -16 4 0 7 -4 7 -11 0 -9
3 -9 12 0 14 14 48 16 48 3 0 -5 9 -13 20 -16 13 -4 20 -15 20 -31 0 -13 6
-24 13 -24 9 0 8 -3 -2 -9 -11 -7 -10 -11 5 -20 17 -9 17 -10 2 -11 -10 0 -18
-4 -18 -10 0 -5 -9 -10 -20 -10 -11 0 -20 -4 -20 -10 0 -5 11 -10 25 -10 26 0
75 39 75 60 0 5 5 10 10 10 6 0 10 11 10 25 0 14 5 25 10 25 6 0 10 7 10 16 0
22 32 53 38 36 2 -7 23 -12 53 -12 31 0 48 -4 44 -10 -4 -6 12 -10 39 -10 25
0 46 5 46 10 0 6 -6 10 -12 10 -9 0 -8 4 2 10 13 9 13 11 0 20 -11 7 -11 10
-2 10 7 0 11 4 8 9 -4 5 0 12 6 15 7 4 3 4 -10 2 -12 -2 -20 0 -16 5 7 12 64
11 64 -1 0 -6 38 -10 93 -10 63 0 87 -3 77 -10 -10 -7 1 -8 35 -3 74 9 80 9
77 -4 -1 -8 8 -13 24 -13 16 0 23 -4 18 -11 -3 -6 0 -15 7 -20 7 -4 10 -12 5
-16 -5 -4 -11 -2 -13 5 -3 6 -12 12 -22 12 -9 0 -22 5 -29 12 -8 8 -12 8 -12
1 0 -6 7 -13 15 -17 27 -10 17 -36 -14 -36 -17 0 -33 -4 -36 -10 -4 -6 36 -10
112 -11 75 0 111 -4 98 -9 -11 -5 317 -9 763 -9 520 -1 781 2 777 9 -4 6 44
10 137 10 129 1 141 2 118 15 -14 8 -35 14 -48 15 -13 0 -20 4 -17 10 6 10 86
3 95 -9 3 -3 32 -7 65 -8 40 -1 53 2 40 7 -11 5 -39 9 -62 9 -24 1 -43 6 -43
12 0 5 3 8 8 6 4 -3 16 -1 27 4 l20 8 -20 0 c-16 1 -17 3 -5 10 8 6 28 7 45 5
23 -4 27 -3 15 5 -12 9 -10 11 12 11 29 0 46 15 26 23 -7 3 -3 6 10 6 12 1 22
-3 22 -9 0 -5 10 -9 23 -9 17 1 18 2 4 6 -42 11 1 23 84 23 53 0 89 4 89 10 0
6 8 10 18 10 10 0 24 6 30 12 12 12 29 14 172 17 47 1 61 4 50 11 -11 8 1 10
42 9 47 -2 57 -6 62 -22 3 -11 -1 -26 -9 -33 -14 -15 -85 -20 -85 -6 0 4 -13
9 -30 10 -24 2 -30 -2 -30 -18 0 -11 6 -20 13 -20 25 0 -18 -20 -45 -20 -21 0
-28 -5 -28 -20 0 -16 7 -20 31 -20 17 0 28 4 24 10 -4 6 11 10 37 10 40 1 42
2 24 15 -11 8 -16 18 -12 22 4 4 10 2 14 -4 11 -17 82 -5 82 13 0 10 14 14 49
14 30 0 51 5 54 13 4 9 6 9 6 -1 1 -8 8 -6 23 8 16 15 24 17 30 8 6 -10 8 -10
8 0 0 7 14 12 35 12 19 0 35 5 35 10 0 6 9 10 20 10 11 0 20 5 20 10 0 6 9 10
20 10 11 0 20 5 20 10 0 6 9 10 20 10 11 0 20 5 20 10 0 6 9 10 21 10 11 0 17
4 14 10 -3 5 1 10 9 10 9 0 16 5 16 10 0 6 8 10 18 10 10 0 24 9 32 19 7 11
17 18 21 15 11 -6 89 72 89 90 0 9 5 16 10 16 6 0 10 9 10 20 0 11 5 20 10 20
6 0 10 14 10 30 0 17 5 30 10 30 7 0 10 223 9 653 -1 358 -5 628 -9 600 -13
-92 -19 -106 -35 -93 -8 6 -19 9 -25 5 -6 -4 -10 4 -10 20 0 14 4 24 9 20 5
-3 12 -1 16 5 3 5 0 10 -8 10 -22 0 -30 118 -10 139 10 10 12 16 4 19 -15 5
-15 162 0 162 6 0 9 16 7 37 -2 31 -7 38 -23 36 -19 -1 -19 -1 -2 12 16 11 18
25 15 84 -1 39 0 71 4 71 3 0 9 18 13 40 7 38 19 53 24 28 4 -29 10 -85 10
-115 1 -26 5 -33 21 -33 20 0 20 7 20 410 0 267 3 410 10 410 6 0 10 9 10 20
0 11 -4 20 -10 20 -5 0 -10 9 -10 20 0 11 -4 20 -10 20 -5 0 -10 9 -10 20 0
11 4 20 9 20 6 0 9 9 8 19 0 11 -5 17 -9 15 -4 -3 -8 6 -8 20 0 14 5 26 10 26
6 0 10 23 10 51 0 31 -4 48 -10 44 -5 -3 -10 1 -10 9 0 9 5 16 10 16 6 0 10 9
10 20 0 11 -4 20 -10 20 -5 0 -10 14 -10 30 0 17 5 30 10 30 6 0 10 9 10 20 0
11 5 20 10 20 6 0 10 12 10 26 0 14 -4 23 -10 19 -6 -4 -10 10 -10 34 0 21 -5
41 -10 43 -7 2 -11 55 -13 136 0 72 -2 132 -3 132 -9 0 -59 -31 -64 -40 -4 -6
-7 43 -8 109 l-1 121 30 0 c22 0 29 -5 29 -20 0 -11 5 -20 10 -20 6 0 10 -9
10 -20 0 -23 -4 -24 -31 -10 -20 11 -28 -3 -9 -15 6 -4 8 -10 5 -15 -3 -5 -1
-11 5 -15 5 -3 10 -19 10 -36 0 -16 5 -29 10 -29 6 0 10 23 10 50 0 28 5 50
10 50 6 0 10 14 10 30 0 17 -5 30 -11 30 -5 0 -9 8 -8 18 3 36 -1 63 -11 57
-5 -3 -7 -12 -3 -20 4 -12 -3 -15 -31 -15 l-37 0 1 294 c1 217 5 296 13 299 9
3 9 8 0 18 -17 17 -16 59 2 83 19 26 19 42 0 26 -13 -11 -15 -6 -14 36 1 41 2
45 9 24 6 -17 9 8 9 75 -1 55 0 245 0 423 l1 322 36 0 c38 0 64 18 64 44 0 9
5 16 10 16 6 0 10 27 10 60 0 33 -4 60 -10 60 -5 0 -10 9 -10 20 0 11 -4 20
-10 20 -5 0 -10 9 -10 20 0 11 -4 20 -10 20 -5 0 -10 9 -10 20 0 15 -7 20 -26
20 -21 0 -24 -3 -19 -21 5 -15 4 -19 -4 -15 -7 5 -11 49 -10 129 1 80 4 110 9
87 5 -23 8 7 9 88 1 80 -3 121 -9 117 -5 -3 -10 -2 -10 4 0 5 6 12 13 14 9 4
9 8 -2 15 -9 7 -10 12 -2 16 13 8 15 72 3 80 -12 7 -13 76 -2 76 6 0 10 37 10
85 0 50 -4 85 -10 85 -5 0 -10 5 -10 10 0 13 32 9 43 -5 5 -6 6 -1 1 10 -4 11
-7 30 -7 43 1 12 -3 22 -8 22 -5 0 -9 109 -9 249 0 214 2 250 15 255 13 4 13
2 5 -14 -14 -26 -13 -33 5 -26 13 5 15 -24 17 -222 2 -382 4 -441 11 -449 9
-8 2 689 -8 770 -4 31 -11 55 -16 51 -5 -3 -9 12 -9 33 0 28 -3 34 -10 23 -7
-11 -10 -6 -10 22 0 20 -4 40 -10 43 -5 3 -10 15 -10 26 0 10 -4 19 -10 19 -5
0 -10 14 -10 30 0 17 -4 30 -10 30 -5 0 -10 9 -10 20 0 11 -4 20 -10 20 -5 0
-10 11 -10 24 0 14 -4 28 -10 31 -5 3 -10 15 -10 26 0 10 -4 19 -10 19 -5 0
-10 7 -10 16 0 8 -7 22 -15 31 -9 8 -19 28 -22 44 -3 16 -9 29 -14 29 -5 0 -9
9 -9 20 0 11 -4 20 -10 20 -5 0 -10 9 -10 21 0 11 -4 17 -10 14 -6 -4 -10 5
-10 19 0 14 -4 26 -10 26 -5 0 -10 8 -10 18 0 10 -9 24 -20 32 -11 8 -20 22
-20 32 0 10 -4 18 -10 18 -5 0 -10 9 -10 20 0 11 -4 20 -10 20 -5 0 -10 9 -10
21 0 11 -4 17 -10 14 -6 -4 -10 5 -10 19 0 14 -4 26 -10 26 -5 0 -10 9 -10 20
0 11 -4 20 -10 20 -5 0 -10 15 -10 33 0 24 -3 28 -10 17 -8 -12 -10 -12 -10 5
-1 24 -30 67 -30 44 -1 -10 -4 -10 -14 4 -17 22 -86 59 -86 46 0 -5 -65 -9
-145 -9 -90 0 -145 4 -145 10 0 6 -11 10 -24 10 -13 0 -26 4 -28 9 -2 6 -231
10 -583 11 -677 2 -618 3 -610 -10 3 -5 1 -10 -4 -10 -6 0 -11 9 -11 20 0 11
-4 20 -8 20 -4 0 -14 -9 -22 -20 -14 -20 -37 -29 -25 -10 3 6 -3 10 -15 10
-12 0 -18 -4 -15 -10 4 -6 -22 -9 -72 -8 -69 1 -73 2 -33 8 36 6 23 8 -60 10
-79 2 -95 5 -65 10 22 4 -104 7 -279 8 -252 0 -321 3 -327 14 -7 10 -9 10 -9
1z m157 -29 c-3 -3 -12 -4 -19 -1 -8 3 -5 6 6 6 11 1 17 -2 13 -5z m201 -1
c-16 -2 -28 -9 -28 -14 0 -6 -5 -7 -11 -3 -16 10 10 24 41 22 24 -1 24 -1 -2
-5z m152 -3 l-25 -7 25 -5 c14 -3 -3 -6 -37 -7 -35 0 -63 3 -63 8 0 12 20 16
80 17 33 1 39 -1 20 -6z m57 4 c-3 -3 -12 -4 -19 -1 -8 3 -5 6 6 6 11 1 17 -2
13 -5z m-290 -10 c-3 -3 -12 -4 -19 -1 -8 3 -5 6 6 6 11 1 17 -2 13 -5z m-194
-11 c-13 -2 -35 -2 -50 0 -16 2 -5 4 22 4 28 0 40 -2 28 -4z m74 1 c-3 -3 -12
-4 -19 -1 -8 3 -5 6 6 6 11 1 17 -2 13 -5z m230 0 c-3 -3 -12 -4 -19 -1 -8 3
-5 6 6 6 11 1 17 -2 13 -5z m266 -1 c-18 -2 -48 -2 -65 0 -18 2 -4 4 32 4 36
0 50 -2 33 -4z m460 0 c-13 -2 -33 -2 -45 0 -13 2 -3 4 22 4 25 0 35 -2 23 -4z
m1012 -13 c3 -5 -3 -10 -14 -10 -12 0 -21 5 -21 10 0 6 6 10 14 10 8 0 18 -4
21 -10z m-78 -6 c-3 -3 -12 -4 -19 -1 -8 3 -5 6 6 6 11 1 17 -2 13 -5z m389
-64 c10 0 14 -13 14 -45 0 -25 -4 -45 -10 -45 -6 0 -10 -35 -10 -85 0 -50 4
-85 10 -85 6 0 10 -7 10 -15 0 -19 20 -55 43 -76 9 -9 17 -24 17 -33 0 -10 5
-14 10 -11 6 3 10 -1 10 -9 0 -9 5 -16 10 -16 6 0 10 -9 10 -20 0 -11 5 -20
10 -20 6 0 10 -9 10 -20 0 -11 5 -20 10 -20 6 0 10 -9 10 -20 0 -11 5 -20 10
-20 6 0 10 -9 10 -20 0 -11 5 -20 10 -20 6 0 10 -6 10 -13 0 -7 9 -19 20 -27
11 -8 20 -20 20 -28 0 -7 5 -10 10 -7 6 3 10 -1 10 -9 0 -9 5 -16 10 -16 6 0
10 -7 10 -15 0 -8 5 -15 10 -15 6 0 10 -7 10 -15 0 -8 5 -15 10 -15 6 0 10 -9
10 -19 0 -11 5 -23 10 -26 6 -3 10 -18 10 -33 0 -21 2 -24 10 -12 8 12 10 9
10 -12 0 -16 5 -28 10 -28 6 0 10 -13 10 -29 0 -17 5 -33 10 -36 6 -3 10 -19
10 -36 0 -16 5 -29 10 -29 6 0 10 -13 10 -30 0 -16 5 -30 10 -30 6 0 10 -20
10 -44 0 -41 -1 -43 -26 -38 -23 4 -25 2 -17 -13 6 -10 8 -26 6 -35 -3 -10 0
-21 7 -25 7 -4 11 -1 9 6 -3 26 1 40 10 35 4 -3 8 -66 7 -141 -1 -114 1 -135
14 -136 8 0 10 -3 4 -5 -6 -3 -9 -15 -7 -28 3 -13 0 -33 -6 -44 -7 -14 -8 -23
-1 -27 6 -4 4 -18 -6 -37 -13 -25 -14 -36 -5 -50 15 -24 14 -34 -6 -54 -12
-11 -14 -19 -6 -21 6 -2 9 -12 6 -22 -3 -10 0 -22 5 -25 7 -4 6 -15 -3 -32
-17 -33 -9 -57 16 -49 23 8 24 -1 3 -22 -13 -14 -17 -14 -25 -2 -5 9 -8 -10
-7 -51 0 -36 3 -59 5 -52 3 6 9 12 14 12 14 0 11 -77 -3 -92 -19 -20 -20 -68
-2 -68 11 0 14 -8 12 -27 -2 -17 -8 -27 -16 -25 -8 1 -11 -2 -7 -8 3 -6 11 -8
16 -5 5 4 9 -192 9 -504 0 -334 -3 -511 -10 -511 -5 0 -10 -12 -9 -27 0 -25 1
-26 9 -8 6 14 9 -4 9 -55 1 -52 -2 -70 -9 -60 -8 12 -10 11 -10 -7 0 -13 5
-23 10 -23 12 0 14 -387 1 -392 -4 -1 -10 -52 -13 -113 -5 -97 -4 -106 8 -80
12 28 13 26 13 -45 -1 -64 -2 -71 -11 -46 -8 21 -13 25 -19 15 -5 -9 -8 32 -6
100 1 84 -1 115 -10 118 -7 3 -13 9 -13 14 0 6 5 7 11 3 9 -5 10 1 5 22 -5 21
-4 25 4 14 7 -11 10 -6 10 22 0 20 3 43 6 52 4 11 1 16 -10 16 -20 0 -21 24 0
44 14 15 14 16 -1 16 -10 0 -15 6 -13 16 2 8 8 15 13 14 15 -2 23 41 13 75 -4
16 -9 100 -10 185 -1 130 -3 142 -8 75 -8 -104 -12 -88 -14 64 -1 119 -2 124
-23 132 -21 8 -23 15 -23 84 0 43 4 75 10 75 6 0 10 18 10 40 0 22 -4 40 -10
40 -5 0 -12 11 -16 25 -3 14 -10 25 -15 25 -13 0 -11 28 3 32 9 3 9 26 0 101
-15 124 -15 137 3 137 9 0 19 8 22 18 4 9 12 21 20 25 7 4 13 17 13 27 0 24
20 36 31 19 6 -9 9 2 8 31 0 37 -2 41 -9 23 -5 -13 -14 -23 -20 -23 -13 0 -13
17 0 25 13 8 13 75 1 75 -6 0 -9 20 -8 44 2 34 -1 42 -10 34 -7 -6 -10 -15 -6
-21 3 -6 1 -7 -6 -3 -6 4 -9 12 -6 17 4 5 -8 9 -25 9 -30 0 -31 1 -29 43 1 23
-2 50 -6 60 -6 14 -2 17 20 17 21 0 26 -4 21 -16 -6 -17 19 -54 36 -54 4 0 8
11 8 25 0 14 5 25 10 25 6 0 10 12 9 28 0 24 -1 25 -9 7 -8 -19 -9 -19 -9 3
-1 12 4 22 10 22 8 0 8 5 -1 15 -10 12 -16 13 -27 4 -11 -10 -12 -9 -7 5 3 9
11 16 16 16 6 0 -1 9 -15 20 -14 11 -32 20 -41 20 -18 0 -21 15 -6 25 6 3 10
1 10 -6 0 -8 4 -8 15 1 8 7 15 18 15 26 0 22 -22 28 -35 10 -11 -14 -12 -12
-10 16 2 18 3 37 4 42 1 4 12 5 26 2 23 -6 25 -3 25 24 0 16 5 30 10 30 6 0
10 -9 10 -19 0 -33 17 -32 24 1 7 33 -12 66 -22 39 -3 -9 -9 -2 -18 18 -7 17
-11 38 -7 46 3 9 0 21 -6 28 -7 10 -5 17 9 30 18 15 18 47 1 47 -4 0 -7 19 -8
42 -3 56 -41 79 -44 25 -1 -16 -3 -17 -6 -5 -2 9 3 30 12 47 8 17 11 31 6 31
-7 0 -23 108 -22 155 0 6 -11 16 -24 23 -21 10 -24 18 -21 52 3 35 -1 43 -35
72 -22 18 -39 41 -39 51 0 9 -4 17 -8 17 -20 0 -52 39 -52 63 0 14 -4 29 -10
32 -5 3 -10 22 -10 41 0 23 -4 33 -11 28 -6 -4 -9 1 -8 12 5 25 -8 44 -25 38
-8 -3 -17 -1 -21 5 -3 6 0 11 7 11 8 1 6 6 -6 15 -10 7 -15 18 -12 23 3 5 -4
18 -16 28 -21 19 -21 19 -16 -3 4 -13 2 -23 -3 -23 -5 0 -9 13 -9 28 0 16 -3
32 -7 36 -5 4 -8 11 -8 14 -1 17 -51 82 -63 82 -7 0 -10 5 -7 10 3 6 0 11 -7
11 -7 1 -20 2 -28 3 -10 1 -14 10 -12 29 3 24 -1 30 -27 40 -17 6 -31 19 -31
28 0 8 -3 19 -7 23 -5 4 -8 22 -8 39 0 22 -5 32 -15 32 -17 0 -43 43 -36 61 2
6 -4 21 -15 32 -10 12 -19 30 -19 40 0 11 -6 25 -14 31 -15 12 -16 28 -3 48 4
6 1 14 -5 16 -8 3 -5 6 5 6 10 1 17 7 14 14 -2 6 9 28 24 48 16 20 29 42 29
47 0 6 12 24 28 40 32 34 107 62 169 62 27 0 43 5 44 13 0 10 2 10 6 0 2 -7
11 -13 19 -13z m-2146 -10 c0 -5 -4 -10 -10 -10 -5 0 -10 5 -10 10 0 6 5 10
10 10 6 0 10 -4 10 -10z m160 -50 c0 -18 -2 -19 -20 -8 -11 7 -20 16 -20 20 0
5 9 8 20 8 13 0 20 -7 20 -20z m285 10 c-4 -6 43 -11 132 -12 194 -2 216 -4
227 -21 9 -13 12 -13 32 0 20 13 29 13 61 2 25 -8 32 -14 21 -17 -14 -3 -15
-7 -5 -22 10 -17 7 -24 -21 -51 -18 -17 -32 -25 -32 -18 0 10 -3 10 -12 1 -7
-7 -39 -12 -72 -13 -46 -1 -55 -3 -36 -9 21 -7 19 -8 -16 -9 -45 -1 -59 -12
-69 -54 -6 -21 -4 -27 9 -27 10 0 16 -9 16 -25 0 -16 -6 -25 -15 -25 -21 0
-19 -17 4 -23 10 -2 24 -14 30 -26 10 -18 9 -21 -6 -21 -20 -1 -53 -62 -53
-98 0 -15 -6 -22 -20 -22 -11 0 -20 -4 -20 -10 0 -5 16 -10 35 -10 19 0 34 -3
34 -7 -4 -27 4 -33 46 -33 25 0 45 -4 45 -10 0 -5 19 -11 43 -11 l42 -2 -35
-7 c-28 -6 -21 -8 38 -9 40 0 72 -5 72 -11 0 -5 23 -10 50 -10 38 0 50 -4 50
-15 0 -8 9 -15 20 -15 16 0 20 -7 21 -32 1 -18 1 -39 0 -45 -1 -7 3 -13 9 -13
5 0 10 -11 10 -25 0 -18 -11 -32 -41 -52 -36 -24 -50 -27 -113 -25 -39 1 -80
3 -91 4 -11 2 -19 -2 -18 -9 2 -7 -21 -14 -60 -18 -69 -8 -156 -43 -157 -64 0
-9 -6 -11 -17 -6 -10 5 -27 8 -38 8 -11 1 -23 5 -26 10 -3 4 -24 -1 -47 -13
-29 -15 -48 -19 -64 -14 -13 4 -26 7 -30 6 -4 -1 -21 -3 -37 -4 -17 -1 -31 -5
-31 -9 0 -14 -75 -19 -85 -5 -11 14 -50 26 -100 30 -16 1 -52 10 -80 18 -27 9
-66 16 -85 17 -20 0 -39 7 -46 16 -7 9 -18 15 -26 14 -7 -1 -20 1 -28 4 -8 3
-32 8 -54 11 -21 2 -42 10 -47 17 -6 11 -11 11 -20 2 -14 -14 -35 -7 -72 23
-16 14 -34 21 -44 17 -11 -5 -14 -3 -9 6 5 8 18 10 32 7 26 -7 34 11 9 20 -10
4 -15 20 -15 49 0 29 5 45 15 49 8 3 15 11 15 18 0 8 16 14 46 15 31 1 53 8
68 22 14 14 36 21 59 21 20 0 37 5 37 11 0 7 17 10 45 7 39 -3 43 -1 28 10
-10 7 -23 10 -30 8 -7 -3 -13 -1 -13 4 0 6 9 10 19 10 11 0 21 6 24 13 2 6 3
3 1 -7 -2 -13 0 -16 8 -8 17 17 0 72 -23 72 -10 0 -19 7 -19 15 0 11 -10 14
-37 11 -21 -2 -30 -1 -20 1 9 2 17 11 17 19 0 8 5 14 10 14 6 0 10 17 10 38
l0 37 -24 -27 c-13 -16 -29 -28 -35 -28 -7 0 -9 -4 -6 -10 4 -6 -9 -10 -31
-10 -37 0 -37 0 -18 19 13 12 21 15 26 7 5 -6 8 -1 8 12 0 18 6 22 30 22 17 0
30 5 30 10 0 9 -15 14 -33 11 -5 -1 -6 3 -2 9 3 6 11 8 16 5 5 -4 9 -3 9 2 0
4 14 23 31 41 25 27 29 36 19 47 -10 12 -10 15 1 16 8 1 3 4 -11 8 -14 4 -27
15 -29 26 -4 24 -30 50 -39 40 -4 -4 -1 -10 6 -12 19 -7 14 -23 -7 -23 -11 0
-21 -6 -23 -12 -3 -7 -7 -3 -10 9 -4 14 -2 22 6 20 6 -1 11 7 11 18 1 41 16
66 36 60 13 -5 19 -2 19 10 0 12 7 16 28 13 15 -1 30 -7 34 -13 4 -5 8 1 9 15
0 14 3 19 6 13 6 -15 53 -18 53 -3 0 15 39 12 56 -4 8 -8 14 -22 14 -30 0 -9
9 -16 21 -16 11 0 17 -4 14 -10 -3 -5 -1 -10 4 -10 6 0 11 5 11 10 0 6 11 10
25 10 14 0 24 3 24 8 -1 4 -1 21 1 37 1 26 3 27 10 10 5 -11 9 -14 9 -7 1 8
27 12 94 13 75 1 127 7 155 18 2 0 0 -3 -3 -9z m-512 -17 c-7 -2 -19 -2 -25 0
-7 3 -2 5 12 5 14 0 19 -2 13 -5z m207 -18 c0 -8 -8 -15 -17 -14 -11 0 -13 3
-5 6 6 2 10 9 6 14 -3 5 0 9 5 9 6 0 11 -7 11 -15z m-320 -45 c0 -5 -2 -10 -4
-10 -2 0 -12 -3 -22 -7 -16 -6 -17 -5 -4 10 17 19 30 22 30 7z m40 -156 c0 -3
-7 -12 -15 -21 -20 -19 -32 -10 -14 11 14 15 29 21 29 10z m-140 -44 c0 -5 -5
-10 -11 -10 -5 0 -7 5 -4 10 3 6 8 10 11 10 2 0 4 -4 4 -10z m1036 -87 c-10
-10 -19 5 -10 18 6 11 8 11 12 0 2 -7 1 -15 -2 -18z m-1080 -128 c-16 -17 -36
-20 -36 -6 0 8 17 16 43 20 5 0 2 -6 -7 -14z m1896 -115 c19 -18 20 -20 4 -26
-14 -5 -15 -9 -4 -15 9 -6 10 -11 2 -19 -8 -8 -16 -7 -27 4 -9 9 -20 16 -26
16 -18 0 -12 18 7 23 14 4 14 6 -5 12 -13 4 -23 11 -23 16 0 17 51 9 72 -11z
m72 -6 c9 -3 16 -17 16 -30 0 -13 5 -24 10 -24 6 0 10 -9 10 -20 0 -11 -4 -20
-10 -20 -5 0 -10 -7 -10 -16 0 -8 -6 -22 -14 -30 -17 -16 -66 -19 -66 -4 0 6
7 10 16 10 8 0 22 6 30 14 16 16 19 96 4 96 -5 0 -10 7 -10 15 0 17 2 18 24 9z
m-2074 -24 c0 -5 7 -10 15 -10 19 0 19 -7 1 -26 -8 -8 -26 -14 -40 -14 -22 0
-26 4 -26 30 0 25 4 30 25 30 14 0 25 -4 25 -10z m-122 -37 c-5 -25 32 -73 56
-73 9 0 16 -4 16 -10 0 -5 -13 -10 -30 -10 -23 0 -30 4 -30 20 0 11 -4 20 -10
20 -5 0 -10 7 -10 16 0 8 -4 12 -10 9 -11 -7 -14 18 -3 28 9 9 23 9 21 0z
m2759 -185 c-3 -8 -6 -5 -6 6 -1 11 2 17 5 13 3 -3 4 -12 1 -19z m-1747 -82
c0 -3 -4 -8 -10 -11 -5 -3 -10 -1 -10 4 0 6 5 11 10 11 6 0 10 -2 10 -4z
m-640 -15 c0 -6 -4 -13 -10 -16 -5 -3 -10 1 -10 9 0 9 5 16 10 16 6 0 10 -4
10 -9z m2907 -33 c-3 -8 -6 -5 -6 6 -1 11 2 17 5 13 3 -3 4 -12 1 -19z m-3187
-48 c0 -5 -4 -10 -10 -10 -5 0 -10 5 -10 10 0 6 5 10 10 10 6 0 10 -4 10 -10z
m80 -14 c0 -3 -4 -8 -10 -11 -5 -3 -10 -1 -10 4 0 6 5 11 10 11 6 0 10 -2 10
-4z m2870 -466 c0 -5 -7 -10 -15 -10 -16 0 -21 -26 -6 -32 4 -1 5 -12 0 -23
-7 -19 -8 -19 -8 3 -1 12 -5 22 -11 22 -14 0 -13 23 2 38 15 15 38 16 38 2z
m-4400 -22 c0 -4 -7 -8 -15 -8 -8 0 -15 4 -15 8 0 5 7 9 15 9 8 0 15 -4 15 -9z
m18 -45 c8 -8 9 -13 3 -13 -6 0 -11 -9 -11 -21 0 -19 -21 -49 -34 -49 -3 0 -6
25 -6 55 0 48 2 54 18 48 9 -4 23 -13 30 -20z m2497 -53 c3 -5 40 -10 81 -10
43 0 74 -4 74 -10 0 -5 25 -10 55 -10 30 0 55 -4 55 -10 0 -5 20 -10 45 -10
25 0 45 -4 45 -10 0 -5 18 -10 40 -10 22 0 40 -4 40 -10 0 -5 14 -10 30 -10
17 0 30 -4 30 -10 0 -5 14 -10 30 -10 17 0 30 -4 30 -10 0 -5 9 -10 20 -10 11
0 20 -4 20 -10 0 -5 11 -10 25 -10 14 0 25 -4 25 -10 0 -5 11 -10 25 -10 14 0
25 -4 25 -10 0 -5 9 -10 20 -10 11 0 20 -4 20 -10 0 -5 9 -10 20 -10 11 0 20
-4 20 -10 0 -5 7 -10 15 -10 8 0 15 -4 15 -10 0 -5 7 -10 15 -10 8 0 15 -4 15
-10 0 -5 9 -10 20 -10 11 0 20 -4 20 -10 0 -5 8 -10 18 -10 10 0 24 -9 32 -20
8 -11 20 -20 28 -20 7 0 10 -4 7 -10 -3 -5 1 -10 10 -10 10 0 30 -13 45 -30
15 -16 35 -30 45 -30 9 0 13 -4 10 -10 -3 -5 -1 -10 5 -10 14 0 160 -147 160
-161 0 -6 14 -24 30 -39 17 -15 30 -35 30 -45 0 -9 5 -13 10 -10 6 3 10 0 10
-7 0 -8 9 -20 20 -28 11 -8 20 -21 20 -30 0 -9 9 -22 20 -30 11 -8 20 -22 20
-32 0 -10 5 -18 10 -18 6 0 10 -13 10 -28 0 -16 8 -34 20 -42 12 -8 20 -26 20
-42 0 -15 5 -28 10 -28 6 0 10 -9 10 -20 0 -11 5 -20 10 -20 6 0 10 -11 10
-25 0 -14 5 -25 10 -25 6 0 10 -11 10 -24 0 -14 5 -28 10 -31 6 -3 10 -19 10
-36 0 -16 5 -29 10 -29 6 0 10 -20 10 -45 0 -25 5 -45 10 -45 6 0 10 -21 10
-46 0 -27 4 -43 10 -39 6 4 10 -13 10 -44 0 -28 4 -51 9 -51 12 0 21 -121 27
-377 3 -137 1 -203 -6 -203 -6 0 -10 -38 -10 -101 0 -64 -4 -98 -10 -94 -6 4
-10 -15 -10 -49 0 -31 -4 -56 -10 -56 -5 0 -10 -22 -10 -50 0 -27 -4 -50 -10
-50 -5 0 -10 -16 -10 -35 0 -19 -4 -35 -10 -35 -5 0 -10 -16 -10 -35 0 -19 -4
-35 -10 -35 -5 0 -10 -13 -10 -30 0 -16 -4 -30 -10 -30 -5 0 -10 -13 -10 -30
0 -16 -4 -30 -10 -30 -5 0 -10 -12 -10 -26 0 -14 -4 -23 -10 -19 -6 4 -10 -7
-10 -24 0 -17 -4 -31 -10 -31 -5 0 -10 -9 -10 -20 0 -11 -4 -20 -10 -20 -5 0
-10 -12 -10 -26 0 -14 -4 -23 -10 -19 -5 3 -10 -3 -10 -14 0 -12 -4 -21 -10
-21 -5 0 -10 -9 -10 -20 0 -11 -4 -20 -10 -20 -5 0 -10 -6 -10 -13 0 -7 -9
-23 -20 -35 -11 -12 -20 -27 -20 -34 0 -8 -9 -20 -20 -28 -11 -8 -20 -21 -20
-28 0 -8 -13 -27 -30 -42 -16 -15 -30 -33 -30 -39 0 -15 -226 -241 -241 -241
-6 0 -24 -13 -39 -30 -15 -16 -34 -30 -42 -30 -7 0 -20 -9 -28 -20 -8 -11 -21
-20 -30 -20 -9 0 -22 -9 -30 -20 -8 -11 -22 -20 -32 -20 -10 0 -18 -4 -18 -10
0 -5 -9 -10 -20 -10 -11 0 -20 -4 -20 -10 0 -5 -9 -10 -20 -10 -11 0 -20 -4
-20 -10 0 -5 -9 -10 -20 -10 -11 0 -20 -4 -20 -10 0 -5 -9 -10 -19 -10 -11 0
-23 -4 -26 -10 -3 -5 -17 -10 -31 -10 -13 0 -24 -4 -24 -10 0 -5 -12 -10 -26
-10 -14 0 -23 -4 -19 -10 4 -6 -10 -10 -34 -10 -23 0 -41 -4 -41 -10 0 -5 -13
-10 -30 -10 -16 0 -30 -4 -30 -10 0 -5 -13 -10 -30 -10 -16 0 -30 -4 -30 -10
0 -5 -18 -10 -40 -10 -22 0 -40 -4 -40 -9 0 -4 -37 -9 -82 -10 -46 -1 -84 -6
-86 -12 -5 -13 -502 -12 -502 1 0 6 -25 10 -55 10 -30 0 -55 5 -55 10 0 6 -24
10 -52 10 -38 0 -49 3 -38 10 11 7 0 10 -37 10 -29 0 -53 5 -53 10 0 6 -13 10
-30 10 -16 0 -30 5 -30 10 0 6 -13 10 -30 10 -16 0 -30 5 -30 10 0 6 -9 10
-20 10 -11 0 -20 5 -20 10 0 6 -13 10 -30 10 -16 0 -30 5 -30 10 0 6 -9 10
-20 10 -11 0 -20 5 -20 10 0 6 -9 10 -20 10 -11 0 -20 5 -20 10 0 14 -38 12
-43 -2 -2 -8 -8 -9 -13 -4 -5 5 -4 11 4 13 19 7 14 23 -8 23 -11 0 -20 5 -20
10 0 6 -6 10 -13 10 -7 0 -23 9 -35 20 -12 11 -27 20 -34 20 -8 0 -20 9 -28
20 -8 11 -20 20 -28 20 -7 0 -35 23 -62 50 -27 28 -54 50 -60 50 -14 0 -160
146 -160 161 0 6 -18 28 -40 49 -22 21 -40 45 -40 52 0 7 -9 20 -20 28 -11 8
-20 21 -20 30 0 9 -9 22 -20 30 -11 8 -20 20 -20 28 0 7 -9 22 -20 34 -11 12
-20 32 -20 45 0 13 -4 23 -10 23 -5 0 -10 9 -10 20 0 11 -4 20 -10 20 -5 0
-10 9 -10 20 0 11 -4 20 -10 20 -5 0 -10 9 -10 20 0 11 -4 20 -10 20 -5 0 -10
14 -10 31 0 17 -4 28 -10 24 -6 -4 -10 7 -10 24 0 17 -4 31 -10 31 -5 0 -10
11 -10 25 0 14 -4 25 -10 25 -5 0 -10 16 -10 35 0 19 -4 35 -10 35 -5 0 -10
18 -10 41 0 24 -4 38 -10 34 -6 -4 -10 11 -10 39 0 25 -4 48 -10 51 -5 3 -10
31 -10 61 0 34 -4 53 -10 49 -6 -4 -10 23 -10 74 0 47 -4 81 -10 81 -6 0 -10
92 -10 256 0 167 3 253 10 249 6 -4 10 22 10 69 0 44 4 76 10 76 6 0 10 27 10
60 0 33 4 60 10 60 6 0 10 20 10 45 0 25 5 45 10 45 6 0 10 16 10 35 0 19 5
35 10 35 6 0 10 16 10 35 0 19 5 35 10 35 6 0 10 14 10 30 0 17 5 30 10 30 6
0 10 11 10 25 0 14 5 25 10 25 6 0 10 11 10 25 0 14 5 25 10 25 6 0 10 9 10
20 0 11 5 20 10 20 6 0 10 9 10 20 0 11 5 20 10 20 6 0 10 9 10 20 0 11 5 20
10 20 6 0 10 9 10 20 0 11 5 20 10 20 6 0 10 8 10 18 0 10 9 24 20 32 11 8 20
21 20 30 0 9 9 22 20 30 11 8 20 21 20 28 0 7 18 31 40 52 22 21 40 43 40 49
0 18 128 141 145 141 9 0 13 5 10 10 -3 6 -1 10 5 10 7 0 25 14 40 30 15 17
34 30 42 30 7 0 20 9 28 20 8 11 21 20 30 20 9 0 22 9 30 20 8 11 22 20 32 20
10 0 18 5 18 10 0 6 9 10 20 10 11 0 20 5 20 10 0 6 7 10 16 10 8 0 12 5 9 10
-3 6 0 10 7 10 19 0 68 23 68 33 0 4 14 7 30 7 17 0 30 5 30 10 0 6 14 10 30
10 17 0 30 5 30 10 0 6 9 10 20 10 11 0 20 5 20 10 0 6 16 10 35 10 19 0 35 5
35 10 0 6 16 10 36 10 21 0 33 4 29 10 -4 6 12 10 40 10 28 0 44 4 40 10 -4 6
15 10 49 10 31 0 56 5 56 10 0 6 33 10 80 10 47 0 80 4 80 10 0 6 73 10 199
10 123 0 202 -4 206 -10z m1878 3 c5 -8 -2 -26 -33 -83 -23 -42 -27 -16 -6 35
8 19 13 35 10 35 -3 0 -2 5 1 10 7 12 22 13 28 3z m-15 -123 c-13 -20 -28 -27
-28 -12 0 10 22 32 32 32 5 0 3 -9 -4 -20z m-51 -22 c-3 -7 -5 -2 -5 12 0 14
2 19 5 13 2 -7 2 -19 0 -25z m183 -104 c0 -8 -4 -12 -10 -9 -5 3 -10 10 -10
16 0 5 5 9 10 9 6 0 10 -7 10 -16z m-131 -125 c-7 -4 -16 -5 -19 -2 -3 3 1 8
8 10 6 3 13 12 13 21 1 14 2 13 6 -2 3 -10 -1 -22 -8 -27z m238 -106 c-3 -10
-5 -4 -5 12 0 17 2 24 5 18 2 -7 2 -21 0 -30z m-207 -238 c11 -13 8 -15 -13
-15 -16 0 -27 -7 -30 -17 -4 -17 -4 -17 -12 0 -5 12 -2 22 11 32 24 18 29 18
44 0z m220 -192 l0 -67 -20 22 c-24 25 -26 59 -4 90 8 12 17 22 20 22 2 0 4
-30 4 -67z m-300 -393 c0 -5 -2 -10 -4 -10 -3 0 -8 5 -11 10 -3 6 -1 10 4 10
6 0 11 -4 11 -10z m96 -307 c-10 -10 -19 5 -10 18 6 11 8 11 12 0 2 -7 1 -15
-2 -18z m21 -200 c-2 -27 -3 -5 -3 47 0 52 1 74 3 48 2 -27 2 -69 0 -95z m3
-218 c0 -8 -4 -15 -10 -15 -5 0 -10 7 -10 15 0 8 5 15 10 15 6 0 10 -7 10 -15z
m37 -127 c-2 -13 -4 -5 -4 17 -1 22 1 32 4 23 2 -10 2 -28 0 -40z m-48 -164
c1 -6 -6 -11 -14 -11 -10 0 -14 6 -10 14 3 8 5 22 6 31 0 14 2 13 9 -3 5 -11
9 -25 9 -31z m1 -48 c0 -3 -4 -8 -10 -11 -5 -3 -10 -1 -10 4 0 6 5 11 10 11 6
0 10 -2 10 -4z m-204 -41 c9 -8 13 -23 11 -33 -4 -14 -6 -14 -12 6 -4 12 -11
22 -16 22 -5 0 -9 5 -9 10 0 14 9 12 26 -5z m228 -60 c5 17 8 36 7 43 -1 6 3
12 9 12 5 0 10 -21 10 -46 0 -25 -4 -43 -9 -39 -5 3 -12 1 -16 -5 -3 -5 1 -10
9 -10 19 0 21 -16 4 -24 -10 -5 -10 -7 1 -12 11 -5 11 -8 0 -15 -10 -6 -11 -9
-1 -9 8 0 12 -15 11 -42 l-1 -43 -13 40 c-8 22 -14 35 -14 28 -2 -20 -31 -2
-31 19 0 10 4 17 9 14 12 -8 19 14 13 36 -2 10 -9 15 -15 11 -7 -4 -8 0 -4 11
4 10 8 34 9 54 1 36 1 36 7 -8 6 -45 6 -45 15 -15z m-219 -55 c-3 -5 -17 -10
-31 -10 -13 0 -24 5 -24 10 0 6 14 10 31 10 17 0 28 -4 24 -10z m145 0 c0 -5
-4 -10 -10 -10 -5 0 -10 5 -10 10 0 6 5 10 10 10 6 0 10 -4 10 -10z m63 -118
c3 7 6 -2 6 -20 1 -20 7 -35 17 -39 12 -5 15 -15 10 -47 -6 -36 -3 -47 19 -72
38 -44 32 -124 -10 -132 -6 -2 -9 -24 -7 -52 3 -32 0 -50 -7 -50 -6 0 -11 -11
-11 -25 0 -14 5 -25 10 -25 16 0 12 -99 -4 -116 -20 -19 -26 -18 -26 6 0 11 7
20 15 20 19 0 20 39 2 46 -14 5 -11 53 9 143 6 29 5 33 -9 28 -9 -3 -19 -1
-23 5 -4 6 -3 8 4 4 6 -3 13 -2 17 4 3 5 -3 10 -15 10 -12 0 -19 4 -16 9 3 5
16 7 28 3 17 -4 20 -2 15 11 -5 12 -1 17 12 17 19 0 36 46 20 55 -4 3 -10 -5
-12 -17 -2 -13 -5 -4 -6 20 0 23 -5 42 -10 42 -5 0 -11 10 -13 23 -2 12 -8 22
-15 22 -6 0 -15 3 -19 8 -4 4 0 7 9 7 21 0 22 14 2 30 -12 10 -12 16 -4 26 16
20 3 44 -23 44 -18 0 -20 2 -8 10 9 5 19 5 26 -1 8 -7 14 -6 17 3z m-68 -32
c3 -5 1 -10 -4 -10 -6 0 -11 5 -11 10 0 6 2 10 4 10 3 0 8 -4 11 -10z m-180
-90 c3 -5 1 -10 -4 -10 -6 0 -11 5 -11 10 0 6 2 10 4 10 3 0 8 -4 11 -10z
m230 -50 c-3 -5 -12 -10 -18 -10 -7 0 -6 4 3 10 19 12 23 12 15 0z m-7 -66
c-4 -3 -15 3 -26 14 -26 26 -16 37 11 12 11 -11 18 -22 15 -26z m2 -29 c0 -9
-6 -12 -15 -9 -8 4 -15 10 -15 15 0 5 7 9 15 9 8 0 15 -7 15 -15z m214 -164
c-5 -14 -7 -13 -14 4 -5 11 -9 14 -9 7 -1 -10 -4 -10 -16 2 -17 16 -20 73 -5
96 6 10 10 11 10 3 0 -21 18 -15 27 10 6 16 9 5 11 -42 2 -35 0 -71 -4 -80z
m-734 89 c0 -5 -4 -10 -10 -10 -5 0 -10 5 -10 10 0 6 5 10 10 10 6 0 10 -4 10
-10z m550 -39 c0 -28 -11 -52 -21 -45 -16 9 -11 64 6 64 8 0 15 -9 15 -19z
m-4263 -103 c-3 -8 -6 -5 -6 6 -1 11 2 17 5 13 3 -3 4 -12 1 -19z m-87 2 c0
-5 -4 -10 -10 -10 -5 0 -10 5 -10 10 0 6 5 10 10 10 6 0 10 -4 10 -10z m4327
-52 c-3 -7 -5 -2 -5 12 0 14 2 19 5 13 2 -7 2 -19 0 -25z m213 -8 c0 -5 -10
-10 -22 -9 -22 0 -22 1 -3 9 11 5 21 9 23 9 1 1 2 -3 2 -9z m-26 -49 c3 -5 15
-7 26 -4 11 3 20 0 20 -6 0 -6 -9 -11 -20 -11 -11 0 -20 -4 -20 -10 0 -5 5
-10 12 -10 6 0 9 -2 6 -5 -3 -3 -17 1 -32 9 -23 12 -24 14 -9 20 15 6 15 8 3
16 -9 6 -10 10 -3 10 6 0 14 -4 17 -9z m-51 -21 c3 -13 0 -20 -9 -20 -8 0 -14
9 -14 20 0 11 4 20 9 20 5 0 11 -9 14 -20z m-104 -52 c-2 -30 -2 -30 -6 -6 -2
15 -12 29 -21 31 -12 3 -10 5 6 6 19 1 22 -4 21 -31z m108 -20 c-3 -7 -5 -2
-5 12 0 14 2 19 5 13 2 -7 2 -19 0 -25z m50 10 c-3 -8 -6 -5 -6 6 -1 11 2 17
5 13 3 -3 4 -12 1 -19z m-4581 -43 c5 -13 -16 -45 -30 -45 -3 0 -6 14 -6 30 0
32 26 43 36 15z m4421 -47 c-3 -8 -6 -5 -6 6 -1 11 2 17 5 13 3 -3 4 -12 1
-19z m-437 -58 c0 -5 -4 -10 -10 -10 -5 0 -10 5 -10 10 0 6 5 10 10 10 6 0 10
-4 10 -10z m422 -42 c2 -20 0 -34 -4 -32 -4 3 -8 24 -7 47 1 47 6 41 11 -15z
m-562 22 c0 -5 -4 -10 -10 -10 -5 0 -10 5 -10 10 0 6 5 10 10 10 6 0 10 -4 10
-10z m-2733 -25 c8 -9 13 -19 10 -22 -6 -5 -37 21 -37 31 0 10 11 6 27 -9z
m3313 -87 c0 -10 -4 -18 -10 -18 -5 0 -10 15 -10 33 0 24 3 28 10 17 5 -8 10
-23 10 -32z m111 -40 c-3 -21 -6 -26 -9 -15 -3 17 3 47 11 47 2 0 1 -15 -2
-32z m-144 -50 c-3 -7 -5 -2 -5 12 0 14 2 19 5 13 2 -7 2 -19 0 -25z m20 10
c-3 -8 -6 -5 -6 6 -1 11 2 17 5 13 3 -3 4 -12 1 -19z m-3054 -52 c-3 -4 -9 -2
-14 5 -13 22 -11 31 5 17 8 -7 12 -17 9 -22z m3067 -6 c0 -5 -4 -10 -10 -10
-5 0 -10 5 -10 10 0 6 5 10 10 10 6 0 10 -4 10 -10z m-860 -10 c0 -5 -4 -10
-10 -10 -5 0 -10 5 -10 10 0 6 5 10 10 10 6 0 10 -4 10 -10z m857 -52 c-3 -8
-6 -5 -6 6 -1 11 2 17 5 13 3 -3 4 -12 1 -19z m3 -43 c0 -14 -4 -25 -9 -25 -4
0 -6 11 -3 25 2 14 6 25 8 25 2 0 4 -11 4 -25z m-1400 1 c0 -3 -4 -8 -10 -11
-5 -3 -10 -1 -10 4 0 6 5 11 10 11 6 0 10 -2 10 -4z m535 -46 c3 -5 1 -10 -4
-10 -6 0 -11 5 -11 10 0 6 2 10 4 10 3 0 8 -4 11 -10z m882 -112 c-2 -13 -4
-3 -4 22 0 25 2 35 4 23 2 -13 2 -33 0 -45z m-3997 -8 c0 -5 -5 -10 -11 -10
-5 0 -7 5 -4 10 3 6 8 10 11 10 2 0 4 -4 4 -10z m3440 -96 c0 -14 -3 -15 -17
-3 -10 7 -20 15 -22 16 -2 2 5 3 17 3 14 0 22 -6 22 -16z m517 -53 c-2 -22 0
-44 5 -49 12 -12 1 -35 -13 -27 -5 4 -9 -1 -9 -9 0 -9 -9 -16 -20 -16 -13 0
-20 7 -20 20 0 11 6 20 14 20 16 0 15 47 0 59 -13 9 -16 31 -4 31 6 0 10 -5
10 -11 0 -5 4 -8 9 -4 5 3 12 -3 14 -12 3 -11 5 -8 6 10 0 15 4 27 7 27 4 0 4
-18 1 -39z m-677 9 c0 -5 9 -10 20 -10 13 0 20 -7 20 -20 0 -11 5 -20 10 -20
6 0 10 -13 10 -30 0 -16 -4 -30 -9 -30 -5 0 -13 -9 -16 -20 -3 -11 -13 -20
-21 -20 -8 0 -14 -4 -14 -10 0 -18 -31 -10 -55 15 -18 18 -25 35 -25 65 0 22
5 40 10 40 6 0 10 7 10 15 0 8 7 15 15 15 8 0 15 5 15 10 0 6 7 10 15 10 8 0
15 -4 15 -10z m697 -12 c-3 -8 -6 -5 -6 6 -1 11 2 17 5 13 3 -3 4 -12 1 -19z
m-1537 -28 c0 -5 -4 -10 -10 -10 -5 0 -10 5 -10 10 0 6 5 10 10 10 6 0 10 -4
10 -10z m-1780 -180 c0 -5 18 -10 40 -10 22 0 40 -4 40 -10 0 -5 9 -10 20 -10
11 0 20 -4 20 -10 0 -5 7 -10 16 -10 19 0 104 -87 104 -107 0 -7 5 -13 10 -13
6 0 10 -9 10 -20 0 -11 5 -20 10 -20 6 0 10 -11 10 -25 0 -14 5 -25 10 -25 6
0 10 -45 10 -115 0 -70 -4 -115 -10 -115 -5 0 -10 -13 -10 -30 0 -16 -4 -30
-10 -30 -5 0 -10 -6 -10 -13 0 -17 -84 -107 -99 -107 -6 0 -11 -4 -11 -10 0
-5 -12 -10 -26 -10 -14 0 -23 -4 -19 -10 8 -13 -177 -14 -190 -1 -6 5 -19 11
-30 13 -11 1 -32 15 -47 31 -30 31 -38 33 -38 12 0 -8 -6 -15 -12 -16 -10 0
-10 -2 0 -6 9 -3 12 -40 12 -134 0 -108 -2 -129 -15 -129 -8 0 -15 -6 -15 -12
0 -10 -2 -10 -8 -1 -4 6 -23 13 -42 15 l-35 3 -1 282 c0 155 3 280 8 277 4 -3
8 31 8 75 0 47 4 81 10 81 6 0 10 11 10 25 0 14 3 25 8 25 4 0 14 14 21 32 18
39 75 98 96 98 8 0 15 5 15 10 0 6 14 10 30 10 17 0 30 5 30 10 0 6 18 10 40
10 22 0 40 -4 40 -10z m2340 -20 c0 -5 8 -10 18 -10 10 0 24 -9 32 -20 8 -11
22 -20 32 -20 11 0 18 -7 18 -20 0 -11 -4 -20 -10 -20 -5 0 -10 -7 -10 -16 0
-8 -4 -12 -10 -9 -5 3 -10 -3 -10 -14 0 -17 -6 -21 -30 -21 -16 0 -30 5 -30
10 0 6 -9 10 -20 10 -11 0 -20 5 -20 10 0 6 -30 10 -70 10 -40 0 -70 -4 -70
-10 0 -5 -9 -10 -20 -10 -13 0 -20 -7 -20 -20 0 -11 -4 -20 -10 -20 -5 0 -10
-11 -10 -25 0 -33 42 -75 75 -75 14 0 25 -4 25 -10 0 -5 18 -10 40 -10 44 0
120 -20 120 -32 0 -5 7 -8 15 -8 20 0 65 -45 65 -65 0 -8 5 -15 10 -15 6 0 10
-33 10 -80 0 -47 -4 -80 -10 -80 -5 0 -10 -7 -10 -15 0 -20 -65 -85 -85 -85
-8 0 -15 -4 -15 -10 0 -5 -11 -10 -24 -10 -14 0 -28 -4 -31 -10 -3 -5 -42 -10
-86 -10 -46 0 -79 4 -79 10 0 6 -13 10 -30 10 -16 0 -30 5 -30 10 0 6 -7 10
-15 10 -18 0 -85 61 -85 78 0 17 66 82 82 82 8 0 20 -9 28 -20 8 -11 20 -20
28 -20 7 0 10 -4 7 -10 -4 -6 7 -10 24 -10 17 0 31 -4 31 -10 0 -6 27 -10 60
-10 33 0 60 4 60 10 0 6 9 10 21 10 11 0 18 4 14 9 -3 5 2 16 10 24 32 32 11
107 -29 107 -9 0 -16 5 -16 10 0 6 -25 10 -55 10 -30 0 -55 5 -55 10 0 6 -16
10 -35 10 -19 0 -35 5 -35 10 0 6 -7 10 -15 10 -9 0 -36 20 -60 45 -44 44 -45
46 -45 110 0 37 4 65 10 65 6 0 10 14 10 31 0 17 4 28 10 24 6 -3 10 -1 10 5
0 16 47 60 65 60 8 0 15 5 15 10 0 6 9 10 20 10 11 0 20 5 20 10 0 6 40 10
100 10 60 0 100 -4 100 -10z m320 -328 l0 -338 -50 -3 c-39 -2 -50 1 -50 14 0
8 -6 15 -12 16 -10 0 -10 2 0 6 9 4 12 78 12 324 l0 319 50 0 50 0 0 -338z
m775 318 c3 -5 1 -10 -4 -10 -6 0 -11 5 -11 10 0 6 2 10 4 10 3 0 8 -4 11 -10z
m-2593 -9 c2 -5 14 -11 28 -13 14 -1 32 -11 41 -20 9 -10 22 -18 28 -18 15 0
61 -45 61 -60 0 -5 5 -10 10 -10 6 0 10 -7 10 -15 0 -8 5 -15 10 -15 6 0 10
-9 10 -20 0 -11 5 -20 10 -20 6 0 10 -9 10 -20 0 -11 5 -20 10 -20 6 0 10 -22
10 -49 0 -30 5 -51 12 -53 16 -6 -35 -58 -57 -58 -8 0 -15 -4 -15 -10 0 -5
-18 -10 -40 -10 -22 0 -40 -4 -40 -10 0 -6 -42 -10 -106 -10 -67 0 -103 4 -99
10 4 6 -28 10 -90 10 -77 0 -100 -3 -113 -17 -12 -12 -13 -18 -4 -21 6 -2 12
-10 12 -18 0 -9 5 -12 10 -9 6 3 10 -1 10 -10 0 -20 24 -45 42 -45 8 0 20 -9
28 -20 8 -12 26 -20 42 -20 15 0 28 -4 28 -10 0 -5 16 -10 35 -10 19 0 35 5
35 10 0 6 16 10 35 10 19 0 35 5 35 10 0 6 7 10 15 10 8 0 15 5 15 10 0 6 5
10 11 10 7 0 21 10 32 23 13 15 21 18 24 10 3 -7 13 -13 24 -13 10 0 19 -4 19
-10 0 -5 7 -10 16 -10 8 0 22 -7 30 -15 13 -13 10 -20 -30 -60 -25 -25 -52
-45 -61 -45 -8 0 -15 -4 -15 -10 0 -5 -9 -10 -20 -10 -11 0 -20 -4 -20 -10 0
-5 -16 -10 -35 -10 -19 0 -35 -4 -35 -10 0 -6 -28 -10 -65 -10 -37 0 -65 4
-65 10 0 6 -13 10 -30 10 -16 0 -30 5 -30 10 0 6 -11 10 -24 10 -27 0 -156
119 -156 144 0 9 -4 16 -10 16 -5 0 -10 14 -10 30 0 17 -4 30 -10 30 -6 0 -10
47 -10 123 0 82 3 117 10 107 7 -11 10 -7 10 18 0 17 5 32 10 32 6 0 10 7 10
15 0 17 92 112 128 133 12 6 29 12 37 12 8 0 15 5 15 10 0 13 217 14 222 1z
m820 -1 c2 -5 15 -11 30 -12 15 -1 24 -6 22 -10 -3 -4 2 -8 10 -8 9 0 16 -4
16 -10 0 -5 6 -10 14 -10 17 0 78 -58 72 -69 -3 -4 4 -14 15 -21 10 -8 19 -22
19 -32 0 -10 5 -18 10 -18 6 0 10 -13 10 -30 0 -16 5 -30 10 -30 6 0 10 -38
10 -95 0 -57 -4 -95 -10 -95 -5 0 -10 -11 -10 -25 0 -14 -4 -25 -10 -25 -5 0
-10 -9 -10 -20 0 -11 -4 -20 -10 -20 -5 0 -10 -7 -10 -16 0 -19 -107 -124
-126 -124 -8 0 -14 -4 -14 -10 0 -5 -13 -10 -30 -10 -16 0 -30 -4 -30 -10 0
-6 -33 -10 -79 -10 -44 0 -83 5 -86 10 -3 6 -17 10 -31 10 -13 0 -24 5 -24 10
0 6 -9 10 -20 10 -11 0 -20 5 -20 10 0 6 -9 10 -20 10 -11 0 -20 5 -20 10 0 6
-4 10 -10 10 -6 0 -10 -55 -10 -146 0 -172 -2 -177 -82 -172 l-53 3 -3 318
c-1 209 1 317 8 317 5 0 10 18 10 40 0 22 5 40 10 40 6 0 10 13 10 28 0 16 8
34 20 42 11 8 20 20 20 28 0 16 45 62 60 62 6 0 8 5 5 10 -3 6 3 10 14 10 12
0 21 3 21 8 0 8 49 32 67 32 7 0 13 5 13 10 0 13 217 13 222 0z m1678 -106 c0
-3 -7 -1 -15 6 -8 7 -15 17 -15 22 0 5 7 3 15 -6 8 -8 15 -18 15 -22z m-212
-59 c17 -20 32 -42 32 -50 0 -8 4 -15 8 -15 10 0 32 -45 32 -65 0 -8 -4 -15
-10 -15 -5 0 -10 9 -10 20 0 11 -4 20 -10 20 -5 0 -10 9 -10 20 0 11 -4 20
-10 20 -5 0 -10 7 -10 16 0 9 -10 25 -22 35 -11 11 -17 19 -12 19 5 0 0 7 -10
15 -11 8 -16 15 -10 15 5 0 24 -16 42 -35z m294 -102 c-3 -16 -7 -22 -10 -15
-4 13 4 42 11 42 2 0 2 -12 -1 -27z m-105 -30 c-3 -10 -5 -2 -5 17 0 19 2 27
5 18 2 -10 2 -26 0 -35z m20 -85 c-3 -8 -6 -5 -6 6 -1 11 2 17 5 13 3 -3 4
-12 1 -19z m-177 2 c0 -5 7 -10 16 -10 8 0 12 5 9 10 -3 6 -1 10 4 10 19 0 12
-30 -14 -55 -24 -25 -55 -33 -55 -15 0 6 -9 10 -20 10 -13 0 -20 7 -20 19 0
13 7 19 27 19 15 0 29 5 31 11 5 14 22 15 22 1z m159 -33 c0 -27 -2 -29 -9
-12 -12 28 -12 57 0 50 6 -3 10 -21 9 -38z m-12 -379 c-2 -13 -4 -5 -4 17 -1
22 1 32 4 23 2 -10 2 -28 0 -40z m-4265 -1150 c-9 -9 -15 -9 -24 1 -11 10 -10
11 5 6 10 -5 17 -2 17 6 0 7 3 9 7 6 4 -4 1 -13 -5 -19z m38 -13 c0 -8 -4 -15
-10 -15 -5 0 -10 7 -10 15 0 8 5 15 10 15 6 0 10 -7 10 -15z m137 -17 c-3 -8
-6 -5 -6 6 -1 11 2 17 5 13 3 -3 4 -12 1 -19z m67 -41 c2 -14 14 -35 26 -47
25 -25 16 -42 -18 -33 -14 3 -21 11 -18 19 3 9 -1 14 -12 14 -14 0 -17 11 -19
56 -2 56 -2 57 17 36 11 -11 21 -32 24 -45z m3840 -22 c-4 -10 0 -15 12 -15
16 0 16 -2 4 -10 -9 -6 -17 -5 -22 3 -5 8 -10 5 -14 -10 -5 -19 -13 -23 -50
-23 -24 0 -44 -4 -44 -9 0 -4 -48 -9 -107 -9 -78 0 -100 2 -78 8 16 5 39 7 52
4 16 -4 25 -1 29 10 3 9 15 16 26 16 11 0 29 5 40 11 12 6 41 13 66 15 25 3
52 9 61 14 23 14 31 12 25 -5z m94 -30 c-3 -3 -9 2 -12 12 -6 14 -5 15 5 6 7
-7 10 -15 7 -18z m-3738 -14 c0 -5 -6 -11 -12 -13 -7 -3 16 -3 52 -2 l65 3
-50 -10 c-27 -6 -55 -15 -62 -21 -10 -8 -13 -6 -13 6 0 9 -8 17 -17 17 -17 1
-17 2 0 6 9 2 17 9 17 14 0 5 5 9 10 9 6 0 10 -4 10 -9z m133 -38 c-7 -2 -19
-2 -25 0 -7 3 -2 5 12 5 14 0 19 -2 13 -5z m212 -64 c5 -5 -14 -10 -48 -11
-31 -1 -64 -2 -74 -2 -23 -1 -28 21 -6 27 25 7 116 -3 128 -14z m-185 1 c0
-12 -8 -12 -35 0 -18 8 -17 9 8 9 15 1 27 -3 27 -9z m1800 -2 c0 -10 -289 -9
-355 2 -32 5 22 7 153 7 111 -1 202 -5 202 -9z m200 2 c0 -12 -107 -12 -135 0
-14 6 5 9 58 9 45 1 77 -3 77 -9z m-1960 -20 c0 -5 -4 -10 -10 -10 -5 0 -10 5
-10 10 0 6 5 10 10 10 6 0 10 -4 10 -10z m580 -30 c-18 -6 -20 -9 -7 -10 9 -1
21 -3 26 -4 19 -2 23 -16 8 -22 -10 -4 -29 4 -48 20 l-31 26 39 -1 c34 -1 35
-2 13 -9z m36 -65 c16 -12 16 -14 3 -15 -9 0 -22 7 -29 15 -16 19 0 19 26 0z"/>
<path d="M6540 8790 c0 -5 5 -10 10 -10 6 0 10 5 10 10 0 6 -4 10 -10 10 -5 0
-10 -4 -10 -10z"/>
<path d="M7060 8170 c0 -5 5 -10 11 -10 5 0 7 5 4 10 -3 6 -8 10 -11 10 -2 0
-4 -4 -4 -10z"/>
<path d="M7110 8095 c-10 -12 -10 -15 4 -15 9 0 16 7 16 15 0 8 -2 15 -4 15
-2 0 -9 -7 -16 -15z"/>
<path d="M7085 7810 c3 -5 8 -10 11 -10 2 0 4 5 4 10 0 6 -5 10 -11 10 -5 0
-7 -4 -4 -10z"/>
<path d="M7120 7704 c0 -8 5 -12 10 -9 6 3 10 10 10 16 0 5 -4 9 -10 9 -5 0
-10 -7 -10 -16z"/>
<path d="M7121 7644 c0 -11 3 -14 6 -6 3 7 2 16 -1 19 -3 4 -6 -2 -5 -13z"/>
<path d="M7123 7443 c-7 -2 -13 -9 -13 -14 0 -6 4 -8 9 -4 5 3 12 -3 14 -12 3
-11 5 -8 6 10 0 15 0 27 -1 26 -2 0 -9 -3 -15 -6z"/>
<path d="M7050 7429 c0 -5 5 -7 10 -4 6 3 10 8 10 11 0 2 -4 4 -10 4 -5 0 -10
-5 -10 -11z"/>
<path d="M7101 7374 c0 -11 3 -14 6 -6 3 7 2 16 -1 19 -3 4 -6 -2 -5 -13z"/>
<path d="M7152 7285 c0 -16 2 -22 5 -12 2 9 2 23 0 30 -3 6 -5 -1 -5 -18z"/>
<path d="M7048 7203 c7 -3 16 -2 19 1 4 3 -2 6 -13 5 -11 0 -14 -3 -6 -6z"/>
<path d="M7050 7161 c0 -17 31 -41 53 -40 22 0 22 0 -1 9 -12 5 -25 16 -28 25
-7 16 -24 21 -24 6z"/>
<path d="M7142 7080 c0 -14 2 -19 5 -12 2 6 2 18 0 25 -3 6 -5 1 -5 -13z"/>
<path d="M7152 7005 c0 -16 2 -22 5 -12 2 9 2 23 0 30 -3 6 -5 -1 -5 -18z"/>
<path d="M7161 5584 c0 -11 3 -14 6 -6 3 7 2 16 -1 19 -3 4 -6 -2 -5 -13z"/>
<path d="M4517 9194 c4 -10 0 -12 -12 -8 -14 6 -16 3 -10 -17 15 -49 43 -63
71 -35 18 19 18 42 -2 50 -8 3 -12 2 -9 -4 8 -13 -23 -45 -33 -35 -4 4 -1 10
6 12 17 6 15 40 -2 46 -10 4 -13 1 -9 -9z"/>
<path d="M4617 9002 c-10 -10 -17 -28 -17 -40 0 -19 6 -22 41 -22 24 0 38 4
34 10 -3 6 1 10 9 10 9 0 16 9 16 20 0 11 -4 20 -8 20 -4 0 -14 -9 -22 -20
-13 -18 -50 -29 -50 -14 0 10 28 34 39 34 6 0 11 5 11 10 0 17 -36 11 -53 -8z"/>
<path d="M4791 8864 c0 -11 3 -14 6 -6 3 7 2 16 -1 19 -3 4 -6 -2 -5 -13z"/>
<path d="M4593 8805 c-7 -8 -13 -31 -12 -52 0 -21 3 -32 6 -25 2 6 16 12 29
12 28 0 30 6 9 27 -9 9 -13 23 -10 34 7 22 -5 24 -22 4z"/>
<path d="M4660 8801 c0 -11 -5 -21 -12 -23 -6 -2 -8 -10 -4 -16 5 -9 11 -9 22
2 16 17 19 56 4 56 -5 0 -10 -9 -10 -19z"/>
<path d="M4700 8760 c0 -11 5 -20 11 -20 5 0 7 5 4 10 -4 6 5 10 19 10 30 0
32 -5 11 -27 -9 -8 -25 -13 -35 -10 -13 3 -20 0 -20 -9 0 -9 12 -14 36 -14 21
0 33 4 29 10 -3 6 1 10 9 10 19 0 21 27 4 44 -7 6 -25 13 -40 14 -22 1 -28 -3
-28 -18z"/>
<path d="M5208 8723 c6 -2 18 -2 25 0 6 3 1 5 -13 5 -14 0 -19 -2 -12 -5z"/>
<path d="M4503 8683 c9 -2 23 -2 30 0 6 3 -1 5 -18 5 -16 0 -22 -2 -12 -5z"/>
<path d="M4266 8531 c-4 -7 -5 -15 -2 -18 9 -9 19 4 14 18 -4 11 -6 11 -12 0z"/>
<path d="M4351 8513 c-13 -14 -13 -19 0 -42 16 -28 62 -55 82 -48 7 3 1 9 -12
14 -20 8 -21 11 -8 16 33 13 19 33 -20 30 -21 -2 -32 0 -25 3 13 6 17 44 5 44
-5 -1 -14 -8 -22 -17z"/>
<path d="M4890 7510 c-8 -5 -50 -10 -92 -10 -45 0 -78 -4 -78 -10 0 -6 -28
-10 -65 -10 -37 0 -65 -4 -65 -10 0 -5 -20 -10 -45 -10 -25 0 -45 -4 -45 -9 0
-5 -15 -11 -32 -14 -76 -13 -98 -20 -98 -28 0 -5 -11 -9 -25 -9 -14 0 -25 -4
-25 -10 0 -5 -13 -10 -30 -10 -16 0 -30 -4 -30 -10 0 -5 -9 -10 -20 -10 -11 0
-20 -4 -20 -10 0 -5 -5 -10 -12 -10 -19 0 -108 -43 -108 -52 0 -4 -8 -8 -18
-8 -10 0 -24 -9 -32 -20 -8 -11 -22 -20 -32 -20 -10 0 -18 -4 -18 -10 0 -5 -8
-10 -18 -10 -10 0 -24 -9 -32 -20 -8 -11 -20 -20 -28 -20 -7 0 -10 -4 -7 -10
3 -5 -1 -10 -9 -10 -9 0 -39 -22 -67 -50 -28 -27 -58 -50 -66 -50 -8 0 -11 -4
-8 -10 3 -5 0 -10 -8 -10 -7 0 -20 -12 -28 -27 -8 -16 -31 -45 -51 -65 -21
-20 -38 -44 -38 -53 0 -9 -4 -13 -10 -10 -5 3 -10 -1 -10 -9 0 -9 -4 -16 -10
-16 -5 0 -10 -8 -10 -18 0 -10 -9 -24 -20 -32 -11 -8 -20 -21 -20 -30 0 -9 -9
-22 -20 -30 -11 -8 -20 -22 -20 -32 0 -10 -4 -18 -10 -18 -5 0 -10 -9 -10 -20
0 -11 -4 -20 -10 -20 -5 0 -10 -9 -10 -20 0 -11 -4 -20 -10 -20 -5 0 -10 -13
-10 -30 0 -16 -4 -30 -10 -30 -5 0 -10 -9 -10 -20 0 -11 -4 -20 -10 -20 -5 0
-10 -13 -10 -30 0 -16 -4 -30 -10 -30 -5 0 -10 -13 -10 -30 0 -16 -4 -30 -10
-30 -5 0 -10 -18 -10 -41 0 -24 -4 -38 -10 -34 -6 4 -10 -12 -10 -39 0 -25 -4
-46 -10 -46 -5 0 -10 -18 -10 -40 0 -22 -4 -40 -10 -40 -6 0 -10 -30 -10 -71
0 -44 -4 -68 -10 -64 -7 4 -10 -88 -10 -269 0 -160 4 -276 9 -276 5 0 12 -28
15 -62 9 -108 18 -158 27 -158 5 0 9 -20 9 -45 0 -25 5 -45 10 -45 6 0 10 -16
10 -35 0 -19 5 -35 10 -35 6 0 10 -13 10 -30 0 -16 5 -30 10 -30 6 0 10 -13
10 -30 0 -16 5 -30 10 -30 6 0 10 -9 10 -20 0 -11 5 -20 10 -20 6 0 10 -9 10
-19 0 -11 5 -23 10 -26 6 -3 10 -17 10 -31 0 -13 5 -24 10 -24 6 0 10 -9 10
-20 0 -11 5 -20 10 -20 6 0 10 -9 10 -20 0 -11 5 -20 10 -20 6 0 10 -7 10 -16
0 -17 23 -44 38 -44 6 0 13 -6 15 -12 4 -10 6 -10 6 0 1 7 14 12 31 12 17 0
30 5 30 10 0 6 14 10 30 10 17 0 30 5 30 10 0 6 14 10 30 10 17 0 30 5 30 10
0 6 11 10 24 10 14 0 28 5 31 10 3 6 15 10 26 10 10 0 19 5 19 10 0 6 14 10
30 10 17 0 30 5 30 10 0 6 12 10 26 10 14 0 23 4 19 10 -3 6 5 10 19 10 14 0
28 5 31 10 3 6 15 10 26 10 10 0 19 5 19 10 0 6 9 10 20 10 11 0 20 5 20 10 0
6 9 10 20 10 11 0 20 5 20 10 0 6 9 10 20 10 11 0 20 5 20 10 0 6 9 10 20 10
11 0 20 5 20 10 0 6 9 10 20 10 11 0 20 5 20 10 0 6 9 10 20 10 11 0 20 5 20
10 0 6 9 10 20 10 11 0 20 5 20 10 0 6 9 10 20 10 11 0 20 5 20 10 0 6 9 10
20 10 11 0 20 5 20 10 0 6 7 10 16 10 8 0 12 5 9 10 -3 6 3 10 14 10 12 0 21
5 21 10 0 6 8 10 18 10 10 0 24 9 32 20 8 11 22 20 32 20 10 0 18 5 18 10 0 6
7 10 16 10 9 0 24 8 33 18 9 9 28 23 44 31 15 8 27 18 27 23 0 4 9 8 21 8 11
0 17 5 14 10 -3 6 -1 10 5 10 6 0 18 7 27 15 8 8 19 12 25 9 7 -4 8 -2 4 4 -4
7 -1 12 6 12 8 0 20 9 28 20 8 11 18 20 23 20 5 0 14 6 22 13 30 28 56 47 66
47 5 0 7 5 4 10 -3 6 1 10 10 10 10 0 30 14 45 30 15 17 33 30 39 30 6 0 11 5
11 10 0 6 5 10 10 10 14 0 240 227 240 242 0 6 3 9 6 5 7 -7 134 119 134 134
0 6 18 28 40 49 22 21 40 46 40 54 0 9 8 16 20 16 12 0 20 7 20 16 0 9 14 29
30 44 18 17 30 38 30 54 0 19 5 26 20 26 13 0 20 7 20 18 0 10 9 24 20 32 11
8 20 21 20 30 0 9 9 22 20 30 11 8 20 22 20 32 0 10 5 18 10 18 6 0 10 9 10
21 0 11 5 17 10 14 6 -3 10 1 10 9 0 9 5 16 10 16 6 0 10 9 10 20 0 11 5 20
10 20 6 0 10 9 10 21 0 11 5 17 10 14 6 -3 10 3 10 15 0 12 5 18 10 15 6 -3
10 0 10 7 0 19 23 68 33 68 4 0 7 9 7 20 0 11 5 20 10 20 6 0 10 9 10 20 0 11
5 20 10 20 6 0 10 9 10 20 0 11 5 20 10 20 6 0 10 14 10 30 0 17 5 30 10 30 6
0 10 9 10 20 0 11 5 20 10 20 6 0 10 9 10 19 0 11 5 23 10 26 6 3 10 17 10 31
0 13 5 24 10 24 6 0 10 14 10 31 0 17 4 28 10 24 6 -4 10 7 10 25 0 18 4 29
10 25 6 -4 10 8 10 29 0 19 5 38 10 41 6 3 10 19 10 36 0 16 5 29 10 29 6 0
10 18 10 40 0 29 -4 40 -15 40 -8 0 -15 5 -15 10 0 6 -6 10 -13 10 -7 0 -19 9
-27 20 -8 11 -20 20 -28 20 -7 0 -20 7 -29 15 -8 8 -19 13 -24 10 -5 -4 -9 -1
-9 4 0 6 -6 11 -13 11 -7 0 -23 9 -35 20 -12 11 -28 20 -37 20 -8 0 -15 5 -15
10 0 6 -11 10 -25 10 -14 0 -25 5 -25 10 0 6 -11 10 -25 10 -14 0 -25 5 -25
10 0 6 -11 10 -25 10 -14 0 -25 5 -25 10 0 6 -11 10 -24 10 -14 0 -28 5 -31
10 -3 6 -23 10 -43 10 -28 0 -33 3 -22 10 11 7 4 10 -27 10 -24 0 -43 5 -43
10 0 6 -18 10 -39 10 -22 0 -43 5 -46 10 -3 6 -28 10 -56 10 -27 0 -49 5 -49
10 0 6 -40 10 -99 10 -56 0 -103 4 -106 10 -8 13 -235 13 -255 0z m485 -800
c-3 -5 7 -10 22 -12 32 -3 37 -29 16 -88 -7 -19 -12 -59 -13 -88 0 -69 -13
-92 -50 -92 -16 0 -31 4 -34 8 -3 5 -8 71 -12 148 l-7 140 42 -4 c22 -2 39 -8
36 -12z m-3 -315 c19 -8 11 -75 -9 -75 -8 0 -11 -4 -8 -10 9 -14 -17 -12 -35
3 -8 7 -21 23 -28 36 -12 20 -11 25 5 37 19 14 51 18 75 9z m25 -47 c-3 -8 -6
-5 -6 6 -1 11 2 17 5 13 3 -3 4 -12 1 -19z m-1317 -376 c0 -5 10 -14 23 -20
21 -10 20 -11 -10 -11 -27 -1 -33 3 -33 19 0 11 5 20 10 20 6 0 10 -4 10 -8z
m20 -99 c0 -19 -3 -24 -9 -15 -4 8 -12 13 -17 12 -5 0 -10 6 -12 14 -2 11 4
16 17 16 16 0 21 -6 21 -27z m-46 -78 c-4 -9 0 -15 9 -15 18 0 30 -27 15 -36
-5 -4 -14 0 -19 7 -7 12 -9 11 -9 -1 0 -9 -8 -4 -18 13 -9 15 -20 27 -24 27
-5 0 -8 5 -8 10 0 6 13 10 30 10 22 0 28 -4 24 -15z m1046 -131 c0 -8 5 -12
10 -9 6 3 10 -3 10 -15 0 -17 -5 -21 -27 -18 -32 3 -46 38 -16 38 15 0 16 2 3
10 -13 8 -12 10 3 10 9 0 17 -7 17 -16z"/>
<path d="M6560 6625 c0 -14 5 -25 10 -25 6 0 10 -34 10 -81 0 -51 4 -78 10
-74 6 4 10 -32 9 -102 0 -70 -3 -101 -9 -88 -6 13 -9 -14 -9 -77 -1 -58 -5
-98 -11 -98 -5 0 -10 -18 -10 -40 0 -22 -4 -40 -10 -40 -5 0 -9 -17 -8 -37 1
-20 -4 -39 -10 -41 -7 -2 -12 -17 -12 -33 0 -16 -4 -29 -10 -29 -5 0 -10 -13
-10 -30 0 -16 -4 -30 -10 -30 -5 0 -10 -9 -10 -20 0 -11 -4 -20 -10 -20 -5 0
-10 -9 -10 -20 0 -11 -4 -20 -10 -20 -5 0 -10 -9 -10 -20 0 -11 -4 -20 -10
-20 -5 0 -10 -8 -10 -18 0 -10 -9 -24 -20 -32 -11 -8 -20 -22 -20 -32 0 -10
-4 -18 -10 -18 -5 0 -10 -7 -10 -15 0 -9 -31 -47 -69 -85 -38 -38 -64 -71 -58
-74 7 -2 4 -5 -6 -5 -9 -1 -42 -26 -73 -56 -31 -31 -60 -53 -66 -49 -7 4 -8 3
-4 -4 4 -7 2 -12 -4 -12 -6 0 -18 -7 -27 -15 -8 -8 -19 -12 -25 -9 -7 4 -8 2
-4 -4 4 -7 1 -12 -8 -12 -8 0 -16 -3 -18 -7 -1 -5 -24 -19 -50 -32 -27 -13
-48 -28 -48 -33 0 -4 -9 -8 -20 -8 -11 0 -20 -4 -20 -10 0 -5 -13 -10 -30 -10
-16 0 -30 -4 -30 -10 0 -5 -9 -10 -20 -10 -11 0 -20 -4 -20 -10 0 -5 -9 -10
-20 -10 -11 0 -20 -4 -20 -10 0 -5 -13 -10 -30 -10 -16 0 -30 -4 -30 -10 0 -5
-13 -10 -30 -10 -16 0 -30 -4 -30 -10 0 -5 -13 -10 -30 -10 -16 0 -30 -4 -30
-10 0 -5 -16 -10 -35 -10 -19 0 -35 -4 -35 -10 0 -5 -16 -10 -35 -10 -19 0
-35 -4 -35 -10 0 -5 -18 -10 -40 -10 -22 0 -40 -4 -40 -10 0 -5 -18 -10 -40
-10 -22 0 -40 -4 -40 -9 0 -9 -37 -16 -149 -27 -37 -4 -49 -9 -40 -15 9 -6 -4
-9 -38 -9 -29 0 -53 -4 -53 -10 0 -5 -18 -10 -40 -10 -22 0 -40 -4 -40 -10 0
-6 -27 -10 -60 -10 -33 0 -60 -4 -60 -10 0 -5 -25 -10 -56 -10 -34 0 -53 -4
-49 -10 4 -6 -13 -10 -44 -10 -28 0 -51 -4 -51 -10 0 -5 -22 -10 -50 -10 -27
0 -50 -4 -50 -10 0 -5 -25 -10 -55 -10 -30 0 -55 -4 -55 -10 0 -5 -26 -10 -57
-10 -41 0 -54 -3 -43 -10 11 -7 0 -10 -37 -10 -29 0 -53 -4 -53 -10 0 -5 -22
-10 -50 -10 -27 0 -50 -4 -50 -10 0 -5 -18 -10 -40 -10 -22 0 -40 -4 -40 -10
0 -5 -18 -10 -40 -10 -22 0 -40 -4 -40 -10 0 -5 -18 -10 -40 -10 -22 0 -40 -4
-40 -10 0 -5 -18 -10 -40 -10 -22 0 -40 -4 -40 -10 0 -5 -13 -10 -30 -10 -16
0 -30 -4 -30 -10 0 -5 -9 -10 -20 -10 -11 0 -20 -4 -20 -8 0 -4 9 -14 20 -22
11 -8 20 -20 20 -27 0 -16 245 -263 261 -263 6 0 24 -13 39 -30 15 -16 34 -30
42 -30 7 0 20 -9 28 -20 8 -11 21 -20 30 -20 9 0 22 -9 30 -20 8 -11 19 -20
25 -20 17 0 65 -24 65 -32 0 -5 7 -8 15 -8 8 0 30 -9 50 -20 20 -11 44 -20 55
-20 11 0 20 -4 20 -10 0 -5 14 -10 30 -10 17 0 30 -4 30 -10 0 -5 14 -10 30
-10 17 0 30 -4 30 -10 0 -5 14 -10 30 -10 17 0 30 -4 30 -10 0 -5 20 -10 45
-10 25 0 45 -4 45 -10 0 -5 23 -10 51 -10 31 0 48 -4 44 -10 -4 -6 28 -10 89
-10 57 0 96 -4 96 -10 0 -13 297 -13 305 0 3 5 40 10 81 10 43 0 74 4 74 10 0
6 25 10 55 10 30 0 55 5 55 10 0 6 18 10 40 10 22 0 40 5 40 10 0 6 14 10 30
10 17 0 30 5 30 10 0 6 14 10 30 10 17 0 30 5 30 10 0 6 14 10 30 10 17 0 30
5 30 10 0 6 9 10 19 10 11 0 23 5 26 10 3 6 17 10 31 10 13 0 24 5 24 10 0 6
9 10 20 10 11 0 20 5 20 10 0 6 7 10 15 10 9 0 25 9 37 20 12 11 28 20 35 20
7 0 13 5 13 10 0 6 8 10 18 10 10 0 24 9 32 20 8 11 21 20 30 20 9 0 22 9 30
20 8 11 20 20 27 20 7 0 38 25 69 55 31 30 61 52 67 48 6 -3 7 -1 3 5 -4 7 -1
12 8 12 9 0 16 7 16 15 0 9 32 47 70 85 39 38 70 75 70 82 0 8 9 20 20 28 11
8 20 21 20 30 0 9 9 22 20 30 11 8 20 22 20 32 0 10 5 18 10 18 6 0 10 7 10
16 0 8 5 12 10 9 6 -3 10 3 10 14 0 12 5 21 10 21 6 0 10 9 10 20 0 11 5 20
10 20 6 0 10 9 10 20 0 11 5 20 10 20 6 0 10 9 10 20 0 11 5 20 10 20 6 0 10
14 10 30 0 17 5 30 10 30 6 0 10 11 10 25 0 14 5 25 10 25 6 0 10 11 10 25 0
14 5 25 10 25 6 0 10 14 10 30 0 17 5 30 10 30 6 0 10 18 10 40 0 22 5 40 10
40 6 0 10 18 10 40 0 22 5 40 10 40 6 0 10 23 10 50 0 28 5 50 10 50 6 0 10
28 10 64 0 36 5 68 10 71 6 4 10 103 10 266 0 166 -4 259 -10 259 -6 0 -11 32
-11 73 -1 54 -3 65 -9 42 -6 -22 -8 -9 -9 48 -1 49 -5 76 -11 72 -6 -4 -10 10
-10 34 0 23 -4 41 -10 41 -5 0 -10 16 -10 35 0 19 -4 35 -10 35 -5 0 -10 14
-10 30 0 17 -4 30 -10 30 -5 0 -10 14 -10 30 0 17 -4 30 -10 30 -5 0 -10 9
-10 20 0 11 -4 20 -10 20 -5 0 -10 9 -10 20 0 11 -4 20 -10 20 -5 0 -10 11
-10 25 0 14 -4 25 -10 25 -5 0 -10 -11 -10 -25z m-100 -995 c0 -5 -2 -10 -4
-10 -3 0 -8 5 -11 10 -3 6 -1 10 4 10 6 0 11 -4 11 -10z m-240 -398 c0 -4 14
-13 30 -20 18 -8 27 -18 23 -25 -5 -8 -8 -8 -11 1 -2 7 -17 12 -33 12 -22 0
-29 5 -29 20 0 11 5 20 10 20 6 0 10 -3 10 -8z m20 -62 c0 -5 -9 -10 -20 -10
-11 0 -20 5 -20 10 0 6 9 10 20 10 11 0 20 -4 20 -10z m60 -5 c0 -8 -4 -15
-10 -15 -5 0 -10 7 -10 15 0 8 5 15 10 15 6 0 10 -7 10 -15z m0 -41 c0 -23
-28 -47 -50 -41 -13 3 -17 1 -13 -10 5 -13 3 -13 -16 -2 -31 20 -26 29 19 29
33 0 40 3 40 20 0 11 5 20 10 20 6 0 10 -7 10 -16z m-720 -154 c0 -5 -4 -10
-10 -10 -5 0 -10 5 -10 10 0 6 5 10 10 10 6 0 10 -4 10 -10z m-198 -22 c-17
-8 -26 -8 -34 0 -9 9 -4 12 23 11 32 0 33 -1 11 -11z m-336 -102 c21 -22 18
-26 -20 -26 -29 0 -33 3 -29 20 6 23 28 26 49 6z m-9 -61 c7 -21 2 -25 -25
-18 -12 3 -22 12 -22 19 0 19 39 18 47 -1z m-17 -95 c0 -5 -9 -10 -20 -10 -11
0 -20 5 -20 10 0 6 9 10 20 10 11 0 20 -4 20 -10z m-308 -70 l22 -20 -37 0
c-30 0 -37 4 -37 20 0 11 7 20 15 20 9 0 25 -9 37 -20z m-392 -50 c0 -5 -4
-10 -10 -10 -5 0 -10 5 -10 10 0 6 5 10 10 10 6 0 10 -4 10 -10z m400 2 c0 -4
-9 -8 -20 -9 -11 -1 -20 2 -20 8 0 5 9 9 20 9 11 0 20 -4 20 -8z m-20 -102 c0
-5 -9 -10 -21 -10 -11 0 -17 5 -14 10 3 6 13 10 21 10 8 0 14 -4 14 -10z m555
-320 c4 -6 -7 -10 -24 -10 -17 0 -31 5 -31 10 0 6 11 10 24 10 14 0 28 -4 31
-10z"/>
<path d="M3703 3075 c-24 -25 -43 -51 -43 -59 0 -8 -4 -18 -10 -21 -6 -3 -10
-48 -10 -101 0 -56 4 -94 10 -94 6 0 10 -9 10 -20 0 -11 5 -20 10 -20 6 0 10
-7 10 -15 0 -20 45 -65 65 -65 8 0 15 -4 15 -10 0 -6 32 -10 75 -10 43 0 75 4
75 10 0 6 5 10 10 10 17 0 60 47 60 65 0 9 5 13 10 10 6 -4 10 5 10 19 0 14 5
26 10 26 6 0 10 33 10 80 0 47 -4 80 -10 80 -5 0 -10 9 -10 20 0 11 -4 20 -10
20 -5 0 -10 7 -10 15 0 9 -16 31 -35 50 -19 19 -41 35 -50 35 -8 0 -15 5 -15
10 0 6 -29 10 -67 9 -67 0 -69 -1 -110 -44z"/>
<path d="M4505 3090 c-3 -5 -14 -10 -23 -10 -10 0 -24 -9 -32 -20 -8 -11 -23
-20 -33 -20 -10 0 -16 -4 -12 -9 3 -5 -6 -21 -20 -35 -33 -33 -36 -96 -5 -96
11 0 20 5 20 10 0 6 40 10 100 10 60 0 100 -4 100 -10 0 -6 28 -10 64 -10 36
0 68 5 71 10 3 6 19 10 36 10 22 0 29 5 29 20 0 11 -4 20 -10 20 -5 0 -10 7
-10 15 0 9 -16 31 -35 50 -19 19 -41 35 -50 35 -8 0 -15 5 -15 10 0 6 -9 10
-20 10 -11 0 -20 5 -20 10 0 6 -28 10 -64 10 -36 0 -68 -4 -71 -10z"/>
<path d="M5320 3093 c0 -7 -9 -13 -20 -13 -11 0 -20 -3 -20 -8 0 -4 -14 -14
-32 -21 -18 -8 -27 -16 -20 -19 8 -2 1 -14 -18 -32 -16 -15 -30 -37 -30 -49 0
-12 -4 -21 -10 -21 -6 0 -10 -32 -10 -75 0 -43 4 -75 10 -75 6 0 10 -14 10
-31 0 -17 4 -28 10 -24 6 3 10 1 10 -5 0 -16 47 -60 65 -60 8 0 15 -4 15 -10
0 -5 9 -10 20 -10 11 0 20 -6 20 -12 0 -9 4 -8 10 2 6 10 10 11 10 3 0 -9 17
-13 50 -13 28 0 50 5 50 10 0 6 11 10 25 10 29 0 115 79 115 105 0 8 5 15 10
15 6 0 10 40 10 100 0 60 -4 100 -10 100 -5 0 -10 7 -10 15 0 26 -86 105 -115
105 -14 0 -25 5 -25 10 0 6 -22 10 -50 10 -33 0 -50 -4 -50 -12 0 -9 -4 -8
-10 2 -6 10 -10 11 -10 3z"/>
<path d="M5498 9433 c7 -3 16 -2 19 1 4 3 -2 6 -13 5 -11 0 -14 -3 -6 -6z"/>
<path d="M5261 9426 c2 -2 45 -6 94 -9 66 -4 77 -3 40 3 -52 9 -141 13 -134 6z"/>
<path d="M3843 9408 c2 -7 15 -12 28 -10 13 1 62 5 109 8 126 8 120 12 -18 13
-95 1 -123 -2 -119 -11z"/>
<path d="M4168 9413 c7 -3 16 -2 19 1 4 3 -2 6 -13 5 -11 0 -14 -3 -6 -6z"/>
<path d="M4988 9413 c6 -2 18 -2 25 0 6 3 1 5 -13 5 -14 0 -19 -2 -12 -5z"/>
<path d="M5070 9414 c60 -8 130 -8 130 -1 0 4 -35 6 -77 6 -43 -1 -67 -3 -53
-5z"/>
<path d="M5693 9413 c9 -2 25 -2 35 0 9 3 1 5 -18 5 -19 0 -27 -2 -17 -5z"/>
<path d="M7342 7120 c0 -19 2 -27 5 -17 2 9 2 25 0 35 -3 9 -5 1 -5 -18z"/>
<path d="M7340 7058 c0 -16 5 -28 10 -28 13 0 13 20 0 40 -8 12 -10 9 -10 -12z"/>
<path d="M7347 6983 c-11 -10 -8 -43 3 -43 6 0 10 11 10 25 0 26 -2 29 -13 18z"/>
<path d="M7344 5772 c2 -40 -1 -75 -5 -78 -14 -8 -10 -24 6 -24 17 0 20 68 5
135 -8 34 -9 29 -6 -33z"/>
<path d="M7360 5621 c0 -22 5 -43 10 -46 6 -4 10 12 10 39 0 25 -4 46 -10 46
-5 0 -10 -18 -10 -39z"/>
<path d="M7367 5493 c-11 -10 -8 -53 3 -53 6 0 10 14 10 30 0 31 -2 35 -13 23z"/>
<path d="M7346 5375 c-3 -8 -1 -15 4 -15 6 0 10 7 10 15 0 8 -2 15 -4 15 -2 0
-6 -7 -10 -15z"/>
<path d="M7364 5319 c-3 -6 -1 -16 5 -22 8 -8 11 -5 11 11 0 24 -5 28 -16 11z"/>
<path d="M7328 5268 c9 -9 15 -9 24 0 9 9 7 12 -12 12 -19 0 -21 -3 -12 -12z"/>
<path d="M7336 5241 c-8 -12 3 -41 15 -41 5 0 9 11 9 25 0 25 -14 34 -24 16z"/>
<path d="M7352 5191 c-12 -7 -12 -12 0 -31 10 -18 10 -24 0 -27 -6 -3 -10 -9
-7 -13 13 -22 35 4 35 41 0 40 -5 45 -28 30z"/>
<path d="M7360 4700 c0 -11 5 -20 10 -20 6 0 10 9 10 20 0 11 -4 20 -10 20 -5
0 -10 -9 -10 -20z"/>
<path d="M7342 2905 c-10 -21 -9 -25 3 -25 9 0 15 10 15 25 0 14 -2 25 -3 25
-2 0 -9 -11 -15 -25z"/>
<path d="M6093 943 c9 -2 25 -2 35 0 9 3 1 5 -18 5 -19 0 -27 -2 -17 -5z"/>
<path d="M3280 790 c0 -5 5 -10 10 -10 6 0 10 5 10 10 0 6 -4 10 -10 10 -5 0
-10 -4 -10 -10z"/>
</g>
</svg>
