<?xml version="1.0" standalone="no"?>
<!DOCTYPE svg PUBLIC "-//W3C//DTD SVG 20010904//EN"
 "http://www.w3.org/TR/2001/REC-SVG-20010904/DTD/svg10.dtd">
<svg version="1.0" xmlns="http://www.w3.org/2000/svg"
 width="900.000000pt" height="600.000000pt" viewBox="0 0 900.000000 600.000000"
 preserveAspectRatio="xMidYMid meet">

<g transform="translate(0.000000,600.000000) scale(0.100000,-0.100000)"
fill="#000000" stroke="none">
<path d="M5539 5835 c-1 -3 -3 -9 -4 -15 -1 -5 -3 -14 -4 -19 -6 -43 -616 -37
-886 9 -47 8 -97 6 -230 -9 -251 -29 -292 -31 -495 -32 -157 -1 -290 8 -400
26 -14 3 -52 -5 -86 -16 -76 -26 -106 -23 -114 11 l-6 25 -8 -23 c-4 -13 -5
-49 -1 -80 7 -65 -11 -127 -59 -201 -63 -98 -166 -293 -166 -314 0 -7 -4 -17
-8 -22 -14 -18 -30 -79 -38 -145 -3 -36 -7 -1010 -8 -2165 0 -1155 2 -2066 7
-2025 4 41 16 158 27 260 11 102 24 241 30 310 6 69 12 134 15 146 3 11 13
117 24 235 32 347 44 788 36 1329 -3 267 -4 482 0 478 10 -9 33 -249 45 -458
6 -102 17 -248 25 -325 61 -576 59 -1422 -5 -1856 -11 -79 -28 -194 -37 -255
-9 -64 -14 -137 -10 -173 3 -34 1 -64 -4 -67 -12 -7 8 -34 24 -34 19 0 105
-61 122 -87 11 -16 17 -44 16 -74 -1 -58 0 -59 130 -93 60 -15 137 -26 214
-30 66 -3 161 -8 210 -11 580 -30 1617 3 1667 53 7 7 20 12 30 12 9 0 28 5 41
11 22 10 24 17 23 69 -1 49 3 63 23 84 14 15 42 31 63 38 21 6 45 19 54 30 16
17 16 18 -17 18 -51 0 -230 -27 -267 -41 -18 -6 -35 -9 -38 -6 -2 2 12 24 31
48 90 106 142 246 260 684 42 159 114 672 137 985 8 103 13 378 13 727 0 309
4 555 8 547 4 -8 17 -175 28 -371 10 -196 20 -358 22 -359 3 -4 -2 2312 -6
2406 -2 47 -8 74 -23 95 -11 17 -27 46 -34 65 -7 19 -21 46 -31 60 -28 42 -69
113 -85 150 -9 19 -24 44 -34 55 -11 11 -31 47 -47 80 -24 52 -27 71 -25 142
2 76 0 84 -20 97 -23 14 -127 31 -129 21z m-2091 -107 c4 -23 -52 -162 -88
-215 -17 -24 -30 -46 -30 -48 0 -3 -21 -42 -46 -87 -26 -46 -63 -112 -83 -148
-20 -36 -48 -94 -61 -130 -25 -65 -25 -67 -23 -395 0 -181 4 -368 8 -415 10
-130 -8 -85 -21 53 -25 252 -39 611 -26 691 12 76 47 153 197 436 44 81 95
213 95 242 0 37 71 52 78 16z m2141 6 c3 -3 8 -36 12 -73 5 -44 18 -91 37
-128 16 -32 32 -71 36 -86 4 -16 31 -81 62 -144 91 -195 101 -245 114 -618 10
-313 22 -527 36 -652 4 -39 3 -63 -3 -63 -6 0 -13 33 -16 73 -18 219 -72 698
-98 857 -25 160 -70 293 -129 380 -39 59 -151 318 -162 376 -16 88 -10 98 55
89 28 -4 54 -9 56 -11z m-1303 -186 c146 -151 242 -379 232 -552 -2 -36 -8
-61 -16 -64 -6 -2 -37 20 -68 50 l-55 53 -5 85 c-7 138 -38 237 -126 407 -56
107 -50 111 38 21z m637 -263 c34 -19 69 -40 77 -45 8 -5 33 -19 55 -31 22
-12 54 -32 72 -45 17 -13 35 -24 39 -24 4 0 30 -17 58 -38 72 -54 155 -112
161 -112 3 0 5 6 5 14 0 24 -82 113 -152 165 -91 69 -120 113 -83 127 20 8
217 -159 275 -233 84 -107 114 -219 70 -263 -11 -11 -27 -20 -35 -20 -19 0
-20 3 17 -70 41 -84 48 -148 19 -189 -13 -17 -31 -31 -41 -31 -31 0 -33 -19
-7 -53 35 -46 67 -124 67 -164 0 -40 -22 -88 -45 -97 -39 -15 -117 -5 -190 24
-42 17 -78 30 -80 30 -3 0 -5 -13 -5 -29 0 -23 10 -37 43 -63 153 -120 267
-287 274 -406 4 -49 1 -61 -21 -87 -22 -28 -29 -30 -88 -29 -44 1 -76 8 -108
24 -121 61 -241 162 -345 290 -86 108 -125 202 -104 257 19 50 48 73 93 73 42
0 124 -21 163 -42 30 -15 35 -8 22 30 -8 23 -26 40 -67 63 -138 78 -356 230
-476 332 -99 86 -299 287 -358 362 -62 79 -93 158 -85 212 13 76 62 91 155 48
43 -20 52 -29 52 -50 0 -31 -17 -32 -70 -5 -47 24 -60 25 -60 5 0 -79 237
-319 481 -488 101 -69 256 -168 292 -185 14 -7 7 20 -13 46 -116 152 -284 330
-418 445 -35 29 -42 57 -16 57 32 0 206 -156 348 -314 76 -83 189 -231 217
-282 11 -21 43 -43 114 -77 113 -56 155 -66 174 -43 11 13 10 21 -7 48 -22 34
-81 94 -142 142 -234 186 -366 336 -396 450 -14 55 -14 58 8 97 18 32 20 42 9
48 -24 15 -42 161 -20 161 6 0 38 -16 72 -35z m-943 -65 c9 -6 11 -13 5 -17
-16 -12 -17 -40 -1 -46 12 -5 12 -11 -2 -41 -16 -36 -17 -36 -82 -38 -86 -2
-102 -4 -122 -13 -24 -10 -38 2 -38 31 0 17 8 27 25 34 14 5 25 16 25 24 0 13
33 40 51 41 3 0 13 8 23 18 19 19 91 23 116 7z m1520 -106 c10 -26 -1 -54 -21
-54 -16 0 -39 32 -39 56 0 36 47 34 60 -2z m-1131 -312 c79 -84 76 -73 41
-131 -16 -29 -30 -54 -30 -58 0 -3 -20 -35 -44 -72 -83 -126 -137 -275 -122
-335 5 -20 14 -24 68 -30 152 -16 386 -183 428 -306 18 -52 14 -110 -8 -132
-19 -19 -90 -21 -138 -4 -104 35 -289 193 -332 283 -20 41 -42 51 -42 18 0
-57 86 -213 179 -325 112 -135 305 -308 419 -375 9 -5 33 -22 53 -38 94 -70
283 -151 419 -178 102 -21 163 26 163 124 0 115 -146 297 -298 371 -167 82
-249 44 -152 -70 31 -35 66 -56 159 -93 18 -6 37 -29 53 -62 15 -28 42 -73 61
-100 19 -27 34 -53 34 -59 0 -17 -36 -11 -107 15 -180 68 -308 206 -320 346
-6 56 -4 60 30 94 32 32 40 35 90 35 123 0 241 -61 367 -190 143 -148 209
-347 165 -498 -40 -134 -162 -182 -340 -133 -70 20 -245 108 -320 162 -235
169 -367 287 -481 429 -61 76 -124 166 -124 177 0 3 -14 28 -31 54 -35 55 -85
196 -95 267 -5 38 -1 59 16 100 l22 52 -18 72 c-37 145 -16 287 61 418 30 50
75 131 104 188 16 31 28 28 70 -16z m1518 -894 c-3 -7 -5 -2 -5 12 0 14 2 19
5 13 2 -7 2 -19 0 -25z m-1308 -749 l61 -41 0 -68 c0 -38 -4 -71 -8 -74 -5 -3
-36 13 -70 34 l-62 39 0 76 c0 41 4 75 9 75 5 0 36 -18 70 -41z m27 -286 c52
-32 114 -70 137 -85 23 -15 49 -31 57 -34 8 -4 35 -21 60 -38 70 -49 185 -116
198 -116 32 0 3 46 -93 146 -95 100 -116 130 -99 147 15 15 190 -138 265 -231
82 -102 109 -189 73 -240 -8 -12 -26 -22 -40 -22 -28 0 -32 -21 -7 -41 9 -8
27 -38 40 -67 52 -118 10 -205 -91 -187 -42 8 -46 -2 -12 -36 43 -44 104 -153
120 -215 14 -54 14 -67 1 -110 -26 -90 -61 -110 -172 -101 -49 4 -84 14 -139
42 -41 21 -77 36 -80 33 -12 -13 10 -59 36 -75 208 -132 345 -291 358 -413 6
-60 -18 -116 -55 -131 -40 -16 -119 -13 -177 6 -156 53 -402 267 -470 407 -59
122 -45 200 40 228 38 13 112 1 167 -27 24 -12 28 -12 33 1 8 20 -26 76 -95
156 -139 161 -181 232 -181 306 0 56 35 106 81 118 62 15 180 -51 195 -109 13
-51 -17 -71 -76 -51 -24 8 -40 23 -57 56 -26 49 -56 60 -61 22 -8 -55 106
-188 228 -266 83 -53 194 -106 236 -113 26 -4 38 0 58 20 32 32 32 48 1 116
-32 68 -111 155 -229 251 -213 174 -311 276 -352 368 -27 58 -30 102 -12 135
8 14 11 55 9 115 -2 50 0 92 4 92 3 0 49 -26 101 -57z m924 -152 c0 -5 -8 -29
-19 -53 -62 -145 -57 -425 10 -481 l21 -19 -25 -26 c-62 -67 -97 -188 -97
-342 0 -96 22 -304 41 -389 22 -97 59 -379 59 -451 0 -41 -8 -109 -18 -151
-25 -101 -68 -166 -140 -210 l-56 -34 -126 1 c-116 0 -131 3 -210 33 -133 51
-240 112 -367 211 -276 216 -493 551 -493 762 0 53 4 70 25 99 14 19 34 37 43
41 74 29 205 -25 232 -97 15 -40 12 -53 -15 -71 -21 -14 -30 -14 -54 -4 -38
16 -79 59 -83 90 -3 28 -31 38 -55 19 -42 -35 35 -220 142 -339 238 -268 538
-463 773 -504 287 -49 377 109 307 539 -8 50 -21 119 -30 155 -8 36 -31 156
-50 267 -30 172 -35 225 -35 356 0 140 3 164 29 254 24 85 121 287 164 341 11
14 27 16 27 3z m-1586 -1344 c23 -30 26 -43 26 -115 0 -73 -3 -83 -27 -113
l-27 -32 -186 7 c-204 8 -258 16 -277 42 -20 27 -17 193 3 222 15 22 19 22
239 22 l224 0 25 -33z m-381 -440 c-1 -26 -7 -55 -14 -63 -9 -11 -8 -18 6 -34
16 -18 16 -20 2 -26 -21 -8 -73 10 -70 24 2 6 -1 40 -6 74 -5 35 -7 67 -4 71
3 4 24 7 46 5 l42 -3 -2 -48z m130 21 c3 -18 5 -51 6 -72 1 -22 6 -45 13 -53
8 -10 8 -17 -1 -26 -18 -18 -45 5 -49 42 -4 37 -27 38 -27 1 0 -25 -24 -42
-26 -18 -2 36 3 143 7 150 3 4 20 8 39 8 31 0 34 -3 38 -32z m227 7 c0 -13 -7
-45 -16 -71 -14 -43 -14 -47 2 -59 16 -11 16 -15 5 -29 -9 -11 -21 -14 -35 -9
-12 4 -39 7 -61 8 -50 0 -67 28 -62 102 5 72 14 79 97 81 68 1 70 0 70 -23z
m-322 -213 c2 -6 -3 -12 -12 -12 -23 0 -28 -17 -10 -34 23 -24 34 -19 34 13 0
33 22 56 46 47 16 -6 16 -8 0 -24 -18 -21 -21 -42 -6 -42 6 0 15 -12 21 -26
18 -49 -22 -122 -46 -83 -4 5 0 18 9 28 18 20 12 51 -10 51 -9 0 -14 -12 -14
-35 0 -24 -6 -37 -20 -45 -16 -9 -22 -8 -26 5 -4 8 -1 22 6 30 10 13 9 23 -5
55 -10 22 -24 40 -32 40 -7 0 -16 7 -19 15 -9 22 -44 19 -44 -4 0 -11 -4 -23
-10 -26 -13 -8 -13 6 0 39 9 24 13 26 71 23 38 -2 64 -7 67 -15z m355 -23 c22
-42 17 -124 -11 -151 -16 -16 -25 -17 -71 -8 -30 5 -78 10 -107 10 l-54 0 0
71 0 71 60 -4 c54 -4 59 -2 62 16 2 13 10 21 23 21 18 0 20 -7 20 -65 0 -69 7
-90 31 -90 17 0 20 93 5 133 -19 51 15 47 42 -4z m-410 -77 c5 -42 -6 -62 -36
-62 -19 0 -19 1 -3 19 14 16 16 29 11 63 -7 37 -6 41 8 30 8 -7 17 -29 20 -50z
m-69 -47 c3 -8 1 -15 -4 -15 -6 0 -10 7 -10 15 0 8 2 15 4 15 2 0 6 -7 10 -15z
m606 -241 c107 -8 209 -19 225 -24 35 -11 53 -35 50 -67 -2 -29 -63 -98 -99
-112 -46 -17 -369 -14 -441 4 -32 9 -65 21 -73 27 -8 7 -24 17 -36 23 -16 9
-20 19 -18 44 3 40 -20 78 -54 91 -28 11 -32 27 -6 32 31 6 254 -2 452 -18z
m-557 -1 c4 -3 0 -17 -9 -31 -14 -22 -14 -25 0 -41 9 -10 16 -25 16 -33 0 -9
7 -19 16 -22 24 -9 7 -24 -22 -18 -15 3 -21 8 -15 12 16 9 -14 34 -66 55 -27
11 -43 23 -43 34 1 29 102 66 123 44z m1838 3 c3 -3 3 -23 1 -45 -3 -34 -8
-41 -26 -42 l-21 0 23 -16 c32 -22 27 -38 -15 -56 -119 -52 -284 -68 -496 -51
-66 6 -77 10 -77 25 0 11 -7 20 -15 20 -8 1 -19 3 -25 4 -5 1 -13 3 -17 4 -3
0 2 10 12 21 17 19 16 20 -16 35 -37 18 -75 62 -64 73 16 17 721 43 736 28z"/>
<path d="M4934 5096 c-18 -46 153 -223 329 -340 116 -77 170 -69 111 16 -45
65 -133 137 -294 244 -30 20 -74 49 -98 65 -34 23 -44 26 -48 15z"/>
<path d="M4937 4185 c-22 -21 -21 -27 3 -75 21 -41 63 -70 101 -70 27 0 92 64
87 87 -4 24 -75 62 -130 69 -34 5 -48 2 -61 -11z"/>
<path d="M5176 4072 c-4 -10 -22 -35 -41 -56 -19 -21 -35 -41 -34 -45 1 -12
103 -86 162 -118 137 -75 178 -12 75 113 -49 60 -124 124 -143 124 -8 0 -16
-8 -19 -18z"/>
<path d="M4250 4110 c-20 -12 52 -110 143 -196 81 -77 191 -144 235 -144 23 0
42 19 42 42 0 66 -126 201 -237 254 -73 35 -162 57 -183 44z"/>
<path d="M4560 2700 c0 -43 53 -106 155 -185 21 -16 52 -41 69 -55 84 -70 226
-150 264 -150 24 0 34 23 23 53 -18 47 -169 164 -358 276 -56 34 -105 66 -108
71 -12 19 -45 11 -45 -10z"/>
<path d="M4566 1661 c-22 -24 -15 -50 26 -96 56 -65 133 -54 164 22 19 43 10
56 -53 77 -64 22 -116 21 -137 -3z"/>
<path d="M4795 1543 c-15 -27 -37 -58 -48 -70 -11 -13 -19 -25 -16 -27 2 -2
33 -23 69 -48 159 -109 270 -128 270 -47 0 28 -13 45 -102 141 -29 31 -122 98
-137 98 -5 0 -21 -21 -36 -47z"/>
<path d="M3488 1345 c-6 -6 2 -137 9 -145 2 -2 8 2 13 9 7 12 14 11 43 -2 47
-23 67 -22 67 4 0 11 -4 18 -9 14 -16 -9 -33 34 -26 66 4 16 13 29 22 29 32 0
4 25 -29 26 -28 1 -39 -4 -47 -20 l-10 -21 -7 23 c-6 22 -15 27 -26 17z"/>
<path d="M3777 1320 c-4 -16 0 -20 17 -20 29 0 39 10 25 27 -16 19 -36 16 -42
-7z"/>
<path d="M3887 1333 c-4 -6 0 -19 8 -29 11 -15 14 -16 15 -4 0 21 -16 44 -23
33z"/>
<path d="M3696 1323 c-11 -11 -6 -23 9 -23 8 0 15 4 15 9 0 13 -16 22 -24 14z"/>
<path d="M3845 1320 c-7 -12 2 -30 16 -30 5 0 9 9 9 20 0 21 -15 27 -25 10z"/>
<path d="M3830 1210 c0 -5 5 -10 11 -10 5 0 7 5 4 10 -3 6 -8 10 -11 10 -2 0
-4 -4 -4 -10z"/>
<path d="M3510 920 c0 -40 13 -53 24 -24 11 29 7 64 -9 64 -11 0 -15 -11 -15
-40z"/>
<path d="M3637 946 c-3 -8 1 -20 9 -26 12 -10 14 -8 14 14 0 28 -14 35 -23 12z"/>
<path d="M3848 953 c-2 -4 -1 -21 2 -38 l7 -30 8 28 c7 27 -7 60 -17 40z"/>
<path d="M3790 895 c0 -14 5 -25 10 -25 6 0 10 11 10 25 0 14 -4 25 -10 25 -5
0 -10 -11 -10 -25z"/>
<path d="M5966 1058 c-4 -29 -11 -102 -16 -163 -22 -229 -40 -338 -66 -383
-14 -23 -20 -42 -15 -42 21 0 80 62 90 93 10 33 26 547 17 547 -2 0 -7 -24
-10 -52z"/>
</g>
</svg>
