<?xml version="1.0" standalone="no"?>
<!DOCTYPE svg PUBLIC "-//W3C//DTD SVG 20010904//EN"
 "http://www.w3.org/TR/2001/REC-SVG-20010904/DTD/svg10.dtd">
<svg version="1.0" xmlns="http://www.w3.org/2000/svg"
 width="292.000000pt" height="292.000000pt" viewBox="0 0 292.000000 292.000000"
 preserveAspectRatio="xMidYMid meet">

<g transform="translate(0.000000,292.000000) scale(0.100000,-0.100000)"
fill="#000000" stroke="none">
<path d="M1067 2539 c-9 -5 -21 -8 -26 -5 -5 3 -12 -9 -15 -27 -3 -18 -22 -66
-41 -106 l-35 -73 0 -953 0 -954 33 -22 c17 -12 46 -38 64 -57 l31 -36 148 -9
c81 -5 212 -6 291 -2 155 8 190 21 43 17 -54 -2 -91 1 -95 7 -3 6 -16 11 -28
12 -15 1 -11 4 13 11 19 5 43 17 53 26 10 9 42 18 77 20 50 4 60 2 60 -11 0
-9 -12 -24 -27 -32 l-28 -16 34 5 c18 4 39 6 45 6 6 0 6 4 -2 9 -10 6 -5 14
21 30 31 19 67 28 67 17 0 -3 -18 -23 -40 -45 -23 -23 -35 -41 -29 -41 7 0 28
17 48 38 20 20 48 47 64 59 26 22 27 27 27 115 0 91 -26 248 -42 248 -10 0 -9
-79 1 -105 13 -30 -6 -45 -55 -45 -39 0 -44 3 -44 23 0 12 7 31 15 41 22 29
22 323 0 352 -26 35 -19 52 26 56 22 2 42 2 45 -1 2 -2 4 -56 5 -120 1 -105 2
-113 14 -86 7 17 11 45 7 64 -4 25 -2 32 7 27 6 -4 9 -12 6 -17 -4 -5 -1 -9 4
-9 8 0 11 151 11 486 0 418 -2 488 -15 500 -10 10 -14 32 -13 62 l2 47 3 -47
c2 -27 8 -48 13 -48 5 0 9 82 9 181 l1 182 -40 90 c-22 49 -40 100 -40 112 0
21 -6 24 -61 30 -33 4 -65 3 -69 -1 -12 -12 18 -155 37 -176 8 -9 32 -19 52
-21 36 -4 -81 -12 -124 -9 -19 2 -18 1 3 -16 31 -24 43 -83 31 -141 -6 -25
-11 -54 -12 -63 -1 -9 -6 -14 -11 -11 -5 4 -7 -1 -3 -10 3 -9 1 -18 -6 -21 -7
-2 -3 -5 8 -5 17 -1 17 -3 5 -11 -11 -7 -15 -31 -16 -100 0 -49 3 -90 6 -90 8
0 4 -49 -4 -57 -3 -3 -1 -14 4 -24 7 -12 6 -22 -5 -33 -15 -15 -9 -16 120 -29
39 -4 25 -34 -52 -111 -48 -49 -73 -80 -65 -83 10 -4 10 -8 1 -19 -9 -11 -8
-14 2 -14 11 0 11 -2 2 -8 -9 -6 -6 -32 13 -111 27 -111 23 -132 -17 -110 -21
11 -22 10 -12 -3 7 -8 9 -19 5 -23 -4 -5 -1 -5 5 -1 9 5 11 2 7 -8 -3 -9 -13
-16 -21 -16 -8 0 -12 -4 -9 -9 4 -5 0 -11 -6 -13 -7 -3 6 -8 30 -11 49 -8 55
-22 12 -30 l-29 -6 4 -87 c4 -84 5 -88 34 -106 27 -17 71 -88 71 -115 0 -14
-54 -60 -81 -68 -17 -6 -20 -13 -16 -40 3 -18 0 -38 -6 -44 -23 -23 12 -11 42
15 17 14 38 23 46 20 37 -14 2 -77 -59 -108 -23 -12 -36 -23 -30 -25 10 -3 10
-113 -1 -141 -7 -19 -65 -15 -71 6 -3 9 -10 25 -15 34 -12 24 -12 58 1 58 13
0 4 54 -9 58 -31 10 -90 65 -106 98 -44 94 -11 197 83 251 l47 28 4 75 c2 41
5 78 7 82 2 3 -19 9 -47 13 -61 9 -53 23 18 31 32 4 50 11 50 20 0 7 -3 13 -6
12 -24 -2 -41 4 -38 15 1 6 -3 11 -8 10 -6 -1 -10 21 -9 53 1 54 0 56 -42 85
l-43 29 -88 -61 c-48 -34 -96 -68 -105 -77 -15 -12 -20 -13 -33 -2 -14 12 -15
10 -11 -15 3 -17 -1 -33 -10 -43 -25 -24 0 -32 114 -32 61 0 102 -4 102 -10 0
-6 -43 -10 -110 -10 -60 0 -111 -3 -111 -7 -1 -5 -2 -52 -4 -105 l-2 -96 24 9
c32 12 80 12 103 -1 29 -15 40 -65 40 -181 0 -100 1 -107 19 -102 32 8 37 -18
7 -44 -35 -30 -88 -31 -116 -1 -18 19 -20 35 -20 139 0 88 -3 118 -13 122 -33
12 -42 -11 -45 -113 -3 -84 -1 -101 12 -106 22 -8 20 -53 -1 -62 -15 -6 -18
-20 -18 -74 0 -36 4 -64 8 -61 5 3 4 -4 -2 -16 -8 -14 -21 -21 -41 -21 -24 0
-30 4 -30 23 0 18 -2 19 -11 7 -9 -12 -9 -11 -3 5 12 30 14 135 3 135 -17 0
-31 51 -18 66 8 10 10 57 7 152 -3 110 -1 141 10 151 20 19 13 171 -8 188 -13
10 -13 12 0 17 12 5 14 20 10 79 -4 39 -5 178 -4 307 0 144 -3 241 -9 251 -11
18 -2 53 12 45 5 -4 8 2 6 11 -2 10 -4 20 -4 22 -1 2 -11 -4 -22 -15 -22 -19
-22 -19 -11 2 6 11 18 26 26 33 9 8 13 17 10 22 -12 20 -14 62 -3 75 9 11 8
14 -2 14 -8 0 -22 12 -32 28 l-18 27 6 -30 c11 -46 11 -54 0 -57 -16 -5 -25
71 -19 150 7 83 24 107 24 34 0 -34 6 -57 19 -73 l18 -23 -3 52 c-1 37 1 50 9
46 9 -5 9 -4 1 5 -7 8 -8 27 -4 52 4 21 4 39 0 39 -14 0 1 77 34 167 37 103
36 117 -7 92z m670 -286 c17 -26 12 -91 -9 -104 -7 -5 -11 -27 -9 -59 2 -40
-1 -51 -11 -48 -8 3 -14 24 -16 51 -3 45 -22 68 -22 28 0 -27 -11 -52 -20 -46
-9 6 -5 50 16 141 14 63 18 71 35 67 11 -3 27 -16 36 -30z m58 -80 c-2 -16 -9
-61 -16 -100 -10 -68 -20 -86 -34 -64 -7 12 37 191 47 191 4 0 5 -12 3 -27z
m-828 -25 c-3 -8 -6 -5 -6 6 -1 11 2 17 5 13 3 -3 4 -12 1 -19z m656 -215 c-6
-2 -9 -13 -6 -23 4 -14 0 -20 -11 -20 -19 0 -19 1 -6 35 6 17 14 23 22 19 8
-5 9 -9 1 -11z m153 -75 c24 -46 15 -45 -15 1 -17 25 -37 48 -45 53 -9 5 -16
14 -16 20 0 16 59 -41 76 -74z m-122 38 c-3 -15 -8 -25 -11 -23 -2 3 -1 17 3
31 3 15 8 25 11 23 2 -3 1 -17 -3 -31z m38 -18 c-7 -7 -12 -8 -12 -2 0 6 3 14
7 17 3 4 9 5 12 2 2 -3 -1 -11 -7 -17z m45 -24 c4 -15 -14 -37 -25 -30 -13 8
-3 48 11 43 6 -2 12 -7 14 -13z m19 -61 c-5 -12 -10 -13 -17 -6 -8 8 -7 18 2
34 12 21 14 22 17 6 2 -10 1 -25 -2 -34z m-732 11 c7 -18 0 -34 -15 -34 -5 0
-9 11 -9 25 0 28 15 34 24 9z m756 -46 c0 -16 -3 -19 -11 -11 -6 6 -8 16 -5
22 11 17 16 13 16 -11z m9 -55 c0 -25 -1 -25 -8 -8 -5 11 -7 23 -4 28 8 14 13
7 12 -20z m-773 -350 c-11 -11 -17 4 -9 23 7 18 8 18 11 1 2 -10 1 -21 -2 -24z
m654 2 c0 -19 -2 -35 -4 -35 -2 0 -6 16 -8 35 -2 19 0 35 4 35 4 0 8 -16 8
-35z m38 3 c-3 -32 -18 -42 -27 -17 -2 7 1 9 9 4 9 -6 9 -3 1 12 -10 20 -6 33
11 33 5 0 8 -15 6 -32z m58 -1 c3 -28 -10 -45 -21 -27 -3 5 -2 10 4 10 6 0 8
7 4 16 -5 13 -9 10 -19 -12 l-13 -29 2 37 c2 30 5 37 21 34 12 -2 20 -12 22
-29z m8 -173 c25 -10 8 -24 -29 -24 -33 0 -51 11 -38 24 8 8 46 8 67 0z m-794
-139 c0 -24 -4 -47 -10 -50 -6 -4 -10 15 -10 50 0 35 4 54 10 50 6 -3 10 -26
10 -50z m12 -256 c4 -157 3 -166 -14 -161 -16 4 -18 18 -18 166 0 90 3 166 7
170 16 16 21 -19 25 -175z m168 11 c0 -5 -4 -10 -10 -10 -5 0 -10 5 -10 10 0
6 5 10 10 10 6 0 10 -4 10 -10z m-153 -272 c-3 -7 -5 -2 -5 12 0 14 2 19 5 13
2 -7 2 -19 0 -25z m213 -4 c0 -8 -9 -14 -19 -14 -14 0 -18 5 -14 19 6 22 33
17 33 -5z m423 6 c3 -11 1 -20 -4 -20 -5 0 -9 9 -9 20 0 11 2 20 4 20 2 0 6
-9 9 -20z m70 5 c4 -8 2 -17 -3 -20 -6 -4 -10 3 -10 14 0 25 6 27 13 6z m54
-7 c-3 -8 -6 -5 -6 6 -1 11 2 17 5 13 3 -3 4 -12 1 -19z m-457 -8 c0 -11 -4
-20 -10 -20 -5 0 -10 9 -10 20 0 11 5 20 10 20 6 0 10 -9 10 -20z m87 0 c1
-11 -2 -18 -8 -15 -11 7 -12 35 -1 35 4 0 8 -9 9 -20z m-263 -176 c9 -3 16
-12 16 -20 0 -17 -26 -8 -34 12 -6 16 -4 17 18 8z m179 -1 c-7 -2 -19 -2 -25
0 -7 3 -2 5 12 5 14 0 19 -2 13 -5z"/>
<path d="M1696 2214 c-4 -15 -5 -29 -2 -31 9 -9 26 8 26 27 0 30 -17 32 -24 4z"/>
<path d="M1310 2543 c8 -2 21 -6 28 -9 10 -3 9 -10 -3 -34 -15 -29 -15 -30 8
-30 21 0 23 -4 20 -32 -3 -25 -2 -30 6 -18 6 8 11 23 11 33 0 13 6 17 23 15
17 -2 23 -11 27 -38 6 -38 18 -30 26 17 3 15 9 33 15 39 5 6 7 19 3 28 -4 11
-1 16 10 16 13 0 16 -11 16 -50 0 -38 4 -50 15 -50 8 0 15 -9 15 -19 0 -10 6
-21 14 -24 11 -4 12 9 9 66 -3 40 -6 77 -8 83 -2 7 -48 11 -127 11 -67 1 -116
-1 -108 -4z"/>
<path d="M1150 2536 c0 -8 51 -13 56 -5 3 5 -9 9 -25 9 -17 0 -31 -2 -31 -4z"/>
<path d="M1142 2416 c-6 -22 -9 -42 -7 -44 7 -8 26 50 22 67 -2 9 -9 -2 -15
-23z"/>
<path d="M1323 2433 c-3 -10 -8 -21 -10 -25 -2 -4 3 -5 11 -2 9 3 16 15 16 25
0 24 -9 25 -17 2z"/>
<path d="M1402 2425 c0 -16 2 -22 5 -12 2 9 2 23 0 30 -3 6 -5 -1 -5 -18z"/>
<path d="M1360 2355 c-7 -8 -21 -15 -32 -15 -19 0 -20 -5 -13 -96 4 -53 8
-103 9 -112 0 -10 -8 -18 -19 -20 -16 -2 -27 11 -53 60 l-32 63 6 -66 c5 -56
3 -67 -10 -72 -21 -8 -23 -3 -35 108 -14 118 -15 115 12 115 19 0 29 -12 52
-61 16 -33 32 -62 36 -64 3 -3 2 19 -3 47 -5 29 -8 62 -5 75 4 21 1 23 -37 23
-64 0 -88 -10 -83 -32 4 -15 2 -17 -7 -8 -10 8 -12 4 -9 -17 3 -16 5 -36 6
-45 1 -9 5 -14 10 -11 5 3 6 -4 2 -17 -5 -17 -4 -21 6 -15 11 6 12 5 2 -6 -7
-7 -13 -24 -13 -37 0 -13 -4 -21 -9 -17 -5 3 -13 1 -16 -5 -4 -6 -1 -9 7 -8 9
2 13 -8 13 -29 0 -17 3 -29 7 -27 4 2 9 0 13 -6 4 -6 11 -8 16 -4 6 3 5 -3 -3
-15 -14 -23 -33 -29 -25 -8 3 8 0 14 -7 14 -10 0 -12 -35 -10 -146 2 -80 3
-149 4 -153 0 -5 31 -8 69 -8 l69 0 28 83 c40 121 62 167 78 167 9 0 29 -39
55 -107 23 -60 46 -117 51 -128 9 -18 10 -18 4 3 -3 13 0 30 7 38 10 12 9 13
-7 8 -18 -7 -18 -6 1 16 l20 23 -24 -13 c-16 -8 -21 -8 -16 -1 4 7 1 19 -7 28
-11 14 -11 16 1 8 11 -6 13 -4 8 9 -5 13 -3 17 7 13 8 -3 17 1 20 9 3 9 -3 16
-19 20 -21 5 -22 9 -13 35 11 31 23 37 31 17 3 -7 4 3 4 22 -2 34 -19 65 -30
54 -3 -3 -14 -1 -24 6 -14 9 -15 10 -1 6 13 -4 16 2 14 29 l-3 34 26 -17 26
-17 -27 33 c-42 51 -35 145 14 201 18 20 19 22 3 10 -11 -9 -27 -20 -35 -24
-12 -6 -13 -5 -2 6 18 20 15 28 -13 24 -14 -1 -28 1 -30 6 -3 4 -19 6 -36 4
-26 -4 -29 -2 -19 10 7 8 10 15 7 15 -2 0 -10 -7 -17 -15z m-202 -100 c-3 -3
-9 2 -12 12 -6 14 -5 15 5 6 7 -7 10 -15 7 -18z m130 -308 c2 -19 -1 -27 -12
-27 -11 0 -16 10 -16 31 0 38 24 35 28 -4z m-59 -37 c-7 -5 -16 -7 -20 -4 -10
6 -17 54 -8 54 4 0 10 -10 12 -22 3 -19 5 -17 6 7 l3 30 10 -29 c8 -22 7 -30
-3 -36z m-58 33 c0 -5 2 -18 5 -30 2 -13 -1 -23 -6 -23 -12 0 -30 41 -23 53 2
4 8 7 14 7 5 0 9 -3 10 -7z"/>
<path d="M1525 2270 c-4 -6 -4 -14 -1 -17 3 -4 6 -1 6 5 0 15 26 16 33 2 3 -6
4 -5 3 2 -3 17 -32 22 -41 8z"/>
<path d="M1540 2150 c-9 -6 -10 -10 -3 -10 6 0 15 5 18 10 8 12 4 12 -15 0z"/>
<path d="M1373 1940 c-6 -14 -25 -71 -44 -127 l-33 -103 -91 -1 c-89 -1 -123
-4 -131 -12 -5 -4 71 -76 130 -123 l39 -30 -32 -110 c-18 -60 -35 -118 -38
-128 -4 -14 11 -7 53 26 33 24 80 59 106 77 56 37 53 38 172 -51 43 -32 80
-57 82 -55 3 2 -12 58 -32 123 l-36 119 33 25 c77 58 149 121 149 130 0 5 -53
11 -117 12 l-117 3 -36 110 c-50 151 -46 144 -57 115z"/>
<path d="M1490 1860 c-9 -6 -10 -10 -3 -10 6 0 15 5 18 10 8 12 4 12 -15 0z"/>
<path d="M1133 1579 c-1 -10 3 -22 9 -25 7 -5 8 -2 3 6 -5 9 -4 11 4 6 9 -6 9
-11 1 -21 -7 -8 -9 -19 -5 -25 3 -5 2 -10 -3 -10 -12 0 -8 -30 7 -59 8 -14 9
-21 2 -17 -15 10 -14 -7 2 -23 10 -10 8 -11 -7 -5 -16 6 -17 5 -7 -15 7 -12 9
-31 5 -44 -10 -29 -12 -57 -5 -57 3 0 20 51 36 113 17 61 31 117 33 123 1 5
-15 24 -36 41 -33 27 -38 28 -39 12z"/>
<path d="M1480 1330 c13 -9 13 -11 0 -21 -13 -9 -12 -10 3 -5 10 3 21 6 24 6
3 0 0 7 -7 15 -7 8 -18 15 -24 15 -6 0 -4 -5 4 -10z"/>
<path d="M1807 893 c-3 -27 -2 -75 2 -108 8 -56 8 -53 10 48 0 59 -1 107 -3
107 -2 0 -6 -21 -9 -47z"/>
<path d="M1482 888 c-25 -32 -24 -88 2 -88 7 0 11 19 11 50 0 28 -1 50 -1 50
-1 0 -6 -6 -12 -12z"/>
</g>
</svg>
