<?xml version="1.0" standalone="no"?>
<!DOCTYPE svg PUBLIC "-//W3C//DTD SVG 20010904//EN"
 "http://www.w3.org/TR/2001/REC-SVG-20010904/DTD/svg10.dtd">
<svg version="1.0" xmlns="http://www.w3.org/2000/svg"
 width="1000.000000pt" height="1000.000000pt" viewBox="0 0 1000.000000 1000.000000"
 preserveAspectRatio="xMidYMid meet">

<g transform="translate(0.000000,1000.000000) scale(0.100000,-0.100000)"
fill="#000000" stroke="none">
<path d="M4480 8468 c-415 -5 -757 -11 -759 -14 -3 -3 1 -9 8 -13 7 -5 10 -14
6 -21 -4 -6 -8 -26 -9 -43 -1 -29 2 -32 28 -32 26 0 29 -3 30 -37 1 -22 -4
-40 -11 -43 -7 -2 -10 -11 -7 -20 4 -10 0 -15 -10 -15 -19 0 -22 -20 -3 -20 6
0 4 -5 -6 -11 -9 -6 -15 -14 -12 -19 3 -5 1 -11 -5 -15 -6 -4 -10 7 -10 26 0
28 -10 16 -81 -97 -85 -134 -203 -366 -197 -385 2 -6 14 11 27 38 13 26 32 60
42 74 10 14 34 57 54 94 19 38 47 83 60 101 14 18 25 37 25 42 0 5 7 16 17 23
9 8 14 10 12 4 -31 -72 -53 -115 -60 -115 -5 0 -9 -4 -9 -10 0 -22 -51 -118
-66 -124 -11 -4 -14 -13 -10 -30 4 -16 -1 -32 -14 -49 -11 -14 -17 -32 -14
-41 4 -10 0 -18 -10 -22 -9 -3 -13 -11 -9 -16 3 -6 6 -41 7 -78 1 -38 -2 -63
-6 -57 -13 21 -19 0 -8 -28 16 -41 15 -132 -1 -152 -12 -15 -11 -16 9 -11 19
5 21 4 12 -7 -6 -8 -10 -31 -9 -52 3 -34 1 -38 -19 -37 -28 1 -29 -22 -1 -29
18 -5 21 -11 15 -41 -4 -20 -2 -37 4 -41 17 -11 12 -116 -6 -130 -15 -10 -15
-13 -1 -27 13 -13 15 -63 16 -343 0 -223 -3 -333 -11 -342 -7 -9 -7 -13 0 -13
15 0 15 -463 0 -496 -6 -13 -15 -24 -20 -24 -4 0 -8 -9 -8 -20 0 -11 5 -20 10
-20 6 0 10 9 10 20 0 11 4 20 9 20 5 0 9 -30 9 -66 0 -47 -3 -67 -14 -71 -17
-6 -19 -30 -3 -35 6 -2 13 -39 15 -85 3 -63 1 -83 -11 -93 -19 -16 -19 -30 -1
-30 12 0 15 -25 18 -132 2 -73 0 -137 -3 -141 -3 -4 -4 -41 -1 -81 3 -48 1
-76 -7 -80 -15 -10 -14 -36 2 -36 8 0 14 -15 15 -40 3 -42 -7 -50 -28 -25 -7
9 -15 13 -18 10 -3 -2 6 -13 18 -23 23 -19 23 -20 26 -278 1 -180 -2 -263 -10
-273 -8 -11 -8 -15 2 -18 6 -3 12 -13 12 -24 0 -12 -5 -16 -15 -13 -8 4 -15
12 -15 20 0 8 -5 14 -11 14 -5 0 -7 -5 -3 -12 4 -6 6 -70 5 -142 -1 -72 -2
-138 -1 -146 1 -8 2 -27 2 -43 1 -21 4 -25 14 -16 8 6 10 16 6 23 -11 17 -9
207 3 203 13 -5 15 -127 2 -127 -5 0 -4 -7 3 -15 13 -16 18 -244 5 -265 -4 -6
-1 -17 5 -25 10 -12 10 -18 1 -29 -7 -8 -8 -17 -3 -20 12 -7 13 -298 1 -313
-6 -6 -6 -14 -1 -17 11 -7 15 -146 4 -146 -4 0 -13 5 -20 12 -14 14 -15 12
-12 -77 2 -90 10 -99 10 -12 0 50 3 67 14 67 17 0 20 -108 3 -128 -7 -9 -7
-16 -1 -20 14 -9 18 -322 4 -322 -5 0 -9 19 -9 43 1 23 -1 72 -5 110 -3 41 -2
67 4 67 13 0 13 33 1 45 -5 6 -11 21 -13 35 -4 25 -8 -375 -7 -695 1 -93 0
-192 0 -220 -1 -27 -1 -158 -2 -290 l0 -240 31 -25 c28 -24 43 -49 19 -34 -23
14 10 -32 53 -72 29 -28 65 -49 112 -65 62 -21 75 -31 114 -81 29 -38 58 -62
84 -73 23 -9 38 -21 35 -28 -3 -8 12 -12 49 -13 30 -1 60 -7 68 -13 8 -7 20
-11 28 -10 7 2 45 -3 83 -9 163 -27 338 -35 770 -36 248 0 497 3 555 6 58 4
162 10 233 14 70 4 127 10 127 14 0 4 11 10 25 12 18 4 25 1 25 -11 0 -13 2
-13 9 -2 5 7 14 10 20 7 6 -4 11 -2 11 3 0 6 7 11 15 11 8 0 15 5 15 11 0 6 9
8 23 4 16 -5 18 -4 8 4 -12 8 -9 11 15 16 54 12 83 25 39 18 -72 -13 -99 -10
-103 11 -3 11 0 16 7 12 6 -4 18 -1 25 7 11 11 12 17 3 27 -9 10 -9 12 3 8 8
-3 21 -15 27 -29 9 -17 13 -19 13 -7 0 9 8 19 18 21 16 4 16 5 0 6 -10 0 -18
8 -18 16 0 18 12 19 29 2 10 -10 11 -7 6 16 -8 32 10 38 20 6 5 -15 10 -17 19
-10 7 6 16 8 19 4 4 -3 7 -1 7 6 0 8 -7 11 -15 7 -9 -3 -15 0 -15 9 0 8 14 17
35 21 57 10 52 25 -6 19 -29 -4 -57 -9 -61 -11 -4 -3 -8 0 -8 6 0 7 -7 5 -16
-4 -18 -19 -30 -20 -40 -5 -4 8 -9 7 -15 -2 -4 -7 -11 -10 -16 -6 -9 10 17 28
37 25 8 -2 20 0 25 3 6 3 37 11 70 18 125 27 236 68 216 80 -8 5 6 15 39 27
l52 19 0 65 c0 36 -3 73 -7 82 -4 9 -4 22 0 28 4 6 3 16 -2 23 -12 16 -1 143
12 140 6 -2 10 3 10 10 0 6 -9 11 -20 9 -15 -2 -17 -1 -6 6 8 6 10 15 5 23
-10 17 -13 79 -4 79 4 0 4 19 0 41 -4 23 -5 54 -1 68 4 14 7 46 5 71 -1 25 3
51 9 58 7 8 7 16 1 20 -12 9 -12 172 0 172 6 0 5 5 -2 12 -13 13 -17 68 -4 68
4 0 13 -5 20 -12 12 -12 13 -11 16 24 1 7 -8 13 -19 13 -13 0 -20 6 -19 17 1
10 -1 18 -5 18 -4 0 -8 14 -8 30 0 31 11 40 20 18 3 -8 6 -6 6 5 1 9 -3 17 -9
17 -5 0 -10 18 -10 40 0 27 4 40 14 40 7 0 16 10 19 21 4 17 3 19 -6 10 -6 -6
-14 -11 -17 -11 -13 0 -10 234 3 242 9 5 9 12 1 25 -5 10 -7 35 -4 56 4 21 4
40 0 42 -4 2 -5 57 -2 122 2 65 4 155 4 201 -1 49 3 82 9 82 6 0 8 9 4 21 -10
30 -14 203 -4 188 4 -7 7 24 5 70 -1 71 1 82 15 78 17 -5 17 -7 -18 147 -5 25
-4 28 11 23 15 -6 16 -1 12 33 -3 26 0 40 7 40 7 0 6 4 -2 9 -12 8 -12 12 2
26 16 15 17 14 18 -17 1 -18 1 -40 0 -48 -2 -10 3 -8 13 6 12 17 13 29 4 62
-6 23 -13 40 -17 38 -10 -6 -9 68 1 75 5 3 4 17 -3 32 -9 19 -9 30 -1 40 6 7
9 23 5 35 -7 29 11 28 25 0 11 -23 11 -23 11 3 1 15 -6 32 -14 39 -10 8 -12
16 -6 19 6 4 7 20 2 43 -5 20 -6 40 -3 43 9 9 9 45 0 45 -4 0 -8 5 -8 11 0 5
6 7 13 4 6 -4 2 2 -10 13 -26 23 -30 34 -10 26 10 -3 14 5 15 30 1 19 -2 38
-7 40 -10 6 -2 56 11 73 6 7 6 19 0 30 -5 10 -7 23 -5 30 2 6 -1 14 -7 18 -7
4 -3 17 11 36 16 22 17 30 7 34 -15 6 -21 55 -7 55 5 0 9 7 9 15 0 8 -4 15
-10 15 -5 0 -10 5 -10 11 0 5 5 7 10 4 6 -4 10 13 10 44 0 39 -4 53 -21 65
-12 8 -18 19 -14 26 6 9 9 9 15 0 5 -8 9 -7 14 5 4 12 0 18 -14 22 -24 6 -27
25 -4 21 10 -2 19 3 21 10 3 6 -3 12 -12 12 -13 0 -14 3 -3 23 15 27 18 96 4
94 -5 -1 -12 6 -14 16 -3 13 1 17 15 15 13 -2 19 4 21 22 2 23 1 24 -11 8 -22
-27 -41 -23 -22 5 13 21 13 26 0 43 -18 24 -20 51 -2 36 16 -14 16 70 -1 90
-9 11 -9 17 0 26 9 9 7 17 -7 32 -16 17 -16 20 -2 15 13 -6 15 -2 11 19 -3 20
0 26 13 27 12 1 10 4 -7 9 -20 6 -21 8 -6 9 20 1 20 1 0 16 -27 20 -44 18 -44
-5 0 -11 -4 -20 -10 -20 -5 0 -7 7 -4 15 4 8 1 21 -5 29 -9 11 -4 12 29 6 44
-8 42 -12 44 72 1 27 -2 48 -6 48 -5 0 -8 8 -8 18 0 9 -7 29 -14 44 -10 19
-11 30 -4 34 6 4 13 2 17 -4 4 -7 11 -4 20 9 7 12 8 18 2 14 -7 -4 -10 5 -7
27 2 18 -3 43 -11 55 -8 12 -12 26 -9 31 3 5 -3 17 -14 27 -11 10 -20 23 -20
29 0 8 2 8 8 0 13 -19 42 -25 42 -9 0 8 -6 15 -14 15 -7 0 -20 7 -27 16 -12
15 -11 16 8 10 12 -4 24 -2 28 4 3 5 -1 10 -10 10 -9 0 -13 5 -10 10 4 6 11 8
16 5 5 -4 9 1 9 9 0 18 -11 21 -25 6 -15 -14 -10 97 5 115 9 10 9 15 1 15 -6
0 -11 8 -11 17 0 9 -8 25 -17 36 -17 19 -17 20 5 15 18 -5 22 -2 22 16 0 12
-6 28 -12 35 -11 10 -9 15 7 28 16 13 17 15 3 10 -10 -4 -18 -2 -18 3 0 6 6
10 14 10 11 0 13 7 6 29 -4 16 -6 32 -3 35 3 3 -2 9 -11 12 -10 4 -13 10 -8
13 5 3 12 19 16 36 l8 30 -26 -28 c-14 -15 -28 -27 -31 -27 -12 0 -3 17 29 51
26 27 33 41 29 62 -7 36 -19 42 -27 13 -7 -30 -35 -42 -43 -18 -4 9 -11 20
-17 24 -8 5 -7 8 1 8 6 0 15 -4 18 -10 3 -5 13 -10 22 -10 12 0 10 5 -8 21
-23 20 -23 21 -3 15 17 -5 23 -2 27 16 7 24 -3 42 -10 21 -3 -7 -12 -13 -20
-13 -13 0 -13 3 -3 15 7 8 19 15 26 15 8 0 14 7 14 15 0 8 5 15 10 15 6 0 10
4 10 9 0 13 -55 8 -74 -8 -11 -9 -7 4 11 41 16 30 33 53 39 51 6 -2 17 3 24
12 9 11 9 15 1 15 -8 0 -10 8 -6 20 4 12 2 27 -4 34 -6 7 -10 24 -9 36 2 13
-3 25 -11 28 -8 3 -11 0 -7 -7 4 -6 4 -16 1 -21 -7 -11 -54 18 -55 34 0 5 7 3
15 -4 9 -7 19 -10 23 -6 4 4 -1 13 -11 20 -21 16 -22 26 -2 26 14 0 14 3 0 24
-16 25 -11 55 12 69 7 4 13 16 13 25 0 10 5 23 11 29 5 5 11 24 11 42 1 17 6
31 12 31 15 1 -36 39 -51 40 -7 0 -13 4 -13 9 0 5 -6 11 -12 14 -7 2 -1 2 13
0 31 -5 52 16 38 37 -8 13 -11 13 -23 -2 -16 -22 -30 -23 -22 -3 3 8 0 15 -6
15 -6 0 -4 8 5 18 10 10 17 22 17 27 0 5 -7 17 -17 27 -9 11 -11 18 -5 18 7 0
12 9 12 21 0 14 4 18 13 12 19 -12 49 -14 42 -3 -3 5 -13 10 -21 10 -12 0 -17
8 -16 30 0 3 3 21 6 40 6 34 6 34 -10 13 -12 -17 -20 -20 -39 -13 -13 5 -25 7
-26 5 -2 -1 -10 3 -17 11 -11 12 -10 15 2 20 9 3 13 10 10 15 -3 5 -9 7 -13 5
-4 -3 -24 12 -43 33 -29 30 -37 46 -38 82 -3 63 -2 64 20 38 l19 -24 1 23 c0
15 -8 26 -25 32 -22 8 -31 29 -26 62 0 4 -9 10 -20 13 -21 7 -21 16 -3 59 5
13 4 17 -3 13 -15 -9 -37 19 -30 38 4 8 2 17 -4 20 -5 4 -7 11 -4 16 4 5 -5
20 -19 32 -14 13 -23 27 -19 30 3 4 1 7 -5 7 -7 0 -12 7 -12 15 0 8 -4 15 -10
15 -5 0 -10 -5 -10 -11 0 -5 -5 -7 -10 -4 -6 4 -9 14 -8 23 2 11 -3 16 -14 14
-10 -2 -18 3 -18 10 0 10 -3 9 -9 -1 -8 -12 -12 -12 -25 -2 -9 7 -22 11 -31 8
-8 -4 -17 -2 -20 3 -4 6 0 10 8 10 8 0 27 11 43 25 30 26 81 45 122 45 15 0
22 6 22 18 0 11 9 27 20 37 10 9 19 20 18 24 -1 3 2 14 7 24 11 26 1 31 -55
28 -50 -2 -70 14 -27 22 36 7 -815 4 -1623 -5z m435 -38 c3 -5 -1 -10 -10 -10
-9 0 -13 5 -10 10 3 6 8 10 10 10 2 0 7 -4 10 -10z m1229 -348 c3 -5 -1 -9 -9
-9 -8 0 -12 4 -9 9 3 4 7 8 9 8 2 0 6 -4 9 -8z m116 -357 c10 -12 10 -15 -3
-15 -8 0 -20 7 -27 15 -10 12 -10 15 3 15 8 0 20 -7 27 -15z m-1335 -73 c-3
-3 -11 0 -18 7 -9 10 -8 11 6 5 10 -3 15 -9 12 -12z m1445 -42 c6 -11 7 -20 3
-20 -5 0 -14 9 -21 20 -7 11 -8 20 -2 20 5 0 14 -9 20 -20z m-20 -41 c0 -5
-11 -9 -25 -9 -14 0 -25 4 -25 9 0 5 11 9 25 9 14 0 25 -4 25 -9z m30 -79 c0
-5 -4 -10 -10 -10 -5 0 -10 5 -10 10 0 6 5 10 10 10 6 0 10 -4 10 -10z m-15
-129 c-3 -6 -11 -11 -17 -11 -6 0 -6 6 2 15 14 17 26 13 15 -4z m54 -15 c9
-10 8 -15 -4 -20 -8 -3 -15 -17 -15 -31 0 -26 -14 -33 -25 -14 -4 6 -13 8 -21
5 -8 -3 -11 0 -7 10 3 8 12 13 21 12 8 -2 17 3 19 10 3 6 -1 12 -7 12 -10 0
-10 4 0 15 15 19 24 19 39 1z m-45 -91 c3 -8 1 -15 -4 -15 -6 0 -10 7 -10 15
0 8 2 15 4 15 2 0 6 -7 10 -15z m-104 -35 c0 -5 -2 -10 -4 -10 -3 0 -8 5 -11
10 -3 6 -1 10 4 10 6 0 11 -4 11 -10z m80 -140 c0 -5 -5 -10 -11 -10 -5 0 -7
5 -4 10 3 6 8 10 11 10 2 0 4 -4 4 -10z m35 -50 c3 -5 2 -10 -4 -10 -5 0 -13
5 -16 10 -3 6 -2 10 4 10 5 0 13 -4 16 -10z m31 -55 c-8 -8 -17 -15 -21 -15
-4 0 -2 34 4 58 1 2 8 -4 17 -12 14 -14 14 -18 0 -31z m-36 -20 c0 -8 -4 -16
-9 -19 -5 -3 -8 5 -8 19 0 14 3 22 8 19 5 -3 9 -11 9 -19z m-1670 -13 c18 -14
21 -25 16 -45 -8 -34 -41 -44 -67 -21 -23 21 -24 47 -3 68 20 20 27 20 54 -2z
m429 -24 c-5 -18 -9 -34 -9 -35 0 -2 -4 -3 -9 -3 -5 0 -4 15 2 35 13 44 29 47
16 3z m111 -12 c-5 -8 -8 -20 -5 -28 10 -24 -18 -40 -41 -23 -18 13 -18 14 5
8 21 -5 23 -3 19 15 -3 12 -1 24 6 27 8 3 8 7 -1 11 -7 3 -13 10 -13 15 0 6 9
5 21 -1 15 -9 18 -15 9 -24z m-641 -17 c16 -47 14 -51 -19 -34 -38 20 -43 19
-35 -6 5 -14 3 -19 -3 -15 -12 7 -26 65 -18 73 3 3 17 -2 32 -12 26 -17 27
-17 21 4 -8 33 10 25 22 -10z m-93 -87 c-3 -3 -18 0 -32 7 -31 14 -42 8 -24
-14 7 -9 10 -18 8 -21 -10 -9 -50 56 -44 72 4 11 10 12 25 4 30 -16 40 -12 35
13 -3 13 3 7 16 -16 12 -22 19 -41 16 -45z m836 66 c-8 -8 -8 -15 -2 -23 14
-17 2 -45 -20 -45 -43 0 -48 48 -7 68 30 14 44 15 29 0z m1048 -57 c-6 -12
-15 -21 -21 -21 -10 0 -5 13 14 38 15 19 20 7 7 -17z m-954 -21 c-1 -16 -8
-35 -16 -42 -12 -11 -12 -11 0 5 18 24 -2 46 -25 27 -10 -8 -15 -9 -15 -2 0 9
38 36 56 42 1 0 1 -13 0 -30z m-1045 -12 c41 -23 52 -44 19 -35 -13 3 -25 -2
-34 -15 -8 -11 -16 -16 -19 -11 -10 15 -19 83 -12 83 4 0 25 -10 46 -22z m628
-7 c-13 -11 -26 -17 -29 -14 -6 6 30 33 43 33 5 0 -1 -9 -14 -19z m86 9 c-4
-6 -10 -8 -15 -5 -4 3 -10 -1 -13 -7 -2 -7 -8 -9 -13 -5 -5 4 -2 12 6 17 20
13 43 13 35 0z m5 -40 c0 -11 -4 -20 -10 -20 -5 0 -10 9 -10 20 0 11 5 20 10
20 6 0 10 -9 10 -20z m-85 -20 c10 -11 16 -20 13 -20 -3 0 -13 9 -23 20 -10
11 -16 20 -13 20 3 0 13 -9 23 -20z m115 10 c0 -5 -2 -10 -4 -10 -3 0 -8 5
-11 10 -3 6 -1 10 4 10 6 0 11 -4 11 -10z m178 -27 c58 -43 37 -84 -42 -81
-39 1 -42 2 -16 5 81 8 100 24 65 53 -12 10 -20 9 -42 -4 l-28 -17 25 21 24
22 -24 20 c-33 26 -4 12 38 -19z m-78 17 c13 -8 12 -11 -5 -24 -11 -8 -22 -12
-25 -10 -2 3 2 9 10 15 13 8 13 10 0 19 -8 5 -10 10 -5 10 6 0 17 -5 25 -10z
m-148 -40 c18 -11 29 -20 25 -20 -11 0 -67 29 -67 35 0 9 9 5 42 -15z m-412
-11 c0 -5 -4 -9 -10 -9 -5 0 -10 7 -10 16 0 8 5 12 10 9 6 -3 10 -10 10 -16z
m170 -4 c-7 -9 -15 -13 -17 -11 -7 7 7 26 19 26 6 0 6 -6 -2 -15z m1530 -5 c0
-5 -4 -10 -10 -10 -5 0 -10 5 -10 10 0 6 5 10 10 10 6 0 10 -4 10 -10z m-1225
-10 c3 -5 2 -10 -4 -10 -5 0 -13 5 -16 10 -3 6 -2 10 4 10 5 0 13 -4 16 -10z
m-465 -10 c0 -5 6 -10 14 -10 7 0 16 -9 19 -20 3 -11 13 -20 22 -20 12 0 15
-5 10 -17 -5 -15 -4 -16 6 -5 17 16 29 15 29 -1 0 -14 40 -37 65 -37 8 0 16
-4 19 -8 2 -4 -11 -6 -30 -4 -39 5 -47 -14 -11 -28 12 -5 15 -9 7 -9 -35 -2
-100 32 -106 55 -3 13 -10 22 -16 21 -11 -2 -59 79 -51 87 10 9 23 7 23 -4z
m352 -12 c-8 -8 -9 -15 -1 -25 9 -10 8 -13 -4 -13 -9 0 -19 -5 -23 -12 -5 -7
-2 -9 8 -6 8 4 15 1 16 -5 1 -7 4 -24 8 -39 8 -34 -7 -37 -36 -6 -24 26 -26
66 -5 74 8 4 15 15 15 25 0 11 7 19 17 19 13 0 14 -3 5 -12z m-938 -45 c3 -7
0 -22 -6 -33 -11 -18 -14 -16 -33 18 -12 20 -20 40 -18 44 5 11 51 -12 57 -29z
m986 21 c0 -14 -3 -14 -15 -4 -8 7 -15 14 -15 16 0 2 7 4 15 4 8 0 15 -7 15
-16z m380 6 c0 -5 -2 -10 -4 -10 -3 0 -8 5 -11 10 -3 6 -1 10 4 10 6 0 11 -4
11 -10z m-1078 -25 c-5 -30 21 -65 50 -65 10 0 18 -4 18 -9 0 -16 -20 -23 -33
-12 -7 5 -22 8 -34 5 -13 -4 -22 0 -26 10 -4 9 -2 16 4 16 7 0 9 10 5 24 -6
26 1 56 14 56 4 0 5 -11 2 -25z m218 0 c0 4 7 -1 16 -10 9 -9 28 -23 41 -32
13 -9 22 -18 19 -20 -6 -7 -116 58 -116 68 0 6 8 5 20 -1 11 -6 20 -8 20 -5z
m-445 -21 c-10 -16 -20 -63 -26 -122 -11 -105 -44 -194 -92 -246 -15 -16 -41
-48 -59 -72 -32 -42 -59 -61 -38 -26 24 39 80 114 80 106 0 -5 7 4 15 20 17
33 22 82 5 56 -9 -13 -10 -13 -10 0 0 8 -7 28 -15 44 -10 18 -12 33 -6 39 13
13 31 0 47 -37 l13 -31 1 38 c0 21 -5 48 -11 59 -9 16 -8 19 3 16 7 -3 18 -15
24 -27 7 -13 14 -19 17 -14 7 11 2 67 -7 81 -4 7 -2 12 3 12 6 0 11 7 11 16 0
8 -4 12 -10 9 -14 -8 -13 21 1 48 13 23 49 56 63 57 4 0 1 -12 -9 -26z m328
10 c40 -20 139 -95 133 -101 -2 -2 -32 9 -67 26 -35 16 -83 35 -106 42 -24 7
-43 13 -43 15 0 1 3 9 6 18 8 20 36 20 77 0z m632 -12 c20 -11 20 -11 -2 -12
-12 0 -25 5 -28 10 -5 8 -11 8 -20 0 -8 -7 -15 -7 -19 -1 -12 19 38 22 69 3z
m263 9 c15 -9 2 -22 -32 -35 -29 -10 -40 16 -13 31 26 15 28 15 45 4z m84 -18
c-19 -35 -51 -58 -64 -45 -9 9 -8 12 4 12 9 0 27 13 40 29 25 31 35 33 20 4z
m911 7 c3 -11 1 -20 -4 -20 -5 0 -9 9 -9 20 0 11 2 20 4 20 2 0 6 -9 9 -20z
m-2397 1 c-3 -4 1 -17 9 -27 13 -19 14 -19 29 1 13 17 15 17 16 4 0 -9 -11
-24 -24 -33 -24 -15 -25 -14 -35 15 -10 29 -8 49 5 49 3 0 3 -4 0 -9z m360
-13 c-1 -13 -6 -22 -9 -20 -4 1 -38 2 -77 2 -63 0 -70 2 -70 20 0 18 7 20 80
20 77 0 80 -1 76 -22z m239 11 c11 -17 -1 -21 -15 -4 -8 9 -8 15 -2 15 6 0 14
-5 17 -11z m1835 -34 c0 -13 -5 -27 -11 -31 -6 -3 -9 -16 -7 -28 2 -12 -4 -30
-13 -40 -17 -17 -18 -17 -16 18 1 20 8 38 15 41 6 2 12 21 12 40 0 22 4 34 10
30 6 -3 10 -17 10 -30z m-1136 0 c3 -8 1 -17 -4 -20 -6 -4 -10 1 -10 10 0 12
-5 15 -22 9 -20 -6 -21 -5 -10 9 15 17 37 13 46 -8z m-644 -5 c0 -5 -9 -10
-20 -10 -11 0 -20 5 -20 10 0 6 9 10 20 10 11 0 20 -4 20 -10z m-332 -17 c-21
-2 -57 -2 -80 0 -24 2 -7 4 37 4 44 0 63 -2 43 -4z m772 -3 c0 -5 -5 -10 -11
-10 -5 0 -7 5 -4 10 3 6 8 10 11 10 2 0 4 -4 4 -10z m-410 -10 c0 -5 -4 -10
-9 -10 -6 0 -13 5 -16 10 -3 6 1 10 9 10 9 0 16 -4 16 -10z m-503 -22 c-3 -8
-6 -5 -6 6 -1 11 2 17 5 13 3 -3 4 -12 1 -19z m1090 16 c-3 -3 -12 -4 -19 -1
-8 3 -5 6 6 6 11 1 17 -2 13 -5z m-547 -14 c0 -5 -4 -10 -10 -10 -5 0 -10 5
-10 10 0 6 5 10 10 10 6 0 10 -4 10 -10z m-287 -17 c-7 -2 -19 -2 -25 0 -7 3
-2 5 12 5 14 0 19 -2 13 -5z m1972 -92 c3 -5 1 -12 -5 -16 -5 -3 -10 1 -10 9
0 18 6 21 15 7z m-2260 -64 c-22 -53 -27 -46 -7 8 9 26 18 42 20 37 1 -5 -4
-25 -13 -45z m2285 23 c0 -5 -4 -10 -10 -10 -5 0 -10 5 -10 10 0 6 5 10 10 10
6 0 10 -4 10 -10z m-2069 -16 c11 -6 12 -67 2 -62 -5 2 -20 10 -35 17 -29 15
-58 9 -58 -11 0 -7 26 -26 57 -43 54 -28 57 -32 60 -73 4 -36 0 -47 -26 -72
-31 -31 -63 -37 -130 -24 -27 6 -31 10 -31 40 0 39 3 41 36 15 27 -21 59 -18
69 6 7 19 11 15 -51 46 -44 22 -53 31 -58 62 -14 72 35 120 112 110 24 -2 48
-7 53 -11z m272 -28 c6 -38 4 -40 -23 -26 -45 24 -52 9 -48 -110 l3 -110 -53
0 c-51 0 -53 1 -46 23 7 20 7 139 1 179 -5 28 -14 31 -46 15 -30 -15 -31 -15
-31 8 0 54 4 56 125 54 l113 -2 5 -31z m399 -82 l-4 -117 61 5 c57 4 61 3 61
-18 0 -28 -22 -34 -138 -34 -91 0 -93 0 -81 21 7 14 9 61 6 135 l-4 113 41 4
c23 2 46 4 51 5 6 1 9 -40 7 -114z m253 4 l0 -113 40 0 c22 0 49 4 61 8 19 7
20 4 16 -24 l-5 -32 -84 6 c-47 3 -95 2 -110 -4 -22 -8 -24 -7 -18 8 11 29 14
122 6 190 -8 70 -7 71 54 72 l40 1 0 -112z m325 72 c7 -22 10 -43 7 -47 -4 -3
-7 3 -7 15 0 23 -15 38 -24 23 -4 -5 0 -12 6 -14 7 -3 2 -6 -12 -6 -35 -2 -45
-11 -64 -55 l-16 -39 30 6 c29 6 43 -7 18 -16 -7 -2 4 -6 25 -8 20 -3 37 -1
37 3 0 4 5 8 12 8 9 0 9 -3 0 -12 -7 -7 -12 -21 -13 -32 0 -21 0 -21 -9 0 -7
19 -14 21 -57 16 -51 -5 -63 -14 -63 -47 0 -16 -7 -21 -31 -23 -27 -2 -30 0
-24 15 5 10 24 59 43 110 20 52 40 89 45 86 6 -4 7 -1 2 7 -4 7 -2 16 6 21 10
6 11 9 2 9 -7 0 -13 5 -13 10 0 6 20 10 43 10 42 0 44 -1 57 -40z m-730 8 c0
-22 -3 -23 -60 -20 l-60 4 0 -31 c0 -28 3 -30 43 -33 34 -2 43 -7 45 -25 3
-20 -1 -22 -40 -20 -43 2 -43 2 -46 -34 -3 -36 -3 -36 43 -42 26 -4 55 -2 65
3 23 12 30 2 19 -28 -8 -22 -12 -23 -114 -20 l-106 3 -2 133 -2 132 108 0
c104 0 107 -1 107 -22z m1540 2 c0 -5 -7 -10 -15 -10 -8 0 -15 5 -15 10 0 6 7
10 15 10 8 0 15 -4 15 -10z m-2316 -64 c-9 -15 -19 -25 -21 -22 -3 2 3 16 13
30 9 15 19 25 21 22 3 -2 -3 -16 -13 -30z m2251 14 c3 -5 1 -10 -4 -10 -6 0
-11 5 -11 10 0 6 2 10 4 10 3 0 8 -4 11 -10z m-785 -17 c0 -16 2 -16 11 -3 8
12 9 10 4 -9 -5 -16 -4 -21 4 -17 6 4 11 3 11 -3 0 -5 -5 -13 -10 -16 -6 -4
-8 -11 -5 -16 4 -5 2 -9 -3 -9 -5 0 -12 12 -14 28 -3 15 -9 35 -13 45 -4 10
-3 17 4 17 6 0 11 -8 11 -17z m760 -7 c0 -11 -19 -15 -25 -6 -3 5 1 10 9 10 9
0 16 -2 16 -4z m-2360 -40 c-5 -13 -23 -49 -40 -80 -17 -30 -28 -61 -24 -67 3
-6 0 -15 -7 -20 -11 -7 -11 -11 -2 -17 27 -17 31 -56 11 -132 -10 -41 -25
-102 -32 -135 -9 -40 -14 -50 -14 -30 -1 30 2 45 32 180 15 68 15 71 -5 98
l-20 27 32 67 c49 104 94 174 69 109z m92 -8 c-7 -7 -12 -8 -12 -2 0 14 12 26
19 19 2 -3 -1 -11 -7 -17z m1602 -34 c3 -8 2 -12 -4 -9 -6 3 -10 10 -10 16 0
14 7 11 14 -7z m776 -48 c0 -3 -4 -8 -10 -11 -5 -3 -10 -1 -10 4 0 6 5 11 10
11 6 0 10 -2 10 -4z m-790 -16 c11 -7 6 -10 -20 -10 -26 0 -31 3 -20 10 8 5
17 10 20 10 3 0 12 -5 20 -10z m45 0 c3 -5 2 -10 -4 -10 -5 0 -13 5 -16 10 -3
6 -2 10 4 10 5 0 13 -4 16 -10z m-1295 -14 c0 -2 -12 -11 -27 -20 l-28 -17 24
20 c23 21 31 25 31 17z m2010 -35 c0 -11 -4 -22 -9 -25 -5 -3 -8 6 -8 19 0 14
3 25 8 25 5 0 9 -9 9 -19z m-2413 -50 c1 -31 -3 -55 -13 -67 -14 -18 -15 -18
-5 3 6 12 10 32 10 45 -1 19 -2 20 -6 4 -3 -10 -14 -34 -24 -53 -22 -39 -24
-50 -6 -35 13 11 56 10 76 -2 7 -5 -4 -16 -31 -30 -62 -33 -83 -80 -83 -186 0
-64 5 -93 18 -115 18 -30 18 -30 13 -3 -3 14 -9 34 -12 45 -4 10 5 3 20 -16
14 -19 26 -31 26 -25 0 5 3 46 5 91 5 69 3 83 -11 91 -12 7 -13 11 -4 17 25
15 33 -15 32 -121 0 -68 4 -122 13 -148 19 -54 12 -58 -9 -4 -13 30 -20 38
-26 28 -5 -8 -2 -23 8 -39 16 -24 16 -25 0 -13 -10 8 -20 23 -24 35 -4 11 -15
28 -26 36 -30 26 -48 111 -37 186 9 66 26 115 40 115 5 0 13 9 19 20 10 19 10
20 -9 8 -11 -7 -23 -10 -26 -6 -15 15 48 188 68 188 1 0 3 -22 4 -49z m-117
-46 c0 -22 -16 -42 -26 -33 -2 3 -1 19 2 36 7 36 24 33 24 -3z m470 25 c0 -16
68 -191 90 -232 l21 -38 -51 -1 c-27 -1 -56 -2 -62 -3 -7 -1 -13 6 -14 14 -4
65 -1 61 -46 58 -40 -3 -43 -5 -46 -35 -3 -31 -6 -33 -43 -33 -44 0 -45 1 -25
38 19 34 76 205 76 226 0 13 11 16 50 16 28 0 50 -5 50 -10z m896 -5 c41 -12
53 -21 67 -50 52 -110 -16 -219 -135 -218 -91 1 -152 60 -151 143 2 109 94
162 219 125z m219 -120 l0 -135 -46 0 -47 0 7 33 c4 17 4 76 1 130 -3 54 -3
101 -1 103 2 2 23 4 45 4 l41 0 0 -135z m160 124 c-24 -7 -20 -7 18 -4 43 4
47 3 47 -17 0 -17 -3 -19 -12 -10 -7 7 -24 12 -39 12 -60 0 -77 -26 -37 -54
12 -9 18 -19 14 -23 -4 -5 -19 5 -32 20 -13 15 -24 23 -24 17 0 -6 -4 -8 -10
-5 -5 3 -10 -2 -10 -12 -1 -17 -1 -17 -11 1 -8 13 -8 25 0 42 13 29 43 43 91
42 l35 0 -30 -9z m-941 -11 c34 -15 45 -68 22 -103 -9 -14 -22 -25 -28 -25 -6
0 -2 -10 9 -22 11 -13 28 -38 39 -55 10 -18 22 -33 26 -33 4 0 8 -4 8 -10 0
-11 -80 -13 -95 -2 -6 4 -23 25 -40 47 -53 73 -70 73 -61 0 l6 -55 -47 0 -48
0 0 135 0 135 92 0 c51 0 103 -5 117 -12z m316 -18 c0 -28 -1 -29 -27 -19 -51
19 -56 9 -51 -111 l4 -110 -52 0 c-52 0 -53 0 -46 28 4 15 6 65 4 111 l-4 83
-39 -5 c-35 -5 -39 -3 -39 17 0 13 3 26 7 29 3 4 60 7 125 7 l118 0 0 -30z
m556 -76 c-9 -9 -20 -14 -23 -10 -4 3 2 13 13 20 25 18 31 12 10 -10z m902
-17 c5 -24 -15 -21 -21 4 -3 13 -1 19 6 16 7 -2 13 -11 15 -20z m-841 7 c-3
-3 -12 -4 -19 -1 -8 3 -5 6 6 6 11 1 17 -2 13 -5z m803 -4 c0 -5 -2 -10 -4
-10 -3 0 -8 5 -11 10 -3 6 -1 10 4 10 6 0 11 -4 11 -10z m-720 -31 c0 -3 -6
-6 -14 -6 -8 0 -11 8 -8 20 4 14 7 16 13 5 5 -7 9 -16 9 -19z m-105 11 c3 -5
-1 -10 -9 -10 -8 0 -18 5 -21 10 -3 6 1 10 9 10 8 0 18 -4 21 -10z m45 -15 c7
-8 8 -15 2 -15 -5 0 -15 7 -22 15 -7 8 -8 15 -2 15 5 0 15 -7 22 -15z m830 -3
c0 -13 -12 -22 -22 -16 -10 6 -1 24 13 24 5 0 9 -4 9 -8z m-772 -42 c-5 -17
-20 -35 -32 -41 -20 -11 -20 -11 2 10 12 12 22 31 22 41 0 11 4 20 9 20 6 0 6
-12 -1 -30z m-1628 -40 c0 -21 -4 -42 -10 -45 -17 -11 -11 -22 11 -21 12 1 24
-4 26 -11 3 -7 -3 -9 -16 -6 -29 7 -53 -15 -45 -41 6 -21 6 -21 -9 -1 -11 15
-12 24 -4 43 7 15 7 26 1 30 -18 12 -14 56 8 79 27 29 38 21 38 -27z m1540 0
c3 -4 12 -10 20 -13 8 -3 -2 -6 -22 -6 -28 -1 -36 3 -32 13 3 8 -4 16 -20 20
-14 3 -26 11 -26 16 0 9 71 -17 80 -30z m-65 0 c3 -5 1 -10 -4 -10 -6 0 -11 5
-11 10 0 6 2 10 4 10 3 0 8 -4 11 -10z m-1876 -162 c33 -81 88 -207 157 -355
18 -40 36 -73 39 -73 4 0 5 92 3 205 -2 113 0 205 3 205 3 0 11 -11 17 -25 6
-14 30 -45 52 -69 l40 -43 0 -340 c0 -187 -3 -343 -6 -346 -19 -19 -53 32
-133 191 -48 97 -98 204 -111 237 -13 33 -27 64 -32 69 -8 10 -13 -238 -8
-396 2 -82 1 -85 -47 -72 -11 3 -24 15 -27 27 -6 26 2 37 14 17 5 -8 12 -12
15 -8 3 3 -1 13 -10 22 -14 14 -17 67 -22 426 -5 351 -3 410 9 410 8 0 28 -33
47 -82z m401 68 c0 -3 -4 -8 -10 -11 -5 -3 -10 -1 -10 4 0 6 5 11 10 11 6 0
10 -2 10 -4z m2220 -36 c0 -5 -4 -10 -10 -10 -5 0 -10 5 -10 10 0 6 5 10 10
10 6 0 10 -4 10 -10z m-2088 -21 c24 -13 51 -74 43 -99 -4 -12 2 -27 15 -40
17 -17 18 -21 5 -26 -20 -8 -45 13 -45 37 0 24 -19 34 -26 15 -3 -9 -12 -16
-20 -16 -8 0 -14 -6 -14 -14 0 -8 -6 -16 -14 -19 -21 -8 -71 8 -68 22 1 7 -2
10 -7 7 -12 -8 -33 19 -36 47 -2 12 -6 31 -10 42 -5 12 9 3 33 -22 29 -32 47
-43 68 -43 42 1 66 23 62 57 -4 37 -33 43 -42 8 -4 -14 -11 -23 -16 -20 -16
10 -12 24 15 50 28 28 29 29 57 14z m58 -20 c15 -28 5 -23 -15 7 -9 15 -12 23
-6 20 6 -4 16 -16 21 -27z m1914 -24 c-7 -16 -24 -21 -24 -6 0 8 7 13 27 20 1
1 0 -6 -3 -14z m246 5 c0 -5 -5 -10 -11 -10 -5 0 -7 5 -4 10 3 6 8 10 11 10 2
0 4 -4 4 -10z m28 -45 c-3 -3 -9 2 -12 12 -6 14 -5 15 5 6 7 -7 10 -15 7 -18z
m-1609 -11 c2 -2 -119 -5 -270 -6 -279 -2 -281 -3 -34 -17 l140 -8 -195 -2
c-197 -1 -225 4 -213 35 4 11 55 12 286 8 155 -4 284 -8 286 -10z m639 9 c-27
-2 -69 -2 -95 0 -27 2 -5 3 47 3 52 0 74 -1 48 -3z m-178 -33 c0 -5 -4 -10
-10 -10 -5 0 -10 5 -10 10 0 6 5 10 10 10 6 0 10 -4 10 -10z m-553 -6 c-3 -3
-12 -4 -19 -1 -8 3 -5 6 6 6 11 1 17 -2 13 -5z m-52 -34 c-3 -5 -13 -10 -21
-10 -8 0 -14 5 -14 10 0 6 9 10 21 10 11 0 17 -4 14 -10z m95 0 c3 -1 -4 -5
-15 -10 -19 -8 -19 -9 2 -9 12 -1 24 5 26 12 4 9 6 9 6 0 2 -23 -51 -38 -98
-28 -22 6 -22 7 -7 24 14 16 58 21 86 11z m-515 -26 c32 8 31 6 -5 -46 -114
-164 -46 -408 136 -484 96 -40 240 -10 317 67 20 21 37 33 37 28 0 -5 -9 -18
-19 -28 -11 -11 -16 -23 -13 -27 4 -4 2 -4 -4 -1 -6 4 -22 -5 -34 -18 -26 -28
-17 -34 11 -9 17 15 18 15 16 -4 0 -11 -5 -18 -11 -15 -5 4 -7 -1 -3 -10 3 -9
2 -19 -3 -22 -13 -8 -13 -75 0 -75 6 0 10 7 10 16 0 8 4 13 9 10 16 -10 41 5
41 25 0 10 5 19 10 19 24 0 6 -32 -33 -59 -96 -66 -242 -89 -352 -56 -224 68
-356 350 -286 609 20 71 31 86 68 86 12 0 25 4 28 10 4 6 15 4 30 -6 16 -10
34 -14 50 -10z m505 -29 c0 -8 -5 -15 -11 -15 -8 0 -8 -4 1 -15 6 -8 10 -20 8
-26 -2 -6 -12 0 -22 15 -14 22 -15 30 -5 42 15 18 29 18 29 -1z m145 -55 c3
-5 1 -10 -4 -10 -6 0 -11 5 -11 10 0 6 2 10 4 10 3 0 8 -4 11 -10z m15 -84 c0
-11 -19 -15 -25 -6 -3 5 1 10 9 10 9 0 16 -2 16 -4z m560 -26 c0 -5 -4 -10
-10 -10 -5 0 -10 5 -10 10 0 6 5 10 10 10 6 0 10 -4 10 -10z m790 0 c0 -5 -5
-10 -11 -10 -5 0 -7 5 -4 10 3 6 8 10 11 10 2 0 4 -4 4 -10z m-1105 -50 c3 -5
1 -10 -4 -10 -6 0 -11 5 -11 10 0 6 2 10 4 10 3 0 8 -4 11 -10z m-325 -20 c0
-5 -4 -10 -10 -10 -5 0 -10 5 -10 10 0 6 5 10 10 10 6 0 10 -4 10 -10z m325
-20 c3 -5 -1 -10 -10 -10 -9 0 -13 5 -10 10 3 6 8 10 10 10 2 0 7 -4 10 -10z
m1292 -32 c-3 -8 -6 -5 -6 6 -1 11 2 17 5 13 3 -3 4 -12 1 -19z m-1637 -8 c0
-5 -2 -10 -4 -10 -3 0 -8 5 -11 10 -3 6 -1 10 4 10 6 0 11 -4 11 -10z m8 -61
c-2 -6 -8 -10 -13 -10 -5 0 -11 4 -13 10 -2 6 4 11 13 11 9 0 15 -5 13 -11z
m17 -89 c3 -5 -1 -10 -10 -10 -9 0 -13 5 -10 10 3 6 8 10 10 10 2 0 7 -4 10
-10z m290 0 c3 -5 -1 -10 -9 -10 -9 0 -16 5 -16 10 0 6 4 10 9 10 6 0 13 -4
16 -10z m-395 -60 c0 -5 -4 -10 -10 -10 -5 0 -10 5 -10 10 0 6 5 10 10 10 6 0
10 -4 10 -10z m1425 -10 c-3 -5 -11 -10 -16 -10 -6 0 -7 5 -4 10 3 6 11 10 16
10 6 0 7 -4 4 -10z m-1355 -13 c0 -2 -10 -12 -21 -23 -22 -19 -22 -19 -10 4
10 18 31 31 31 19z m290 -67 c0 -5 -2 -10 -4 -10 -3 0 -8 5 -11 10 -3 6 -1 10
4 10 6 0 11 -4 11 -10z m1337 -302 c-3 -8 -6 -5 -6 6 -1 11 2 17 5 13 3 -3 4
-12 1 -19z m-2132 -18 c3 -5 -3 -10 -15 -10 -11 0 -23 -7 -26 -15 -8 -20 13
-45 32 -38 16 6 19 -12 4 -22 -13 -8 -46 11 -54 31 -13 34 41 83 59 54z m90 0
c3 -5 -1 -10 -9 -10 -19 0 -21 -16 -3 -24 10 -5 10 -7 0 -12 -18 -8 -16 -24 2
-24 8 0 15 -5 15 -11 0 -6 -10 -9 -22 -7 -18 2 -24 11 -26 36 -2 19 -1 40 2
48 6 16 32 19 41 4z m91 -43 c1 -30 -1 -35 -12 -26 -11 9 -14 7 -14 -6 0 -35
-14 -4 -17 36 -2 37 0 40 20 37 18 -2 22 -10 23 -41z m80 18 c3 -14 10 -25 15
-25 5 0 11 11 15 25 3 14 10 25 15 25 8 0 -14 -67 -26 -79 -6 -5 -7 -5 -28 42
-9 20 -12 37 -7 37 5 0 12 -11 16 -25z m131 -21 c-3 -3 -12 -4 -19 -1 -8 3 -5
6 6 6 11 1 17 -2 13 -5z m3 -34 c13 -8 13 -10 -2 -10 -9 0 -20 5 -23 10 -8 13
5 13 25 0z m1690 -80 c0 -5 -4 -10 -10 -10 -5 0 -10 5 -10 10 0 6 5 10 10 10
6 0 10 -4 10 -10z m-1799 -46 c11 -14 10 -19 -7 -33 -11 -9 -19 -22 -16 -29 2
-6 -1 -12 -7 -12 -6 0 -11 17 -11 38 0 53 15 67 41 36z m-1101 -34 c0 -20 -5
-30 -15 -30 -18 0 -20 31 -3 48 17 17 18 16 18 -18z m1190 -10 c0 -4 -6 -10
-13 -13 -7 -3 -13 3 -13 13 0 10 6 16 13 13 7 -3 13 -9 13 -13z m132 -152 c-7
-7 -12 -8 -12 -2 0 6 3 14 7 17 3 4 9 5 12 2 2 -3 -1 -11 -7 -17z m-266 1 c3
-6 -8 -37 -25 -70 -20 -39 -31 -74 -31 -102 0 -50 -33 -111 -103 -192 -46 -52
-87 -72 -87 -42 0 22 58 132 79 151 12 11 5 -10 -21 -59 -41 -77 -44 -102 -11
-69 59 59 113 159 113 208 0 22 11 53 30 83 48 76 36 110 -20 56 -15 -16 -54
-48 -86 -72 -72 -54 -139 -133 -178 -209 -16 -31 -31 -51 -33 -45 -10 28 82
178 152 248 90 92 199 148 221 114z m-167 -201 c-63 -96 -180 -223 -200 -216
-8 3 -16 13 -18 24 -3 15 -1 16 12 6 8 -7 22 -9 32 -6 22 9 169 205 192 257
11 24 20 34 27 27 6 -6 -10 -39 -45 -92z m361 88 c0 -3 -4 -8 -10 -11 -5 -3
-10 -1 -10 4 0 6 5 11 10 11 6 0 10 -2 10 -4z m-30 -45 c0 -6 -4 -13 -10 -16
-5 -3 -10 1 -10 9 0 9 5 16 10 16 6 0 10 -4 10 -9z m103 -6 c-3 -9 -8 -14 -10
-11 -3 3 -2 9 2 15 9 16 15 13 8 -4z m-203 -14 c0 -11 -16 -32 -35 -47 -41
-31 -48 -59 -12 -48 12 3 28 11 35 17 7 5 15 7 18 5 7 -8 -60 -48 -81 -48 -15
0 -17 6 -12 41 8 63 87 135 87 80z m68 -43 c-9 -24 -8 -33 0 -36 13 -4 6 -22
-7 -22 -13 0 -18 65 -6 78 19 20 24 12 13 -20z m142 12 c0 -5 -4 -10 -10 -10
-5 0 -10 5 -10 10 0 6 5 10 10 10 6 0 10 -4 10 -10z m43 -25 c-3 -9 -8 -14
-10 -11 -3 3 -2 9 2 15 9 16 15 13 8 -4z m-40 -75 c-6 -24 -23 -37 -23 -18 0
12 18 38 26 38 1 0 0 -9 -3 -20z m-143 -79 c0 -4 -19 -16 -43 -25 -60 -23
-147 -101 -147 -132 0 -48 71 -49 135 -2 21 16 26 17 16 4 -37 -45 -150 -73
-179 -44 -40 40 16 112 132 168 91 45 86 43 86 31z m30 -91 c0 -5 -5 -10 -11
-10 -5 0 -7 5 -4 10 3 6 8 10 11 10 2 0 4 -4 4 -10z m1660 -380 c0 -5 -2 -10
-4 -10 -3 0 -8 5 -11 10 -3 6 -1 10 4 10 6 0 11 -4 11 -10z m-1976 -1189 c3
-5 -3 -11 -14 -14 -20 -5 -26 3 -13 16 9 10 21 9 27 -2z m-637 -33 c-3 -8 -6
-5 -6 6 -1 11 2 17 5 13 3 -3 4 -12 1 -19z m518 -8 c3 -5 1 -10 -4 -10 -6 0
-11 5 -11 10 0 6 2 10 4 10 3 0 8 -4 11 -10z m45 -5 c11 -13 10 -14 -4 -9 -9
3 -16 10 -16 15 0 13 6 11 20 -6z m76 -35 c1 -26 1 -28 -3 -7 -2 15 -11 27
-19 27 -8 0 -14 5 -14 11 0 6 8 9 18 7 12 -2 17 -13 18 -38z m-256 10 c0 -5
-4 -10 -9 -10 -6 0 -13 5 -16 10 -3 6 1 10 9 10 9 0 16 -4 16 -10z m410 -4 c0
-3 -4 -8 -10 -11 -5 -3 -10 -1 -10 4 0 6 5 11 10 11 6 0 10 -2 10 -4z m-70
-26 c8 -5 12 -11 9 -14 -3 -3 -14 1 -25 9 -21 16 -8 20 16 5z m137 -22 c-3 -7
-5 -2 -5 12 0 14 2 19 5 13 2 -7 2 -19 0 -25z m-437 12 c0 -5 -4 -10 -10 -10
-5 0 -10 5 -10 10 0 6 5 10 10 10 6 0 10 -4 10 -10z m35 0 c3 -5 1 -10 -4 -10
-6 0 -11 5 -11 10 0 6 2 10 4 10 3 0 8 -4 11 -10z m53 -15 c-3 -3 -9 2 -12 12
-6 14 -5 15 5 6 7 -7 10 -15 7 -18z m118 -2 c-7 -7 -26 7 -26 19 0 6 6 6 15
-2 9 -7 13 -15 11 -17z m-66 13 c0 -3 -4 -8 -10 -11 -5 -3 -10 -1 -10 4 0 6 5
11 10 11 6 0 10 -2 10 -4z m-160 -66 c0 -5 -5 -10 -11 -10 -5 0 -7 5 -4 10 3
6 8 10 11 10 2 0 4 -4 4 -10z m-30 -52 c0 -4 -7 -5 -15 -2 -8 4 -15 16 -15 28
1 21 1 21 15 2 8 -11 15 -23 15 -28z m102 -11 c5 -28 5 -28 -13 -8 -23 24 -28
71 -6 49 8 -7 16 -26 19 -41z m32 19 c2 -14 -1 -26 -5 -26 -5 0 -9 14 -9 32 0
36 10 32 14 -6z m-254 20 c0 -3 -4 -8 -10 -11 -5 -3 -10 -1 -10 4 0 6 5 11 10
11 6 0 10 -2 10 -4z m-440 -286 c0 -5 -4 -10 -10 -10 -5 0 -10 5 -10 10 0 6 5
10 10 10 6 0 10 -4 10 -10z m2450 -164 c0 -3 -4 -8 -10 -11 -5 -3 -10 -1 -10
4 0 6 5 11 10 11 6 0 10 -2 10 -4z"/>
<path d="M4660 6926 c0 -28 12 -46 31 -46 19 0 24 16 13 44 -8 20 -44 21 -44
2z"/>
<path d="M5313 6835 c-3 -9 -3 -18 0 -21 9 -9 27 6 27 22 0 19 -19 18 -27 -1z"/>
<path d="M4370 6760 c0 -5 5 -10 11 -10 5 0 7 5 4 10 -3 6 -8 10 -11 10 -2 0
-4 -4 -4 -10z"/>
<path d="M4390 6520 c0 -5 5 -10 11 -10 5 0 7 5 4 10 -3 6 -8 10 -11 10 -2 0
-4 -4 -4 -10z"/>
<path d="M5560 6290 c0 -5 7 -10 16 -10 8 0 12 5 9 10 -3 6 -10 10 -16 10 -5
0 -9 -4 -9 -10z"/>
<path d="M5475 6129 c-4 -6 -5 -12 -2 -15 2 -3 7 2 10 11 7 17 1 20 -8 4z"/>
<path d="M4277 5843 c-13 -12 -7 -50 8 -50 11 0 13 7 8 26 -7 32 -8 33 -16 24z"/>
<path d="M5131 5884 c-24 -30 -28 -97 -10 -138 7 -13 25 -30 41 -37 25 -10 33
-9 56 8 23 17 27 28 30 80 2 48 -1 64 -18 86 -29 36 -71 36 -99 1z"/>
<path d="M5566 5924 c-11 -7 -16 -17 -13 -21 4 -4 15 1 24 10 9 9 15 19 12 21
-2 2 -13 -2 -23 -10z"/>
<path d="M4560 5860 c0 -33 3 -40 19 -40 34 0 51 12 51 34 0 28 -18 46 -47 46
-20 0 -23 -5 -23 -40z"/>
<path d="M4716 5371 c-4 -5 3 -7 14 -4 23 6 26 13 6 13 -8 0 -17 -4 -20 -9z"/>
<path d="M4480 4394 c0 -8 5 -12 10 -9 6 4 8 11 5 16 -9 14 -15 11 -15 -7z"/>
<path d="M4580 4200 c0 -5 5 -10 10 -10 6 0 10 5 10 10 0 6 -4 10 -10 10 -5 0
-10 -4 -10 -10z"/>
<path d="M3718 8257 c-3 -19 -2 -25 4 -19 6 6 8 18 6 28 -3 14 -5 12 -10 -9z"/>
<path d="M6430 7605 c-20 -24 -6 -28 15 -5 10 11 13 20 8 20 -6 0 -16 -7 -23
-15z"/>
<path d="M6407 7494 c-4 -4 -7 -14 -7 -23 0 -11 3 -12 11 -4 6 6 10 16 7 23
-2 6 -7 8 -11 4z"/>
<path d="M6435 7390 c-3 -5 -2 -10 4 -10 5 0 13 5 16 10 3 6 2 10 -4 10 -5 0
-13 -4 -16 -10z"/>
<path d="M6450 7230 c0 -5 5 -10 10 -10 6 0 10 5 10 10 0 6 -4 10 -10 10 -5 0
-10 -4 -10 -10z"/>
<path d="M6396 7192 c-3 -5 0 -24 8 -42 13 -31 27 -30 23 1 -5 25 -24 52 -31
41z"/>
<path d="M6476 7064 c-3 -9 -2 -23 4 -32 7 -14 9 -10 10 16 0 35 -5 41 -14 16z"/>
<path d="M3441 7024 c0 -11 3 -14 6 -6 3 7 2 16 -1 19 -3 4 -6 -2 -5 -13z"/>
<path d="M6425 6880 c-3 -5 -1 -10 4 -10 6 0 11 5 11 10 0 6 -2 10 -4 10 -3 0
-8 -4 -11 -10z"/>
<path d="M3440 6830 c0 -5 5 -10 10 -10 6 0 10 5 10 10 0 6 -4 10 -10 10 -5 0
-10 -4 -10 -10z"/>
<path d="M6470 6759 c0 -5 5 -7 10 -4 6 3 10 8 10 11 0 2 -4 4 -10 4 -5 0 -10
-5 -10 -11z"/>
<path d="M3441 6714 c0 -11 3 -14 6 -6 3 7 2 16 -1 19 -3 4 -6 -2 -5 -13z"/>
<path d="M6465 6570 c3 -5 8 -10 11 -10 2 0 4 5 4 10 0 6 -5 10 -11 10 -5 0
-7 -4 -4 -10z"/>
<path d="M3440 6541 c0 -10 19 -25 25 -20 1 2 -3 10 -11 17 -8 7 -14 8 -14 3z"/>
<path d="M3440 6501 c0 -5 5 -13 10 -16 6 -3 10 -2 10 4 0 5 -4 13 -10 16 -5
3 -10 2 -10 -4z"/>
<path d="M3455 6380 c3 -5 8 -10 11 -10 2 0 4 5 4 10 0 6 -5 10 -11 10 -5 0
-7 -4 -4 -10z"/>
<path d="M6447 6273 c-4 -3 -7 -11 -7 -17 0 -6 5 -5 12 2 6 6 9 14 7 17 -3 3
-9 2 -12 -2z"/>
<path d="M3451 6184 c0 -11 3 -14 6 -6 3 7 2 16 -1 19 -3 4 -6 -2 -5 -13z"/>
<path d="M3450 6109 c0 -5 5 -7 10 -4 6 3 10 8 10 11 0 2 -4 4 -10 4 -5 0 -10
-5 -10 -11z"/>
<path d="M3451 6003 c-1 -6 -4 -20 -7 -30 -5 -17 -5 -17 6 0 6 10 9 23 6 30
-3 9 -5 9 -5 0z"/>
<path d="M3450 5946 c0 -9 30 -14 35 -6 4 6 -3 10 -14 10 -12 0 -21 -2 -21 -4z"/>
<path d="M3450 5904 c0 -8 5 -12 10 -9 6 3 10 10 10 16 0 5 -4 9 -10 9 -5 0
-10 -7 -10 -16z"/>
<path d="M3455 5810 c3 -5 8 -10 11 -10 2 0 4 5 4 10 0 6 -5 10 -11 10 -5 0
-7 -4 -4 -10z"/>
<path d="M3450 5696 c0 -22 3 -27 11 -19 8 8 8 16 0 30 -9 16 -10 14 -11 -11z"/>
<path d="M3450 5650 c0 -5 5 -10 10 -10 6 0 10 5 10 10 0 6 -4 10 -10 10 -5 0
-10 -4 -10 -10z"/>
<path d="M3453 5515 c0 -59 2 -72 8 -51 5 17 5 53 0 80 -8 49 -9 48 -8 -29z"/>
<path d="M3450 5272 c0 -39 4 -73 8 -76 9 -6 6 133 -3 142 -3 3 -5 -27 -5 -66z"/>
<path d="M3465 5140 c-3 -5 -1 -10 4 -10 6 0 11 5 11 10 0 6 -2 10 -4 10 -3 0
-8 -4 -11 -10z"/>
<path d="M3461 5094 c0 -11 3 -14 6 -6 3 7 2 16 -1 19 -3 4 -6 -2 -5 -13z"/>
<path d="M3467 5063 c-4 -3 -7 -11 -7 -17 0 -6 5 -5 12 2 6 6 9 14 7 17 -3 3
-9 2 -12 -2z"/>
<path d="M3460 4897 c0 -10 8 -17 18 -17 9 0 13 4 7 8 -5 4 -13 11 -17 16 -5
5 -8 2 -8 -7z"/>
<path d="M3460 4820 c0 -5 5 -10 11 -10 5 0 7 5 4 10 -3 6 -8 10 -11 10 -2 0
-4 -4 -4 -10z"/>
<path d="M3460 4728 c0 -39 3 -68 7 -65 9 10 11 137 1 137 -4 0 -8 -32 -8 -72z"/>
<path d="M6488 4714 c-5 -4 -8 -19 -8 -33 0 -18 3 -22 11 -14 6 6 9 21 7 33
-1 12 -6 18 -10 14z"/>
<path d="M3466 4634 c-9 -25 -7 -116 3 -110 5 3 7 24 4 46 -3 24 -1 46 6 54 7
9 8 17 3 20 -6 3 -13 -1 -16 -10z"/>
<path d="M3463 4468 c1 -26 6 -43 11 -38 5 5 4 25 -2 47 l-10 38 1 -47z"/>
<path d="M3472 4330 c0 -19 2 -27 5 -17 2 9 2 25 0 35 -3 9 -5 1 -5 -18z"/>
<path d="M6460 4285 c0 -9 6 -12 15 -9 8 4 12 10 9 15 -8 14 -24 10 -24 -6z"/>
<path d="M6420 3980 c0 -5 5 -10 10 -10 6 0 10 5 10 10 0 6 -4 10 -10 10 -5 0
-10 -4 -10 -10z"/>
<path d="M3473 3865 c0 -14 3 -22 8 -19 5 3 9 11 9 19 0 8 -4 16 -9 19 -5 3
-8 -5 -8 -19z"/>
<path d="M3470 3744 c0 -14 4 -23 9 -20 5 3 7 15 4 26 -7 28 -13 25 -13 -6z"/>
<path d="M6460 3749 c0 -5 5 -7 10 -4 6 3 10 8 10 11 0 2 -4 4 -10 4 -5 0 -10
-5 -10 -11z"/>
<path d="M6470 3700 c0 -11 2 -20 4 -20 2 0 6 9 9 20 3 11 1 20 -4 20 -5 0 -9
-9 -9 -20z"/>
<path d="M3481 3694 c0 -11 3 -14 6 -6 3 7 2 16 -1 19 -3 4 -6 -2 -5 -13z"/>
<path d="M3470 3636 c0 -31 6 -34 13 -6 3 11 1 23 -4 26 -5 3 -9 -6 -9 -20z"/>
<path d="M6490 3604 c0 -8 5 -12 10 -9 6 4 8 11 5 16 -9 14 -15 11 -15 -7z"/>
<path d="M3481 3584 c0 -11 3 -14 6 -6 3 7 2 16 -1 19 -3 4 -6 -2 -5 -13z"/>
<path d="M6490 3548 c0 -12 3 -18 7 -14 11 10 12 36 2 36 -5 0 -9 -10 -9 -22z"/>
<path d="M3476 3544 c-4 -9 -4 -19 -1 -22 2 -3 7 3 11 12 4 9 4 19 1 22 -2 3
-7 -3 -11 -12z"/>
<path d="M3480 3464 c0 -8 5 -12 10 -9 6 3 10 10 10 16 0 5 -4 9 -10 9 -5 0
-10 -7 -10 -16z"/>
<path d="M3480 3380 c0 -5 5 -10 10 -10 6 0 10 5 10 10 0 6 -4 10 -10 10 -5 0
-10 -4 -10 -10z"/>
<path d="M6455 3320 c-3 -5 -1 -10 4 -10 6 0 11 5 11 10 0 6 -2 10 -4 10 -3 0
-8 -4 -11 -10z"/>
<path d="M3482 3230 c0 -14 2 -19 5 -12 2 6 2 18 0 25 -3 6 -5 1 -5 -13z"/>
<path d="M6463 3195 c-3 -9 -3 -19 1 -22 3 -4 6 -1 6 6 0 7 4 9 10 6 6 -3 7 1
4 9 -8 20 -13 20 -21 1z"/>
<path d="M6405 2810 c3 -5 8 -10 11 -10 2 0 4 5 4 10 0 6 -5 10 -11 10 -5 0
-7 -4 -4 -10z"/>
<path d="M6425 2631 c-6 -11 9 -23 19 -14 9 9 7 23 -3 23 -6 0 -12 -4 -16 -9z"/>
<path d="M6420 2415 c0 -8 5 -15 10 -15 6 0 10 7 10 15 0 8 -4 15 -10 15 -5 0
-10 -7 -10 -15z"/>
<path d="M6425 2140 c-3 -5 -1 -10 4 -10 6 0 11 5 11 10 0 6 -2 10 -4 10 -3 0
-8 -4 -11 -10z"/>
<path d="M6490 2100 c0 -5 5 -10 11 -10 5 0 7 5 4 10 -3 6 -8 10 -11 10 -2 0
-4 -4 -4 -10z"/>
<path d="M6220 1369 c-39 -7 -38 -10 2 -15 15 -1 30 2 34 7 9 15 3 16 -36 8z"/>
<path d="M6185 1320 c3 -5 13 -10 21 -10 8 0 14 5 14 10 0 6 -9 10 -21 10 -11
0 -17 -4 -14 -10z"/>
<path d="M6135 1230 c-3 -5 -1 -10 4 -10 6 0 11 5 11 10 0 6 -2 10 -4 10 -3 0
-8 -4 -11 -10z"/>
<path d="M6090 1210 c0 -5 5 -10 10 -10 6 0 10 5 10 10 0 6 -4 10 -10 10 -5 0
-10 -4 -10 -10z"/>
</g>
</svg>
