<?xml version="1.0" standalone="no"?>
<!DOCTYPE svg PUBLIC "-//W3C//DTD SVG 20010904//EN"
 "http://www.w3.org/TR/2001/REC-SVG-20010904/DTD/svg10.dtd">
<svg version="1.0" xmlns="http://www.w3.org/2000/svg"
 width="512.000000pt" height="512.000000pt" viewBox="0 0 512.000000 512.000000"
 preserveAspectRatio="xMidYMid meet">

<g transform="translate(0.000000,512.000000) scale(0.100000,-0.100000)"
fill="#000000" stroke="none">
<path d="M2490 4980 c0 -11 -9 -46 -20 -77 -11 -32 -20 -72 -20 -90 0 -27 -4
-33 -22 -34 -43 -1 -83 -7 -103 -15 -47 -20 -124 -81 -130 -101 -3 -13 -11
-23 -19 -23 -17 0 -44 -79 -29 -88 6 -4 14 -21 17 -38 4 -17 20 -44 37 -60 32
-31 32 -40 -4 -112 -51 -105 -177 -174 -422 -234 -88 -22 -196 -54 -240 -73
-59 -24 -102 -35 -165 -40 -112 -9 -122 -15 -119 -71 3 -43 0 -48 -54 -101
-31 -31 -57 -62 -57 -70 0 -7 -3 -13 -8 -13 -4 0 -32 -20 -62 -45 -77 -64
-153 -99 -267 -125 -54 -12 -120 -32 -147 -44 l-49 -22 44 -24 c36 -19 65 -24
158 -29 l113 -6 24 -65 c14 -36 31 -79 39 -97 8 -17 15 -38 15 -46 0 -9 5 -19
10 -22 6 -3 10 -14 10 -23 1 -9 9 -35 20 -57 11 -22 19 -47 20 -56 0 -8 4 -19
8 -25 5 -5 24 -49 42 -99 29 -80 97 -257 135 -355 7 -19 39 -105 71 -190 31
-85 62 -168 69 -185 65 -159 167 -450 181 -515 18 -88 23 -99 68 -138 40 -35
114 -65 229 -91 137 -32 172 -50 224 -114 6 -8 49 -24 95 -36 170 -43 189 -55
146 -90 -85 -72 -98 -85 -98 -104 0 -23 62 -109 132 -183 47 -49 119 -94 150
-94 29 0 148 87 148 108 0 4 8 15 18 23 9 9 28 29 42 45 80 92 80 113 0 177
-33 26 -60 52 -60 56 0 12 69 37 154 57 86 19 115 34 143 72 12 17 39 36 60
42 21 7 43 16 48 20 6 4 46 15 90 24 43 9 82 20 85 25 3 4 21 10 42 14 83 13
168 110 168 191 0 32 22 98 104 314 9 23 22 59 30 80 22 59 48 124 62 159 8
17 14 38 14 46 0 9 5 19 10 22 6 3 10 13 10 22 0 8 6 29 14 46 7 18 37 97 66
177 29 80 57 149 62 154 4 6 8 17 8 25 0 9 7 29 15 45 8 15 15 33 15 38 0 5 8
28 19 51 10 23 59 150 109 282 50 132 94 248 97 258 6 15 21 17 109 17 87 0
109 4 155 26 l55 25 -32 19 c-18 11 -76 30 -130 41 -116 25 -171 45 -235 86
-52 34 -137 109 -137 122 0 4 -27 32 -61 61 -57 50 -59 53 -43 71 24 27 11 63
-30 83 -22 10 -61 16 -111 16 -64 0 -86 5 -139 30 -35 17 -133 48 -217 69
-195 49 -304 91 -367 141 -56 45 -79 76 -104 140 -18 44 -18 44 7 70 14 14 25
35 25 47 0 11 9 31 21 44 58 67 -61 193 -216 228 -48 11 -54 15 -61 44 -3 17
-10 38 -15 47 -4 8 -16 43 -26 78 -17 59 -43 85 -43 42z m160 -940 c146 -15
312 -61 456 -124 69 -31 129 -56 135 -56 5 0 9 -5 9 -10 0 -6 9 -21 20 -33
l21 -21 -23 -10 c-29 -12 -1339 -14 -1461 -3 l-89 9 27 28 c34 35 204 120 308
154 193 63 401 86 597 66z m461 -369 l186 -7 34 -32 33 -31 -28 -11 c-42 -15
-1661 -9 -1677 7 -8 8 -1 18 31 39 39 26 50 28 193 34 214 9 1005 10 1228 1z
m-722 -236 c3 -4 7 -396 9 -872 l3 -865 -288 4 c-365 4 -344 -5 -402 173 -32
97 -98 278 -127 349 -13 32 -29 75 -34 95 -9 35 -54 165 -78 224 -7 16 -12 31
-12 35 0 6 -54 158 -70 197 -5 11 -18 49 -30 85 -11 36 -25 74 -29 85 -5 11
-19 49 -31 85 -12 36 -26 74 -30 85 -4 11 -22 61 -39 110 -18 50 -38 104 -46
120 -7 17 -16 46 -19 65 l-6 35 611 -2 c337 -1 614 -5 618 -8z m1469 0 c3 -2
0 -10 -5 -17 -6 -7 -14 -24 -18 -38 -7 -26 -61 -179 -75 -215 -4 -11 -18 -49
-30 -85 -12 -36 -26 -74 -30 -85 -4 -11 -18 -49 -30 -85 -12 -36 -26 -74 -30
-85 -4 -11 -18 -49 -30 -85 -12 -36 -26 -74 -30 -85 -9 -24 -57 -157 -100
-280 -18 -49 -36 -99 -40 -110 -4 -11 -18 -49 -30 -85 -12 -36 -26 -74 -31
-85 -4 -11 -18 -49 -29 -85 -12 -36 -25 -74 -30 -85 -5 -11 -19 -51 -31 -90
-24 -74 -52 -110 -97 -122 -15 -5 -151 -8 -302 -8 l-275 0 3 845 c1 464 5 854
8 867 l6 23 447 2 c485 3 772 1 779 -7z m-929 -1881 c-13 -15 -44 -36 -69 -48
-43 -20 -61 -21 -330 -21 -198 0 -302 4 -340 13 -52 12 -120 53 -120 73 0 5
170 9 442 9 l441 0 -24 -26z m-389 -192 c43 -35 17 -132 -35 -132 -52 0 -78
103 -33 134 29 21 41 20 68 -2z"/>
</g>
</svg>
